<svg width="24" height="24" viewBox="0 0 24 24" fill="none" xmlns="http://www.w3.org/2000/svg">
<path fill-rule="evenodd" clip-rule="evenodd" d="M13 2.75C13 2.19772 12.5523 1.75 12 1.75C11.4477 1.75 11 2.19772 11 2.75V4.5C11 5.05228 11.4477 5.5 12 5.5C12.5523 5.5 13 5.05228 13 4.5V2.75ZM13 14.5C13 13.9477 12.5523 13.5 12 13.5C11.4477 13.5 11 13.9477 11 14.5V21.5C11 22.0523 11.4477 22.5 12 22.5C12.5523 22.5 13 22.0523 13 21.5V14.5ZM11 9.5C11 8.94772 11.4477 8.5 12 8.5C12.5523 8.5 13 8.94772 13 9.5C13 10.0523 12.5523 10.5 12 10.5C11.4477 10.5 11 10.0523 11 9.5ZM12 6.5C10.3431 6.5 9 7.84315 9 9.5C9 11.1569 10.3431 12.5 12 12.5C13.6569 12.5 15 11.1569 15 9.5C15 7.84315 13.6569 6.5 12 6.5ZM19 22.5C18.4477 22.5 18 22.0523 18 21.5V19.75C18 19.1977 18.4477 18.75 19 18.75C19.5523 18.75 20 19.1977 20 19.75V21.5C20 22.0523 19.5523 22.5 19 22.5ZM19 10.75C18.4477 10.75 18 10.3023 18 9.75V3C18 2.44772 18.4477 2 19 2C19.5523 2 20 2.44772 20 3V9.75C20 10.3023 19.5523 10.75 19 10.75ZM20 14.75C20 15.3023 19.5523 15.75 19 15.75C18.4477 15.75 18 15.3023 18 14.75C18 14.1977 18.4477 13.75 19 13.75C19.5523 13.75 20 14.1977 20 14.75ZM19 17.75C20.6569 17.75 22 16.4069 22 14.75C22 13.0931 20.6569 11.75 19 11.75C17.3431 11.75 16 13.0931 16 14.75C16 16.4069 17.3431 17.75 19 17.75ZM5 22.5C4.44771 22.5 4 22.0523 4 21.5V19.75C4 19.1977 4.44771 18.75 5 18.75C5.55228 18.75 6 19.1977 6 19.75V21.5C6 22.0523 5.55228 22.5 5 22.5ZM5 10.75C4.44772 10.75 4 10.3023 4 9.75V3C4 2.44772 4.44772 2 5 2C5.55228 2 6 2.44772 6 3V9.75C6 10.3023 5.55228 10.75 5 10.75ZM6 14.75C6 15.3023 5.55228 15.75 5 15.75C4.44772 15.75 4 15.3023 4 14.75C4 14.1977 4.44772 13.75 5 13.75C5.55228 13.75 6 14.1977 6 14.75ZM5 17.75C6.65685 17.75 8 16.4069 8 14.75C8 13.0931 6.65685 11.75 5 11.75C3.34315 11.75 2 13.0931 2 14.75C2 16.4069 3.34315 17.75 5 17.75Z" fill="#454267"/>
</svg>
