<svg width="20" height="20" viewBox="0 0 20 20" fill="none" xmlns="http://www.w3.org/2000/svg">
<g clip-path="url(#clip0_20_9378)">
<path fill-rule="evenodd" clip-rule="evenodd" d="M0.544967 2.73005C0 3.79961 0 5.19974 0 8V12C0 14.8003 0 16.2004 0.544967 17.27C1.02433 18.2108 1.78924 18.9757 2.73005 19.455C3.79961 20 5.19974 20 8 20H12C14.8003 20 16.2004 20 17.27 19.455C18.2108 18.9757 18.9757 18.2108 19.455 17.27C20 16.2004 20 14.8003 20 12V8C20 5.19974 20 3.79961 19.455 2.73005C18.9757 1.78924 18.2108 1.02433 17.27 0.544967C16.2004 0 14.8003 0 12 0H8C5.19974 0 3.79961 0 2.73005 0.544967C1.78924 1.02433 1.02433 1.78924 0.544967 2.73005ZM2.73047 4.47644C2.73047 5.42566 3.5 6.19519 4.45312 6.19519C5.40234 6.19519 6.17187 5.42175 6.17187 4.47644C6.17187 3.52722 5.40234 2.75769 4.45312 2.75769C3.5 2.75769 2.73047 3.52722 2.73047 4.47644ZM17.0469 17.0428H14.082V12.4022C14.082 11.2968 14.0625 9.87097 12.5391 9.87097C10.9961 9.87097 10.7617 11.078 10.7617 12.3241V17.0428H7.80078V7.49597H10.6445V8.80066H10.6836C11.0781 8.05066 12.0469 7.25769 13.4883 7.25769C16.4922 7.25769 17.0469 9.23425 17.0469 11.8046V17.0428ZM5.9375 7.49597V17.0428H2.96875V7.49597H5.9375Z" fill="#454267"/>
</g>
<defs>
<clipPath id="clip0_20_9378">
<rect width="20" height="20" fill="white"/>
</clipPath>
</defs>
</svg>
