<svg width="24" height="24" viewBox="0 0 24 24" fill="none" xmlns="http://www.w3.org/2000/svg">
<path d="M20.2929 21.7071C20.6834 22.0976 21.3166 22.0976 21.7071 21.7071C22.0976 21.3166 22.0976 20.6834 21.7071 20.2929L20.2929 21.7071ZM10.5 17C6.91015 17 4 14.0899 4 10.5H2C2 15.1944 5.80558 19 10.5 19V17ZM4 10.5C4 6.91015 6.91015 4 10.5 4V2C5.80558 2 2 5.80558 2 10.5H4ZM10.5 4C14.0899 4 17 6.91015 17 10.5H19C19 5.80558 15.1944 2 10.5 2V4ZM21.7071 20.2929L16.5104 15.0962L15.0962 16.5104L20.2929 21.7071L21.7071 20.2929ZM17 10.5C17 12.2952 16.2736 13.9188 15.0962 15.0962L16.5104 16.5104C18.0475 14.9733 19 12.8469 19 10.5H17ZM15.0962 15.0962C13.9188 16.2736 12.2952 17 10.5 17V19C12.8469 19 14.9733 18.0475 16.5104 16.5104L15.0962 15.0962Z" fill="#454267"/>
</svg>
