<svg width="20" height="20" viewBox="0 0 20 20" fill="none" xmlns="http://www.w3.org/2000/svg">
<path d="M19.8008 6.00012C19.8008 6.00012 19.6055 4.62122 19.0039 4.01575C18.2422 3.21887 17.3906 3.21497 17 3.16809C14.2031 2.96497 10.0039 2.96497 10.0039 2.96497H9.99609C9.99609 2.96497 5.79688 2.96497 3 3.16809C2.60938 3.21497 1.75781 3.21887 0.996094 4.01575C0.394531 4.62122 0.203125 6.00012 0.203125 6.00012C0.203125 6.00012 0 7.62122 0 9.2384V10.754C0 12.3712 0.199219 13.9923 0.199219 13.9923C0.199219 13.9923 0.394531 15.3712 0.992187 15.9767C1.75391 16.7736 2.75391 16.7462 3.19922 16.8322C4.80078 16.9845 10 17.0314 10 17.0314C10 17.0314 14.2031 17.0236 17 16.8243C17.3906 16.7775 18.2422 16.7736 19.0039 15.9767C19.6055 15.3712 19.8008 13.9923 19.8008 13.9923C19.8008 13.9923 20 12.3751 20 10.754V9.2384C20 7.62122 19.8008 6.00012 19.8008 6.00012ZM7.93359 12.5939V6.97278L13.3359 9.79309L7.93359 12.5939Z" fill="#454267"/>
</svg>
