<svg width="176" height="56" viewBox="0 0 176 56" fill="none" xmlns="http://www.w3.org/2000/svg">
<rect x="0.730774" width="174.769" height="56" rx="14" fill="black"/>
<path d="M42.6569 28.082C42.6217 24.2603 45.8664 22.401 46.0148 22.3144C44.1772 19.7022 41.3289 19.3453 40.328 19.3168C37.9358 19.0714 35.6153 20.7125 34.3967 20.7125C33.1538 20.7125 31.2773 19.3405 29.2548 19.3809C26.6522 19.42 24.2174 20.8892 22.8821 23.1706C20.1262 27.8223 22.1816 34.6582 24.8219 38.4183C26.1426 40.2598 27.6859 42.3159 29.706 42.2436C31.6823 42.1641 32.4205 41.0151 34.8054 41.0151C37.1684 41.0151 37.8616 42.2436 39.9218 42.1973C42.0428 42.1641 43.3781 40.3475 44.6527 38.4894C46.179 36.3788 46.7919 34.3001 46.8162 34.1934C46.7664 34.1768 42.6971 32.6626 42.6569 28.082Z" fill="white"/>
<path d="M38.7652 16.8433C39.8281 15.5473 40.5554 13.7841 40.3535 11.9948C38.8151 12.0612 36.8911 13.0323 35.7832 14.2999C34.8029 15.4169 33.9273 17.2477 34.1535 18.9694C35.8817 19.0951 37.6561 18.1192 38.7652 16.8433Z" fill="white"/>
<path d="M65.6667 16.4923C65.6667 17.888 65.2374 18.9386 64.38 19.6441C63.5859 20.2951 62.4573 20.6212 60.9954 20.6212C60.2706 20.6212 59.6503 20.5903 59.131 20.5287V12.903C59.8084 12.7963 60.5381 12.7418 61.3262 12.7418C62.7187 12.7418 63.7683 13.037 64.4761 13.6275C65.269 14.2951 65.6667 15.2496 65.6667 16.4923ZM64.3229 16.5267C64.3229 15.622 64.0772 14.9283 63.5859 14.4445C63.0945 13.9619 62.377 13.72 61.432 13.72C61.0307 13.72 60.689 13.7461 60.4056 13.8006V19.5978C60.5625 19.6216 60.8495 19.6322 61.2666 19.6322C62.242 19.6322 62.9948 19.3678 63.5251 18.839C64.0553 18.3101 64.3229 17.5394 64.3229 16.5267Z" fill="white"/>
<path d="M72.791 17.7111C72.791 18.5707 72.5392 19.2751 72.0357 19.8276C71.5079 20.3956 70.8086 20.679 69.9354 20.679C69.0938 20.679 68.4237 20.4075 67.9238 19.862C67.4252 19.3178 67.1759 18.6312 67.1759 17.8036C67.1759 16.9379 67.4325 16.2277 67.9482 15.6763C68.4638 15.1249 69.157 14.8486 70.0302 14.8486C70.8718 14.8486 71.548 15.1202 72.06 15.6644C72.5465 16.1933 72.791 16.8763 72.791 17.7111ZM71.469 17.7514C71.469 17.2356 71.3547 16.7933 71.1272 16.4245C70.8597 15.9787 70.479 15.7557 69.984 15.7557C69.472 15.7557 69.0829 15.9787 68.8153 16.4245C68.5867 16.7933 68.4736 17.2427 68.4736 17.7739C68.4736 18.2897 68.5879 18.732 68.8153 19.1008C69.0914 19.5466 69.4757 19.7695 69.9719 19.7695C70.4583 19.7695 70.8402 19.5431 71.1151 19.0889C71.351 18.713 71.469 18.2672 71.469 17.7514Z" fill="white"/>
<path d="M82.3453 14.9628L80.5514 20.5525H79.3839L78.6409 18.1253C78.4523 17.5193 78.2991 16.917 78.1799 16.3193H78.1568C78.0461 16.9336 77.8929 17.5347 77.6959 18.1253L76.9066 20.5525H75.7257L74.0389 14.9628H75.3487L75.9969 17.6201C76.1538 18.2486 76.2827 18.8474 76.3861 19.4142H76.4092C76.504 18.947 76.6609 18.3517 76.8823 17.632L77.6959 14.964H78.7345L79.5141 17.5751C79.7026 18.2118 79.8558 18.8249 79.9738 19.4154H80.009C80.0954 18.8403 80.2255 18.2272 80.3982 17.5751L81.0939 14.964H82.3453V14.9628Z" fill="white"/>
<path d="M88.9559 20.5527H87.6814V17.3512C87.6814 16.3646 87.2971 15.8713 86.526 15.8713C86.1478 15.8713 85.8425 16.0065 85.6054 16.278C85.3707 16.5496 85.2515 16.8697 85.2515 17.2361V20.5515H83.9769V16.5603C83.9769 16.0693 83.9611 15.5369 83.9307 14.9607H85.0508L85.1104 15.8346H85.1457C85.294 15.563 85.5154 15.3389 85.806 15.1599C86.1514 14.9512 86.5382 14.8456 86.9614 14.8456C87.4965 14.8456 87.9416 15.014 88.2955 15.352C88.7358 15.7658 88.9559 16.3836 88.9559 17.2041V20.5527Z" fill="white"/>
<path d="M92.4677 20.5522H91.1943V12.3977H92.4677V20.5522Z" fill="white"/>
<path d="M99.9705 17.7111C99.9705 18.5707 99.7187 19.2751 99.2152 19.8276C98.6874 20.3956 97.9869 20.679 97.1149 20.679C96.2721 20.679 95.602 20.4075 95.1033 19.862C94.6047 19.3178 94.3554 18.6312 94.3554 17.8036C94.3554 16.9379 94.612 16.2277 95.1277 15.6763C95.6433 15.1249 96.3365 14.8486 97.2085 14.8486C98.0513 14.8486 98.7263 15.1202 99.2395 15.6644C99.726 16.1933 99.9705 16.8763 99.9705 17.7111ZM98.6473 17.7514C98.6473 17.2356 98.5329 16.7933 98.3055 16.4245C98.0392 15.9787 97.6573 15.7557 97.1635 15.7557C96.6503 15.7557 96.2611 15.9787 95.9948 16.4245C95.7662 16.7933 95.6531 17.2427 95.6531 17.7739C95.6531 18.2897 95.7674 18.732 95.9948 19.1008C96.2709 19.5466 96.6552 19.7695 97.1514 19.7695C97.6378 19.7695 98.0185 19.5431 98.2934 19.0889C98.5305 18.713 98.6473 18.2672 98.6473 17.7514Z" fill="white"/>
<path d="M106.141 20.5521H104.997L104.902 19.9083H104.867C104.475 20.4217 103.917 20.679 103.192 20.679C102.651 20.679 102.213 20.5095 101.884 20.1727C101.584 19.8668 101.435 19.4861 101.435 19.0344C101.435 18.3514 101.727 17.8308 102.314 17.4704C102.9 17.1099 103.725 16.9332 104.787 16.9415V16.8372C104.787 16.1008 104.39 15.7332 103.596 15.7332C103.03 15.7332 102.532 15.8719 102.101 16.147L101.842 15.3312C102.375 15.0099 103.033 14.8486 103.809 14.8486C105.307 14.8486 106.059 15.6194 106.059 17.1609V19.2194C106.059 19.7778 106.087 20.2225 106.141 20.5521ZM104.818 18.6312V17.7692C103.412 17.7455 102.709 18.1213 102.709 18.8956C102.709 19.1873 102.79 19.4055 102.954 19.5514C103.118 19.6972 103.327 19.7695 103.576 19.7695C103.856 19.7695 104.118 19.683 104.356 19.5111C104.596 19.3379 104.743 19.1186 104.797 18.8494C104.811 18.7889 104.818 18.7154 104.818 18.6312Z" fill="white"/>
<path d="M113.382 20.5522H112.251L112.191 19.6546H112.156C111.795 20.3376 111.179 20.6791 110.315 20.6791C109.624 20.6791 109.049 20.4146 108.593 19.8858C108.136 19.3569 107.909 18.6704 107.909 17.8273C107.909 16.9226 108.156 16.1898 108.652 15.6301C109.133 15.1084 109.721 14.8475 110.422 14.8475C111.191 14.8475 111.73 15.1001 112.037 15.6064H112.061V12.3977H113.337V19.0463C113.337 19.5905 113.351 20.0921 113.382 20.5522ZM112.061 18.1949V17.2629C112.061 17.1016 112.049 16.9712 112.026 16.8716C111.954 16.5728 111.8 16.3214 111.565 16.1186C111.328 15.9159 111.042 15.8139 110.712 15.8139C110.237 15.8139 109.865 15.9977 109.591 16.3665C109.32 16.7352 109.182 17.206 109.182 17.7811C109.182 18.3336 109.313 18.7819 109.574 19.1269C109.85 19.4945 110.222 19.6783 110.688 19.6783C111.106 19.6783 111.441 19.5253 111.695 19.2182C111.941 18.9348 112.061 18.5933 112.061 18.1949Z" fill="white"/>
<path d="M124.281 17.7111C124.281 18.5707 124.03 19.2751 123.526 19.8276C122.998 20.3956 122.3 20.679 121.426 20.679C120.585 20.679 119.915 20.4075 119.414 19.862C118.916 19.3178 118.666 18.6312 118.666 17.8036C118.666 16.9379 118.923 16.2277 119.439 15.6763C119.954 15.1249 120.647 14.8486 121.522 14.8486C122.362 14.8486 123.04 15.1202 123.55 15.6644C124.037 16.1933 124.281 16.8763 124.281 17.7111ZM122.961 17.7514C122.961 17.2356 122.846 16.7933 122.619 16.4245C122.35 15.9787 121.971 15.7557 121.474 15.7557C120.964 15.7557 120.574 15.9787 120.306 16.4245C120.077 16.7933 119.964 17.2427 119.964 17.7739C119.964 18.2897 120.078 18.732 120.306 19.1008C120.582 19.5466 120.966 19.7695 121.462 19.7695C121.949 19.7695 122.332 19.5431 122.607 19.0889C122.841 18.713 122.961 18.2672 122.961 17.7514Z" fill="white"/>
<path d="M131.134 20.5527H129.861V17.3512C129.861 16.3646 129.477 15.8713 128.704 15.8713C128.326 15.8713 128.021 16.0065 127.785 16.278C127.549 16.5496 127.431 16.8697 127.431 17.2361V20.5515H126.155V16.5603C126.155 16.0693 126.141 15.5369 126.11 14.9607H127.229L127.289 15.8346H127.324C127.474 15.563 127.695 15.3389 127.984 15.1599C128.331 14.9512 128.716 14.8456 129.141 14.8456C129.675 14.8456 130.12 15.014 130.474 15.352C130.915 15.7658 131.134 16.3836 131.134 17.2041V20.5527Z" fill="white"/>
<path d="M139.714 15.893H138.311V18.6084C138.311 19.2985 138.56 19.6435 139.054 19.6435C139.282 19.6435 139.472 19.6246 139.622 19.5854L139.654 20.5281C139.403 20.6206 139.072 20.6669 138.664 20.6669C138.161 20.6669 137.769 20.5175 137.486 20.2186C137.201 19.9198 137.06 19.4171 137.06 18.7115V15.893H136.222V14.9622H137.06V13.9377L138.309 13.5701V14.961H139.713V15.893H139.714Z" fill="white"/>
<path d="M146.466 20.5522H145.19V17.3744C145.19 16.3724 144.806 15.8708 144.036 15.8708C143.445 15.8708 143.041 16.1613 142.82 16.7423C142.782 16.8645 142.76 17.0139 142.76 17.1894V20.551H141.487V12.3977H142.76V15.7665H142.784C143.186 15.1534 143.761 14.8475 144.507 14.8475C145.034 14.8475 145.471 15.0159 145.818 15.3538C146.249 15.7748 146.466 16.4008 146.466 17.2285V20.5522Z" fill="white"/>
<path d="M153.419 17.4931C153.419 17.716 153.402 17.9033 153.371 18.0563H149.549C149.566 18.6089 149.748 19.0298 150.102 19.3215C150.426 19.5824 150.843 19.7128 151.354 19.7128C151.919 19.7128 152.435 19.6251 152.899 19.4484L153.099 20.3116C152.555 20.5417 151.916 20.6567 151.175 20.6567C150.287 20.6567 149.588 20.4017 149.082 19.8919C148.574 19.382 148.322 18.6978 148.322 17.8393C148.322 16.9962 148.556 16.2943 149.03 15.7346C149.523 15.1369 150.191 14.8381 151.034 14.8381C151.858 14.8381 152.485 15.1369 152.908 15.7346C153.25 16.2089 153.419 16.7958 153.419 17.4931ZM152.203 17.1717C152.212 16.8029 152.128 16.4852 151.956 16.2172C151.734 15.8721 151.397 15.699 150.941 15.699C150.525 15.699 150.186 15.8674 149.927 16.2053C149.716 16.4745 149.59 16.7958 149.549 17.1717H152.203Z" fill="white"/>
<path d="M71.261 41.9793H68.4991L66.9862 37.3441H61.7275L60.2863 41.9793H57.5974L62.8074 26.1992H66.0254L71.261 41.9793ZM66.5301 35.3995L65.1619 31.279C65.0172 30.858 64.746 29.8667 64.3459 28.3063H64.2972C64.1379 28.9774 63.8813 29.9687 63.5286 31.279L62.1847 35.3995H66.5301Z" fill="white"/>
<path d="M84.6572 36.1498C84.6572 38.0849 84.1209 39.6146 83.0482 40.7375C82.0875 41.7371 80.8944 42.2363 79.4703 42.2363C77.933 42.2363 76.8288 41.698 76.1562 40.6213H76.1076V46.6153H73.5147V34.3462C73.5147 33.1296 73.4819 31.881 73.4186 30.6004H75.699L75.8437 32.404H75.8923C76.757 31.0451 78.0693 30.3668 79.8303 30.3668C81.207 30.3668 82.3562 30.8969 83.2757 31.9581C84.1975 33.0206 84.6572 34.4174 84.6572 36.1498ZM82.0157 36.2423C82.0157 35.1348 81.7603 34.2217 81.2471 33.5032C80.6865 32.7538 79.9336 32.3791 78.9899 32.3791C78.3502 32.3791 77.7689 32.5878 77.2496 32.9992C76.729 33.4142 76.3885 33.9561 76.2292 34.6273C76.1489 34.9403 76.1088 35.1964 76.1088 35.398V37.2952C76.1088 38.1229 76.3691 38.8213 76.8896 39.3917C77.4101 39.962 78.0863 40.2466 78.9181 40.2466C79.8947 40.2466 80.6548 39.879 81.1985 39.1462C81.7433 38.4122 82.0157 37.4446 82.0157 36.2423Z" fill="white"/>
<path d="M98.0815 36.1498C98.0815 38.0849 97.5452 39.6146 96.4713 40.7375C95.5117 41.7371 94.3187 42.2363 92.8945 42.2363C91.3573 42.2363 90.253 41.698 89.5817 40.6213H89.5331V46.6153H86.9402V34.3462C86.9402 33.1296 86.9074 31.881 86.8441 30.6004H89.1244L89.2692 32.404H89.3178C90.1813 31.0451 91.4935 30.3668 93.2558 30.3668C94.6312 30.3668 95.7805 30.8969 96.7024 31.9581C97.6206 33.0206 98.0815 34.4174 98.0815 36.1498ZM95.44 36.2423C95.44 35.1348 95.1834 34.2217 94.6701 33.5032C94.1095 32.7538 93.3591 32.3791 92.4142 32.3791C91.7732 32.3791 91.1931 32.5878 90.6726 32.9992C90.1521 33.4142 89.8128 33.9561 89.6535 34.6273C89.5744 34.9403 89.5331 35.1964 89.5331 35.398V37.2952C89.5331 38.1229 89.7933 38.8213 90.3114 39.3917C90.8319 39.9608 91.5081 40.2466 92.3424 40.2466C93.319 40.2466 94.0791 39.879 94.6227 39.1462C95.1676 38.4122 95.44 37.4446 95.44 36.2423Z" fill="white"/>
<path d="M113.091 37.5539C113.091 38.8961 112.613 39.9882 111.653 40.8313C110.599 41.7526 109.131 42.2127 107.245 42.2127C105.503 42.2127 104.107 41.8855 103.05 41.2297L103.651 39.1226C104.789 39.7938 106.038 40.1305 107.399 40.1305C108.376 40.1305 109.136 39.9147 109.682 39.4855C110.225 39.0562 110.497 38.4799 110.497 37.7614C110.497 37.1211 110.273 36.5815 109.824 36.144C109.378 35.7064 108.632 35.2997 107.591 34.9238C104.758 33.8934 103.342 32.3839 103.342 30.399C103.342 29.1017 103.838 28.0381 104.832 27.2105C105.822 26.3816 107.142 25.9678 108.794 25.9678C110.267 25.9678 111.49 26.218 112.467 26.7172L111.819 28.778C110.906 28.2942 109.875 28.0523 108.721 28.0523C107.809 28.0523 107.096 28.2717 106.585 28.7081C106.154 29.0982 105.937 29.5737 105.937 30.1369C105.937 30.7606 106.184 31.2764 106.68 31.682C107.112 32.0567 107.896 32.4622 109.035 32.8997C110.427 33.4464 111.45 34.0855 112.108 34.8183C112.764 35.5487 113.091 36.463 113.091 37.5539Z" fill="white"/>
<path d="M121.66 32.4981H118.802V38.0225C118.802 39.4277 119.305 40.1296 120.315 40.1296C120.778 40.1296 121.162 40.0905 121.466 40.0122L121.538 41.932C121.027 42.1182 120.355 42.2118 119.522 42.2118C118.498 42.2118 117.697 41.9071 117.12 41.2988C116.545 40.6893 116.255 39.6672 116.255 38.2312V32.4957H114.552V30.5985H116.255V28.5151L118.802 27.7657V30.5985H121.66V32.4981Z" fill="white"/>
<path d="M134.557 36.1958C134.557 37.9448 134.044 39.3808 133.02 40.5037C131.946 41.6598 130.52 42.2361 128.744 42.2361C127.031 42.2361 125.668 41.6823 124.651 40.5748C123.635 39.4673 123.126 38.0693 123.126 36.3844C123.126 34.6211 123.649 33.1769 124.699 32.054C125.746 30.9299 127.159 30.3678 128.936 30.3678C130.648 30.3678 132.026 30.9215 133.066 32.0302C134.061 33.1057 134.557 34.4943 134.557 36.1958ZM131.867 36.2776C131.867 35.2282 131.637 34.3282 131.171 33.5777C130.627 32.6694 129.85 32.2164 128.843 32.2164C127.801 32.2164 127.009 32.6705 126.466 33.5777C126 34.3294 125.77 35.2437 125.77 36.3251C125.77 37.3745 126 38.2745 126.466 39.0239C127.026 39.9322 127.81 40.3851 128.82 40.3851C129.81 40.3851 130.587 39.9227 131.148 39.0001C131.626 38.2353 131.867 37.3259 131.867 36.2776Z" fill="white"/>
<path d="M142.984 32.8237C142.727 32.7775 142.454 32.7538 142.166 32.7538C141.254 32.7538 140.549 33.0893 140.053 33.7617C139.621 34.3545 139.405 35.1039 139.405 36.0087V41.979H136.813L136.837 34.1838C136.837 32.8723 136.804 31.6783 136.74 30.6016H138.998L139.093 32.7787H139.165C139.439 32.0304 139.87 31.4281 140.461 30.9763C141.039 30.5696 141.663 30.3668 142.336 30.3668C142.575 30.3668 142.792 30.3834 142.984 30.4131V32.8237Z" fill="white"/>
<path d="M154.579 35.7517C154.579 36.2046 154.549 36.5864 154.484 36.8983H146.706C146.736 38.0224 147.112 38.8821 147.834 39.4749C148.49 40.005 149.338 40.2706 150.379 40.2706C151.53 40.2706 152.581 40.0915 153.526 39.7323L153.932 41.4872C152.828 41.9568 151.524 42.1903 150.02 42.1903C148.21 42.1903 146.79 41.671 145.756 40.6334C144.725 39.5959 144.208 38.2026 144.208 36.4548C144.208 34.739 144.688 33.3102 145.65 32.1707C146.657 30.9541 148.018 30.3458 149.73 30.3458C151.412 30.3458 152.686 30.9541 153.55 32.1707C154.235 33.137 154.579 34.3323 154.579 35.7517ZM152.107 35.0959C152.124 34.3465 151.955 33.6991 151.603 33.1525C151.155 32.4493 150.465 32.0983 149.537 32.0983C148.689 32.0983 148 32.441 147.473 33.1287C147.042 33.6754 146.785 34.3311 146.706 35.0947H152.107V35.0959Z" fill="white"/>
</svg>
