<svg width="176" height="56" viewBox="0 0 176 56" fill="none" xmlns="http://www.w3.org/2000/svg">
<rect x="0.5" width="174.769" height="56" rx="14" fill="black"/>
<path d="M58.4383 20.078C57.9569 20.078 57.5049 19.9938 57.082 19.8254C56.6626 19.6535 56.293 19.4025 55.9732 19.0724C55.657 18.7424 55.4094 18.3384 55.2307 17.8606C55.0519 17.3793 54.9625 16.8292 54.9625 16.2104C54.9625 15.399 55.1138 14.7063 55.4163 14.1321C55.7188 13.5545 56.1331 13.1128 56.6591 12.8068C57.1851 12.4974 57.7782 12.3427 58.4383 12.3427C59.3528 12.3427 60.0764 12.5558 60.6093 12.9821C61.1456 13.405 61.5083 13.9998 61.6974 14.7664L60.4288 14.9675C60.2879 14.5275 60.0575 14.1768 59.7378 13.9155C59.4181 13.6508 59.0107 13.5184 58.5156 13.5184C58.0171 13.5116 57.6028 13.6199 57.2728 13.8433C56.9428 14.0668 56.6935 14.3814 56.525 14.787C56.36 15.1927 56.2775 15.6672 56.2775 16.2104C56.2775 16.7536 56.36 17.2263 56.525 17.6285C56.6901 18.0273 56.9376 18.3384 57.2676 18.5619C57.6011 18.7854 58.0171 18.9005 58.5156 18.9074C58.8903 18.9109 59.2187 18.8438 59.5006 18.7063C59.7825 18.5653 60.0128 18.3539 60.1916 18.072C60.3704 17.7867 60.4907 17.4308 60.5526 17.0045H59.2427V16.0299H61.8728C61.8796 16.0849 61.8848 16.1657 61.8882 16.2722C61.8917 16.3788 61.8934 16.4424 61.8934 16.463C61.8934 17.1644 61.7542 17.7884 61.4757 18.335C61.2007 18.8782 60.8053 19.3045 60.2896 19.6139C59.7739 19.9233 59.1568 20.078 58.4383 20.078ZM62.9291 19.9233V12.4974H67.7251V13.6628H64.172V15.4935H67.1062V16.659H64.172V18.7579H67.7251V19.9233H62.9291ZM70.7466 19.9233V13.6628H68.3435V12.4974H74.3926V13.6628H71.9894V19.9233H70.7466ZM77.0728 19.9233V12.4974H78.3156V19.9233H77.0728ZM81.6447 19.9233V13.6628H79.2415V12.4974H85.2906V13.6628H82.8875V19.9233H81.6447ZM91.0083 20.078C90.2657 20.078 89.6296 19.9165 89.1002 19.5933C88.5708 19.2667 88.1634 18.8129 87.878 18.2319C87.5961 17.6509 87.4551 16.977 87.4551 16.2104C87.4551 15.4437 87.5961 14.7699 87.878 14.1888C88.1634 13.6078 88.5708 13.1557 89.1002 12.8326C89.6296 12.506 90.2657 12.3427 91.0083 12.3427C91.7509 12.3427 92.3869 12.506 92.9163 12.8326C93.4492 13.1557 93.8566 13.6078 94.1385 14.1888C94.4239 14.7699 94.5665 15.4437 94.5665 16.2104C94.5665 16.977 94.4239 17.6509 94.1385 18.2319C93.8566 18.8129 93.4492 19.2667 92.9163 19.5933C92.3869 19.9165 91.7509 20.078 91.0083 20.078ZM91.0083 18.9074C91.5068 18.9109 91.921 18.8008 92.2511 18.5774C92.5846 18.3539 92.8338 18.0393 92.9988 17.6337C93.1673 17.228 93.2515 16.7536 93.2515 16.2104C93.2515 15.6672 93.1673 15.1962 92.9988 14.7974C92.8338 14.3951 92.5846 14.0823 92.2511 13.8588C91.921 13.6353 91.5068 13.5202 91.0083 13.5133C90.5098 13.5098 90.0955 13.6199 89.7654 13.8433C89.4354 14.0668 89.1861 14.3814 89.0177 14.787C88.8527 15.1927 88.7702 15.6672 88.7702 16.2104C88.7702 16.7536 88.8527 17.2263 89.0177 17.6285C89.1827 18.0273 89.4302 18.3384 89.7603 18.5619C90.0938 18.7854 90.5098 18.9005 91.0083 18.9074ZM95.593 19.9233V12.4974H96.8513L100.296 17.7316V12.4974H101.554V19.9233H100.296L96.8513 14.6891V19.9233H95.593Z" fill="white"/>
<path d="M88.0563 30.006C87.0193 30.0085 86.0063 30.3184 85.1455 30.8965C84.2846 31.4746 83.6145 32.2951 83.2199 33.254C82.8253 34.213 82.724 35.2675 82.9287 36.284C83.1334 37.3006 83.6349 38.2337 84.3699 38.9652C85.1049 39.6967 86.0403 40.1939 87.0578 40.3938C88.0753 40.5937 89.1293 40.4874 90.0864 40.0884C91.0435 39.6893 91.8608 39.0153 92.4349 38.1518C93.009 37.2882 93.3141 36.2738 93.3117 35.2368C93.3217 34.545 93.1924 33.8583 92.9316 33.2175C92.6707 32.5768 92.2836 31.995 91.7932 31.507C91.3028 31.0189 90.7193 30.6345 90.0773 30.3767C89.4353 30.1188 88.748 29.9928 88.0563 30.006ZM88.0563 38.4122C87.4207 38.4566 86.7864 38.3089 86.2359 37.9881C85.6854 37.6672 85.2442 37.1883 84.9695 36.6133C84.6949 36.0384 84.5995 35.3942 84.6959 34.7644C84.7922 34.1346 85.0758 33.5483 85.5098 33.0818C85.9437 32.6153 86.508 32.2901 87.1292 32.1485C87.7504 32.007 88.3999 32.0556 88.9931 32.288C89.5864 32.5204 90.096 32.9259 90.4557 33.4518C90.8154 33.9777 91.0086 34.5997 91.0101 35.2368C91.0299 35.6405 90.9687 36.0441 90.8301 36.4238C90.6915 36.8035 90.4782 37.1515 90.2029 37.4475C89.9276 37.7434 89.5958 37.9813 89.2272 38.1469C88.8585 38.3126 88.4604 38.4028 88.0563 38.4122ZM76.5855 30.006C75.5485 30.0085 74.5356 30.3184 73.6747 30.8965C72.8138 31.4746 72.1437 32.2951 71.7492 33.254C71.3546 34.213 71.2532 35.2675 71.4579 36.284C71.6626 37.3006 72.1642 38.2337 72.8991 38.9652C73.6341 39.6967 74.5695 40.1939 75.587 40.3938C76.6046 40.5937 77.6585 40.4874 78.6156 40.0884C79.5727 39.6893 80.39 39.0153 80.9641 38.1518C81.5382 37.2882 81.8433 36.2738 81.8409 35.2368C81.8509 34.545 81.7217 33.8583 81.4608 33.2175C81.1999 32.5768 80.8128 31.995 80.3224 31.507C79.8321 31.0189 79.2485 30.6345 78.6065 30.3767C77.9645 30.1188 77.2772 29.9928 76.5855 30.006ZM76.5855 38.4122C75.9499 38.4566 75.3156 38.3089 74.7652 37.9881C74.2147 37.6672 73.7734 37.1883 73.4988 36.6133C73.2241 36.0384 73.1288 35.3942 73.2251 34.7644C73.3215 34.1346 73.605 33.5483 74.039 33.0818C74.473 32.6153 75.0372 32.2901 75.6585 32.1485C76.2797 32.007 76.9291 32.0556 77.5224 32.288C78.1156 32.5204 78.6252 32.9259 78.9849 33.4518C79.3446 33.9777 79.5378 34.5997 79.5394 35.2368C79.5592 35.6405 79.498 36.0441 79.3593 36.4238C79.2207 36.8035 79.0074 37.1515 78.7321 37.4475C78.4568 37.7434 78.1251 37.9813 77.7564 38.1469C77.3877 38.3126 76.9896 38.4028 76.5855 38.4122ZM62.9486 31.6183V33.8337H68.2655C68.1821 34.8772 67.7484 35.8618 67.0347 36.6276C66.5014 37.171 65.8599 37.5964 65.1518 37.8762C64.4437 38.1561 63.6847 38.2842 62.924 38.2522C61.3572 38.2522 59.8545 37.6298 58.7466 36.5219C57.6387 35.414 57.0163 33.9113 57.0163 32.3445C57.0163 30.7777 57.6387 29.275 58.7466 28.1671C59.8545 27.0592 61.3572 26.4368 62.924 26.4368C64.4261 26.4145 65.8765 26.9849 66.9609 28.0245L68.524 26.4614C67.7904 25.7359 66.9194 25.1641 65.9621 24.7794C65.0047 24.3948 63.9802 24.2051 62.9486 24.2214C61.8544 24.1788 60.7629 24.3576 59.7395 24.7469C58.7161 25.1363 57.7818 25.7282 56.9926 26.4873C56.2034 27.2464 55.5756 28.1569 55.1467 29.1644C54.7179 30.1719 54.4968 31.2557 54.4968 32.3507C54.4968 33.4456 54.7179 34.5294 55.1467 35.5369C55.5756 36.5444 56.2034 37.455 56.9926 38.214C57.7818 38.9731 58.7161 39.565 59.7395 39.9544C60.7629 40.3437 61.8544 40.5225 62.9486 40.4799C64.0014 40.5219 65.0512 40.3408 66.0291 39.9484C67.0069 39.556 67.8907 38.9611 68.6224 38.203C69.9149 36.7832 70.6036 34.9158 70.5424 32.9968C70.5468 32.5349 70.5098 32.0736 70.4317 31.6183H62.9486ZM118.715 33.3414C118.394 32.3971 117.794 31.5725 116.994 30.9769C116.193 30.3813 115.231 30.0427 114.235 30.006C113.562 30.0047 112.895 30.1415 112.277 30.4079C111.659 30.6744 111.102 31.0648 110.64 31.555C110.179 32.0453 109.823 32.6249 109.594 33.2582C109.366 33.8915 109.27 34.5649 109.312 35.2368C109.301 36.3603 109.654 37.4571 110.319 38.3633C110.983 39.2695 111.922 39.9365 112.997 40.2647C114.071 40.5929 115.223 40.5646 116.281 40.1841C117.338 39.8037 118.243 39.0914 118.862 38.1537L117.078 36.923C116.812 37.3664 116.434 37.7326 115.983 37.9851C115.532 38.2377 115.023 38.368 114.506 38.363C113.972 38.385 113.444 38.2451 112.992 37.9618C112.539 37.6784 112.183 37.2648 111.97 36.7753L118.973 33.883L118.715 33.3414ZM111.576 35.0891C111.551 34.7068 111.603 34.3234 111.728 33.9613C111.853 33.5991 112.049 33.2656 112.305 32.9802C112.56 32.6948 112.87 32.4633 113.217 32.2992C113.563 32.1351 113.938 32.0417 114.321 32.0245C114.717 32.0003 115.112 32.0937 115.456 32.2929C115.8 32.4921 116.077 32.7884 116.253 33.1445L111.576 35.0891ZM105.89 40.1599H108.192V24.7753H105.89V40.1599ZM102.124 31.1753H102.038C101.688 30.7949 101.262 30.4937 100.786 30.2921C100.31 30.0904 99.7973 29.9929 99.2809 30.006C97.9359 30.0713 96.6675 30.6515 95.7387 31.6264C94.8099 32.6014 94.2918 33.8964 94.2918 35.243C94.2918 36.5895 94.8099 37.8845 95.7387 38.8595C96.6675 39.8344 97.9359 40.4147 99.2809 40.4799C99.8027 40.4904 100.32 40.3855 100.797 40.1727C101.274 39.96 101.697 39.6446 102.038 39.2491H102.124V39.9999C102.124 42.006 101.053 43.0768 99.3301 43.0768C98.7545 43.0642 98.1957 42.8807 97.7245 42.5498C97.2534 42.219 96.8912 41.7555 96.684 41.2183L94.6901 42.043C95.0587 42.9688 95.6997 43.761 96.5281 44.3148C97.3566 44.8686 98.3337 45.1579 99.3301 45.1445C102.026 45.1445 104.253 43.5568 104.253 39.6922V30.3137H102.124V31.1753ZM99.4778 38.4122C98.6714 38.3619 97.9145 38.0061 97.3613 37.4173C96.808 36.8285 96.5 36.0509 96.5 35.243C96.5 34.435 96.808 33.6574 97.3613 33.0686C97.9145 32.4798 98.6714 32.124 99.4778 32.0737C99.8719 32.0907 100.259 32.1869 100.615 32.3564C100.971 32.5259 101.29 32.7653 101.551 33.0604C101.813 33.3555 102.013 33.7003 102.139 34.0742C102.265 34.4481 102.314 34.8435 102.284 35.2368C102.318 35.6315 102.271 36.0289 102.146 36.405C102.022 36.7811 101.823 37.128 101.56 37.4249C101.298 37.7217 100.978 37.9622 100.62 38.1319C100.262 38.3016 99.8736 38.397 99.4778 38.4122ZM129.496 24.7753H123.982V40.1599H126.284V34.326H129.496C130.152 34.3732 130.811 34.2846 131.431 34.066C132.051 33.8474 132.62 33.5033 133.101 33.0553C133.583 32.6072 133.967 32.0648 134.229 31.4618C134.492 30.8589 134.627 30.2083 134.627 29.5507C134.627 28.893 134.492 28.2424 134.229 27.6395C133.967 27.0365 133.583 26.4941 133.101 26.046C132.62 25.598 132.051 25.2539 131.431 25.0353C130.811 24.8167 130.152 24.7281 129.496 24.7753ZM129.496 32.1599H126.284V26.9168H129.546C130.244 26.9168 130.914 27.1943 131.408 27.6882C131.902 28.1822 132.179 28.8521 132.179 29.5507C132.179 30.2492 131.902 30.9191 131.408 31.4131C130.914 31.907 130.244 32.1845 129.546 32.1845L129.496 32.1599ZM143.699 29.9568C142.861 29.9051 142.026 30.1003 141.298 30.5181C140.569 30.9359 139.979 31.558 139.601 32.3076L141.632 33.1568C141.837 32.7868 142.145 32.4842 142.518 32.2855C142.892 32.0867 143.315 32.0003 143.736 32.0368C144.028 32.0027 144.324 32.0271 144.607 32.1086C144.89 32.1901 145.153 32.3271 145.382 32.5115C145.612 32.696 145.802 32.9242 145.942 33.1829C146.082 33.4416 146.169 33.7256 146.198 34.0183V34.166C145.458 33.777 144.634 33.5742 143.798 33.5753C141.607 33.5753 139.367 34.806 139.367 37.046C139.389 37.5222 139.506 37.9891 139.711 38.419C139.917 38.849 140.207 39.2332 140.564 39.549C140.921 39.8647 141.338 40.1054 141.79 40.2569C142.242 40.4083 142.72 40.4674 143.195 40.4307C143.772 40.4626 144.348 40.3404 144.863 40.0765C145.377 39.8127 145.813 39.4167 146.124 38.9291H146.198V40.1599H148.413V34.2399C148.413 31.5445 146.37 29.9814 143.749 29.9814L143.699 29.9568ZM143.416 38.3876C142.666 38.3876 141.619 38.006 141.619 37.083C141.619 35.8522 142.924 35.4337 144.081 35.4337C144.812 35.4157 145.535 35.5942 146.173 35.9507C146.096 36.619 145.779 37.2368 145.281 37.6894C144.783 38.142 144.138 38.3988 143.466 38.4122L143.416 38.3876ZM156.487 30.3137L153.853 36.9845H153.779L151.047 30.3137H148.586L152.684 39.643L150.345 44.8245H152.807L159.047 30.3137H156.487ZM135.81 40.1599H138.099V24.7753H135.81V40.1599Z" fill="white"/>
<path d="M29.6958 27.1385L16.5881 41.0462C16.7313 41.5722 16.9935 42.0583 17.3545 42.4669C17.7154 42.8754 18.1654 43.1956 18.6698 43.4026C19.1741 43.6095 19.7193 43.6978 20.2632 43.6606C20.8071 43.6233 21.3352 43.4615 21.8066 43.1877L36.5758 34.6708L29.6958 27.1385Z" fill="#EA4335"/>
<path d="M42.9471 24.7756L36.5717 21.0833L29.4086 27.4709L36.5963 34.6709L42.9348 30.9786C43.4982 30.6769 43.9692 30.2279 44.2976 29.6795C44.626 29.1311 44.7994 28.504 44.7994 27.8648C44.7994 27.2256 44.626 26.5984 44.2976 26.0501C43.9692 25.5017 43.4982 25.0527 42.9348 24.7509L42.9471 24.7756Z" fill="#FBBC04"/>
<path d="M16.5874 14.6585C16.5223 14.9492 16.4934 15.2469 16.5013 15.5447V40.16C16.5034 40.4676 16.5448 40.7737 16.6243 41.0708L30.1628 27.5324L16.5874 14.6585Z" fill="#4285F4"/>
<path d="M29.7912 27.8525L36.5727 21.0709L21.8035 12.5294C21.2486 12.1996 20.6151 12.0252 19.9696 12.0248C19.191 12.027 18.4346 12.2847 17.8165 12.7582C17.1985 13.2318 16.7529 13.8951 16.5481 14.6463L29.7912 27.8525Z" fill="#34A853"/>
</svg>
