<svg width="626" height="320" viewBox="0 0 626 320" fill="none" xmlns="http://www.w3.org/2000/svg">
<rect opacity="0.4" x="601" width="1" height="320" fill="url(#paint0_linear_98_3602)"/>
<rect opacity="0.4" x="618" width="1" height="320" fill="url(#paint1_linear_98_3602)"/>
<rect opacity="0.4" x="7" width="1" height="320" fill="url(#paint2_linear_98_3602)"/>
<rect opacity="0.4" x="24" width="1" height="320" fill="url(#paint3_linear_98_3602)"/>
<path d="M6 40.5H5C2.79086 40.5 1 42.2909 1 44.5V96.5C1 98.7091 2.79086 100.5 5 100.5H6" stroke="url(#paint4_linear_98_3602)"/>
<path d="M6 114H5C2.79086 114 1 115.791 1 118V170C1 172.209 2.79086 174 5 174H6" stroke="url(#paint5_linear_98_3602)"/>
<path opacity="0.2" d="M621 56.5H620V156.5H621C623.209 156.5 625 154.709 625 152.5V60.5C625 58.2909 623.209 56.5 621 56.5Z" fill="#15141E"/>
<path d="M620 56.5H621C623.209 56.5 625 58.2909 625 60.5V152.5C625 154.709 623.209 156.5 621 156.5H620" stroke="url(#paint6_linear_98_3602)"/>
<defs>
<linearGradient id="paint0_linear_98_3602" x1="601.5" y1="0" x2="601.5" y2="320" gradientUnits="userSpaceOnUse">
<stop stop-color="white" stop-opacity="0"/>
<stop offset="0.5" stop-color="#BCA5FF"/>
<stop offset="1" stop-color="white" stop-opacity="0"/>
</linearGradient>
<linearGradient id="paint1_linear_98_3602" x1="618.5" y1="0" x2="618.5" y2="320" gradientUnits="userSpaceOnUse">
<stop stop-color="white" stop-opacity="0"/>
<stop offset="0.5" stop-color="#BCA5FF"/>
<stop offset="1" stop-color="white" stop-opacity="0"/>
</linearGradient>
<linearGradient id="paint2_linear_98_3602" x1="7.5" y1="0" x2="7.5" y2="320" gradientUnits="userSpaceOnUse">
<stop stop-color="white" stop-opacity="0"/>
<stop offset="0.5" stop-color="#BCA5FF"/>
<stop offset="1" stop-color="white" stop-opacity="0"/>
</linearGradient>
<linearGradient id="paint3_linear_98_3602" x1="24.5" y1="0" x2="24.5" y2="320" gradientUnits="userSpaceOnUse">
<stop stop-color="white" stop-opacity="0"/>
<stop offset="0.5" stop-color="#BCA5FF"/>
<stop offset="1" stop-color="white" stop-opacity="0"/>
</linearGradient>
<linearGradient id="paint4_linear_98_3602" x1="3.5" y1="40.5" x2="3.5" y2="100.5" gradientUnits="userSpaceOnUse">
<stop stop-color="#BCA5FF" stop-opacity="0.12"/>
<stop offset="1" stop-color="#BCA5FF" stop-opacity="0.26"/>
</linearGradient>
<linearGradient id="paint5_linear_98_3602" x1="3.5" y1="114" x2="3.5" y2="174" gradientUnits="userSpaceOnUse">
<stop stop-color="#BCA5FF" stop-opacity="0.12"/>
<stop offset="0.0001" stop-color="#BCA5FF" stop-opacity="0.26"/>
<stop offset="1" stop-color="#BCA5FF" stop-opacity="0.26"/>
</linearGradient>
<linearGradient id="paint6_linear_98_3602" x1="622.5" y1="56.5" x2="622.5" y2="156.5" gradientUnits="userSpaceOnUse">
<stop stop-color="white" stop-opacity="0.12"/>
<stop offset="1" stop-color="white" stop-opacity="0.26"/>
</linearGradient>
</defs>
</svg>
