<svg width="108" height="108" viewBox="0 0 108 108" fill="none" xmlns="http://www.w3.org/2000/svg">
<path d="M95.6 6H12.4C10.1598 6 9.03968 6 8.18404 6.43597C7.43139 6.81947 6.81947 7.43139 6.43597 8.18404C6 9.03968 6 10.1598 6 12.4V95.6C6 97.8402 6 98.9603 6.43597 99.816C6.81947 100.569 7.43139 101.181 8.18404 101.564C9.03968 102 10.1598 102 12.4 102H95.6C97.8402 102 98.9603 102 99.816 101.564C100.569 101.181 101.181 100.569 101.564 99.816C102 98.9603 102 97.8402 102 95.6V12.4C102 10.1598 102 9.03968 101.564 8.18404C101.181 7.43139 100.569 6.81947 99.816 6.43597C98.9603 6 97.8402 6 95.6 6Z" fill="white"/>
<path d="M15.36 12H12V15.36H15.36V12Z" fill="#454267"/>
<path d="M18.72 12H15.36V15.36H18.72V12Z" fill="#454267"/>
<path d="M22.08 12H18.72V15.36H22.08V12Z" fill="#454267"/>
<path d="M25.44 12H22.08V15.36H25.44V12Z" fill="#454267"/>
<path d="M28.8 12H25.44V15.36H28.8V12Z" fill="#454267"/>
<path d="M32.16 12H28.8V15.36H32.16V12Z" fill="#454267"/>
<path d="M35.52 12H32.16V15.36H35.52V12Z" fill="#454267"/>
<path d="M42.24 12H38.88V15.36H42.24V12Z" fill="#454267"/>
<path d="M45.6 12H42.24V15.36H45.6V12Z" fill="#454267"/>
<path d="M48.96 12H45.6V15.36H48.96V12Z" fill="#454267"/>
<path d="M55.68 12H52.32V15.36H55.68V12Z" fill="#454267"/>
<path d="M59.04 12H55.68V15.36H59.04V12Z" fill="#454267"/>
<path d="M62.4 12H59.04V15.36H62.4V12Z" fill="#454267"/>
<path d="M65.76 12H62.4V15.36H65.76V12Z" fill="#454267"/>
<path d="M69.12 12H65.76V15.36H69.12V12Z" fill="#454267"/>
<path d="M75.84 12H72.48V15.36H75.84V12Z" fill="#454267"/>
<path d="M79.2 12H75.84V15.36H79.2V12Z" fill="#454267"/>
<path d="M82.56 12H79.2V15.36H82.56V12Z" fill="#454267"/>
<path d="M85.92 12H82.56V15.36H85.92V12Z" fill="#454267"/>
<path d="M89.28 12H85.92V15.36H89.28V12Z" fill="#454267"/>
<path d="M92.64 12H89.28V15.36H92.64V12Z" fill="#454267"/>
<path d="M96 12H92.64V15.36H96V12Z" fill="#454267"/>
<path d="M15.36 15.36H12V18.72H15.36V15.36Z" fill="#454267"/>
<path d="M35.52 15.36H32.16L32.16 18.72H35.52V15.36Z" fill="#454267"/>
<path d="M52.32 15.36H48.96V18.72H52.32V15.36Z" fill="#454267"/>
<path d="M55.68 15.36H52.32V18.72H55.68V15.36Z" fill="#454267"/>
<path d="M59.04 15.36H55.68V18.72H59.04V15.36Z" fill="#454267"/>
<path d="M62.4 15.36H59.04V18.72H62.4V15.36Z" fill="#454267"/>
<path d="M75.84 15.36H72.48V18.72H75.84V15.36Z" fill="#454267"/>
<path d="M96 15.36H92.64V18.72H96V15.36Z" fill="#454267"/>
<path d="M15.36 18.72H12V22.08H15.36V18.72Z" fill="#454267"/>
<path d="M22.08 18.72H18.72V22.08H22.08V18.72Z" fill="#454267"/>
<path d="M25.44 18.72H22.08V22.08H25.44V18.72Z" fill="#454267"/>
<path d="M28.8 18.72H25.44V22.08H28.8V18.72Z" fill="#454267"/>
<path d="M35.52 18.72H32.16V22.08H35.52V18.72Z" fill="#454267"/>
<path d="M45.6 18.72H42.24V22.08H45.6V18.72Z" fill="#454267"/>
<path d="M48.96 18.72H45.6V22.08H48.96V18.72Z" fill="#454267"/>
<path d="M55.68 18.72H52.32V22.08H55.68V18.72Z" fill="#454267"/>
<path d="M65.76 18.72H62.4L62.4 22.08H65.76V18.72Z" fill="#454267"/>
<path d="M75.84 18.72H72.48V22.08H75.84V18.72Z" fill="#454267"/>
<path d="M82.56 18.72H79.2V22.08H82.56V18.72Z" fill="#454267"/>
<path d="M85.92 18.72H82.56V22.08H85.92V18.72Z" fill="#454267"/>
<path d="M89.28 18.72H85.92V22.08H89.28V18.72Z" fill="#454267"/>
<path d="M96 18.72H92.64V22.08H96V18.72Z" fill="#454267"/>
<path d="M15.36 22.08H12V25.44H15.36V22.08Z" fill="#454267"/>
<path d="M22.08 22.08H18.72V25.44H22.08V22.08Z" fill="#454267"/>
<path d="M25.44 22.08H22.08V25.44H25.44V22.08Z" fill="#454267"/>
<path d="M28.8 22.08H25.44V25.44H28.8V22.08Z" fill="#454267"/>
<path d="M35.52 22.08H32.16V25.44H35.52V22.08Z" fill="#454267"/>
<path d="M42.24 22.08H38.88V25.44H42.24V22.08Z" fill="#454267"/>
<path d="M48.96 22.08H45.6V25.44H48.96V22.08Z" fill="#454267"/>
<path d="M52.32 22.08H48.96V25.44H52.32V22.08Z" fill="#454267"/>
<path d="M55.68 22.08H52.32V25.44H55.68V22.08Z" fill="#454267"/>
<path d="M59.04 22.08H55.68V25.44H59.04V22.08Z" fill="#454267"/>
<path d="M62.4 22.08H59.04V25.44H62.4L62.4 22.08Z" fill="#454267"/>
<path d="M65.76 22.08H62.4L62.4 25.44H65.76V22.08Z" fill="#454267"/>
<path d="M69.12 22.08H65.76V25.44H69.12V22.08Z" fill="#454267"/>
<path d="M75.84 22.08H72.48V25.44H75.84V22.08Z" fill="#454267"/>
<path d="M82.56 22.08H79.2V25.44H82.56V22.08Z" fill="#454267"/>
<path d="M85.92 22.08H82.56V25.44H85.92V22.08Z" fill="#454267"/>
<path d="M89.28 22.08H85.92V25.44H89.28V22.08Z" fill="#454267"/>
<path d="M96 22.08H92.64V25.44H96V22.08Z" fill="#454267"/>
<path d="M15.36 25.44H12V28.8H15.36V25.44Z" fill="#454267"/>
<path d="M22.08 25.44H18.72V28.8H22.08V25.44Z" fill="#454267"/>
<path d="M25.44 25.44H22.08V28.8H25.44V25.44Z" fill="#454267"/>
<path d="M28.8 25.44H25.44V28.8H28.8V25.44Z" fill="#454267"/>
<path d="M35.52 25.44H32.16V28.8H35.52V25.44Z" fill="#454267"/>
<path d="M42.24 25.44H38.88V28.8H42.24V25.44Z" fill="#454267"/>
<path d="M45.6 25.44H42.24V28.8H45.6V25.44Z" fill="#454267"/>
<path d="M48.96 25.44H45.6V28.8H48.96V25.44Z" fill="#454267"/>
<path d="M52.32 25.44H48.96V28.8H52.32V25.44Z" fill="#454267"/>
<path d="M59.04 25.44H55.68V28.8H59.04V25.44Z" fill="#454267"/>
<path d="M62.4 25.44H59.04V28.8H62.4V25.44Z" fill="#454267"/>
<path d="M65.76 25.44H62.4V28.8H65.76V25.44Z" fill="#454267"/>
<path d="M75.84 25.44H72.48V28.8H75.84V25.44Z" fill="#454267"/>
<path d="M82.56 25.44H79.2V28.8H82.56V25.44Z" fill="#454267"/>
<path d="M85.92 25.44H82.56V28.8H85.92V25.44Z" fill="#454267"/>
<path d="M89.28 25.44H85.92V28.8H89.28V25.44Z" fill="#454267"/>
<path d="M96 25.44H92.64V28.8H96V25.44Z" fill="#454267"/>
<path d="M15.36 28.8H12V32.16H15.36V28.8Z" fill="#454267"/>
<path d="M35.52 28.8H32.16V32.16H35.52V28.8Z" fill="#454267"/>
<path d="M42.24 28.8H38.88V32.16H42.24V28.8Z" fill="#454267"/>
<path d="M45.6 28.8H42.24V32.16H45.6V28.8Z" fill="#454267"/>
<path d="M65.76 28.8H62.4L62.4 32.16H65.76V28.8Z" fill="#454267"/>
<path d="M69.12 28.8H65.76V32.16H69.12V28.8Z" fill="#454267"/>
<path d="M75.84 28.8H72.48V32.16H75.84V28.8Z" fill="#454267"/>
<path d="M96 28.8H92.64V32.16H96V28.8Z" fill="#454267"/>
<path d="M15.36 32.16H12V35.52H15.36V32.16Z" fill="#454267"/>
<path d="M18.72 32.16L15.36 32.16V35.52H18.72V32.16Z" fill="#454267"/>
<path d="M22.08 32.16H18.72V35.52H22.08V32.16Z" fill="#454267"/>
<path d="M25.44 32.16H22.08V35.52H25.44V32.16Z" fill="#454267"/>
<path d="M28.8 32.16H25.44V35.52H28.8V32.16Z" fill="#454267"/>
<path d="M32.16 32.16L28.8 32.16V35.52H32.16L32.16 32.16Z" fill="#454267"/>
<path d="M35.52 32.16H32.16L32.16 35.52H35.52V32.16Z" fill="#454267"/>
<path d="M42.24 32.16H38.88V35.52H42.24V32.16Z" fill="#454267"/>
<path d="M48.96 32.16L45.6 32.16V35.52H48.96V32.16Z" fill="#454267"/>
<path d="M55.68 32.16H52.32V35.52H55.68V32.16Z" fill="#454267"/>
<path d="M62.4 32.16L59.04 32.16V35.52H62.4L62.4 32.16Z" fill="#454267"/>
<path d="M69.12 32.16H65.76V35.52H69.12V32.16Z" fill="#454267"/>
<path d="M75.84 32.16H72.48V35.52H75.84V32.16Z" fill="#454267"/>
<path d="M79.2 32.16L75.84 32.16V35.52H79.2V32.16Z" fill="#454267"/>
<path d="M82.56 32.16H79.2V35.52H82.56V32.16Z" fill="#454267"/>
<path d="M85.92 32.16H82.56V35.52H85.92V32.16Z" fill="#454267"/>
<path d="M89.28 32.16H85.92V35.52H89.28V32.16Z" fill="#454267"/>
<path d="M92.64 32.16L89.28 32.16V35.52H92.64V32.16Z" fill="#454267"/>
<path d="M96 32.16H92.64V35.52H96V32.16Z" fill="#454267"/>
<path d="M42.24 35.52H38.88V38.88H42.24V35.52Z" fill="#454267"/>
<path d="M45.6 35.52H42.24V38.88H45.6V35.52Z" fill="#454267"/>
<path d="M48.96 35.52H45.6V38.88H48.96V35.52Z" fill="#454267"/>
<path d="M55.68 35.52H52.32V38.88H55.68V35.52Z" fill="#454267"/>
<path d="M59.04 35.52H55.68V38.88H59.04V35.52Z" fill="#454267"/>
<path d="M65.76 35.52H62.4L62.4 38.88H65.76V35.52Z" fill="#454267"/>
<path d="M15.36 38.88H12V42.24H15.36V38.88Z" fill="#454267"/>
<path d="M18.72 38.88H15.36V42.24H18.72V38.88Z" fill="#454267"/>
<path d="M22.08 38.88H18.72V42.24H22.08V38.88Z" fill="#454267"/>
<path d="M28.8 38.88H25.44V42.24H28.8V38.88Z" fill="#454267"/>
<path d="M35.52 38.88H32.16V42.24H35.52V38.88Z" fill="#454267"/>
<path d="M42.24 38.88H38.88V42.24H42.24V38.88Z" fill="#454267"/>
<path d="M48.96 38.88H45.6V42.24H48.96V38.88Z" fill="#454267"/>
<path d="M52.32 38.88H48.96V42.24H52.32V38.88Z" fill="#454267"/>
<path d="M65.76 38.88H62.4V42.24H65.76V38.88Z" fill="#454267"/>
<path d="M69.12 38.88H65.76V42.24H69.12V38.88Z" fill="#454267"/>
<path d="M72.48 38.88H69.12V42.24H72.48V38.88Z" fill="#454267"/>
<path d="M75.84 38.88H72.48V42.24H75.84V38.88Z" fill="#454267"/>
<path d="M79.2 38.88H75.84V42.24H79.2V38.88Z" fill="#454267"/>
<path d="M82.56 38.88H79.2V42.24H82.56V38.88Z" fill="#454267"/>
<path d="M85.92 38.88H82.56V42.24H85.92V38.88Z" fill="#454267"/>
<path d="M96 38.88H92.64V42.24H96V38.88Z" fill="#454267"/>
<path d="M22.08 42.24H18.72V45.6H22.08V42.24Z" fill="#454267"/>
<path d="M38.88 42.24H35.52V45.6H38.88V42.24Z" fill="#454267"/>
<path d="M42.24 42.24H38.88V45.6H42.24V42.24Z" fill="#454267"/>
<path d="M45.6 42.24H42.24V45.6H45.6V42.24Z" fill="#454267"/>
<path d="M48.96 42.24H45.6V45.6H48.96V42.24Z" fill="#454267"/>
<path d="M55.68 42.24H52.32V45.6H55.68V42.24Z" fill="#454267"/>
<path d="M59.04 42.24H55.68V45.6H59.04V42.24Z" fill="#454267"/>
<path d="M69.12 42.24H65.76V45.6H69.12V42.24Z" fill="#454267"/>
<path d="M75.84 42.24H72.48V45.6H75.84V42.24Z" fill="#454267"/>
<path d="M85.92 42.24H82.56V45.6H85.92V42.24Z" fill="#454267"/>
<path d="M89.28 42.24H85.92V45.6H89.28V42.24Z" fill="#454267"/>
<path d="M92.64 42.24H89.28V45.6H92.64V42.24Z" fill="#454267"/>
<path d="M96 42.24H92.64V45.6H96V42.24Z" fill="#454267"/>
<path d="M18.72 45.6H15.36V48.96H18.72V45.6Z" fill="#454267"/>
<path d="M25.44 45.6H22.08V48.96H25.44V45.6Z" fill="#454267"/>
<path d="M35.52 45.6H32.16V48.96H35.52V45.6Z" fill="#454267"/>
<path d="M52.32 45.6H48.96V48.96H52.32V45.6Z" fill="#454267"/>
<path d="M55.68 45.6H52.32V48.96H55.68V45.6Z" fill="#454267"/>
<path d="M59.04 45.6H55.68V48.96H59.04V45.6Z" fill="#454267"/>
<path d="M62.4 45.6H59.04V48.96H62.4V45.6Z" fill="#454267"/>
<path d="M69.12 45.6H65.76V48.96H69.12V45.6Z" fill="#454267"/>
<path d="M75.84 45.6H72.48V48.96H75.84V45.6Z" fill="#454267"/>
<path d="M82.56 45.6H79.2V48.96H82.56V45.6Z" fill="#454267"/>
<path d="M92.64 45.6H89.28V48.96H92.64V45.6Z" fill="#454267"/>
<path d="M96 45.6H92.64V48.96H96V45.6Z" fill="#454267"/>
<path d="M15.36 48.96H12V52.32H15.36V48.96Z" fill="#454267"/>
<path d="M18.72 48.96H15.36V52.32H18.72V48.96Z" fill="#454267"/>
<path d="M25.44 48.96H22.08V52.32H25.44V48.96Z" fill="#454267"/>
<path d="M28.8 48.96H25.44V52.32H28.8V48.96Z" fill="#454267"/>
<path d="M48.96 48.96H45.6V52.32H48.96V48.96Z" fill="#454267"/>
<path d="M55.68 48.96H52.32V52.32H55.68V48.96Z" fill="#454267"/>
<path d="M69.12 48.96H65.76V52.32H69.12V48.96Z" fill="#454267"/>
<path d="M72.48 48.96H69.12V52.32H72.48V48.96Z" fill="#454267"/>
<path d="M79.2 48.96H75.84V52.32H79.2V48.96Z" fill="#454267"/>
<path d="M82.56 48.96H79.2V52.32H82.56V48.96Z" fill="#454267"/>
<path d="M89.28 48.96H85.92V52.32H89.28V48.96Z" fill="#454267"/>
<path d="M92.64 48.96H89.28V52.32H92.64V48.96Z" fill="#454267"/>
<path d="M96 48.96H92.64V52.32H96V48.96Z" fill="#454267"/>
<path d="M25.44 52.32H22.08V55.68H25.44V52.32Z" fill="#454267"/>
<path d="M28.8 52.32H25.44V55.68H28.8V52.32Z" fill="#454267"/>
<path d="M32.16 52.32H28.8V55.68H32.16V52.32Z" fill="#454267"/>
<path d="M35.52 52.32H32.16V55.68H35.52V52.32Z" fill="#454267"/>
<path d="M45.6 52.32H42.24V55.68H45.6V52.32Z" fill="#454267"/>
<path d="M59.04 52.32H55.68V55.68H59.04V52.32Z" fill="#454267"/>
<path d="M65.76 52.32H62.4V55.68H65.76V52.32Z" fill="#454267"/>
<path d="M69.12 52.32H65.76V55.68H69.12V52.32Z" fill="#454267"/>
<path d="M75.84 52.32H72.48V55.68H75.84V52.32Z" fill="#454267"/>
<path d="M85.92 52.32H82.56V55.68H85.92V52.32Z" fill="#454267"/>
<path d="M92.64 52.32H89.28V55.68H92.64V52.32Z" fill="#454267"/>
<path d="M96 52.32H92.64V55.68H96V52.32Z" fill="#454267"/>
<path d="M15.36 55.68H12V59.04H15.36V55.68Z" fill="#454267"/>
<path d="M18.72 55.68H15.36V59.04H18.72V55.68Z" fill="#454267"/>
<path d="M22.08 55.68H18.72V59.04H22.08V55.68Z" fill="#454267"/>
<path d="M28.8 55.68H25.44V59.04H28.8V55.68Z" fill="#454267"/>
<path d="M32.16 55.68H28.8V59.04H32.16V55.68Z" fill="#454267"/>
<path d="M42.24 55.68H38.88V59.04H42.24V55.68Z" fill="#454267"/>
<path d="M55.68 55.68H52.32V59.04H55.68V55.68Z" fill="#454267"/>
<path d="M65.76 55.68H62.4V59.04H65.76V55.68Z" fill="#454267"/>
<path d="M75.84 55.68H72.48V59.04H75.84V55.68Z" fill="#454267"/>
<path d="M79.2 55.68H75.84V59.04H79.2V55.68Z" fill="#454267"/>
<path d="M82.56 55.68H79.2V59.04H82.56V55.68Z" fill="#454267"/>
<path d="M85.92 55.68H82.56V59.04H85.92V55.68Z" fill="#454267"/>
<path d="M89.28 55.68H85.92V59.04H89.28V55.68Z" fill="#454267"/>
<path d="M92.64 55.68H89.28V59.04H92.64V55.68Z" fill="#454267"/>
<path d="M96 55.68H92.64V59.04H96V55.68Z" fill="#454267"/>
<path d="M15.36 59.04H12V62.4H15.36V59.04Z" fill="#454267"/>
<path d="M18.72 59.04H15.36V62.4H18.72V59.04Z" fill="#454267"/>
<path d="M22.08 59.04H18.72V62.4H22.08V59.04Z" fill="#454267"/>
<path d="M25.44 59.04H22.08V62.4H25.44V59.04Z" fill="#454267"/>
<path d="M32.16 59.04H28.8V62.4H32.16V59.04Z" fill="#454267"/>
<path d="M35.52 59.04H32.16V62.4H35.52V59.04Z" fill="#454267"/>
<path d="M38.88 59.04H35.52V62.4H38.88V59.04Z" fill="#454267"/>
<path d="M42.24 59.04H38.88V62.4H42.24V59.04Z" fill="#454267"/>
<path d="M45.6 59.04H42.24V62.4H45.6V59.04Z" fill="#454267"/>
<path d="M48.96 59.04H45.6V62.4H48.96V59.04Z" fill="#454267"/>
<path d="M52.32 59.04H48.96V62.4H52.32V59.04Z" fill="#454267"/>
<path d="M55.68 59.04H52.32V62.4H55.68V59.04Z" fill="#454267"/>
<path d="M62.4 59.04H59.04V62.4H62.4L62.4 59.04Z" fill="#454267"/>
<path d="M65.76 59.04H62.4L62.4 62.4H65.76V59.04Z" fill="#454267"/>
<path d="M75.84 59.04H72.48V62.4H75.84V59.04Z" fill="#454267"/>
<path d="M15.36 62.4H12V65.76H15.36V62.4Z" fill="#454267"/>
<path d="M18.72 62.4H15.36V65.76H18.72V62.4Z" fill="#454267"/>
<path d="M25.44 62.4H22.08V65.76H25.44V62.4Z" fill="#454267"/>
<path d="M28.8 62.4H25.44V65.76H28.8V62.4Z" fill="#454267"/>
<path d="M45.6 62.4H42.24V65.76H45.6V62.4Z" fill="#454267"/>
<path d="M48.96 62.4H45.6V65.76H48.96V62.4Z" fill="#454267"/>
<path d="M52.32 62.4H48.96V65.76H52.32V62.4Z" fill="#454267"/>
<path d="M59.04 62.4H55.68V65.76H59.04V62.4Z" fill="#454267"/>
<path d="M62.4 62.4H59.04V65.76H62.4V62.4Z" fill="#454267"/>
<path d="M65.76 62.4H62.4V65.76H65.76V62.4Z" fill="#454267"/>
<path d="M69.12 62.4L65.76 62.4V65.76H69.12V62.4Z" fill="#454267"/>
<path d="M79.2 62.4L75.84 62.4V65.76H79.2V62.4Z" fill="#454267"/>
<path d="M82.56 62.4H79.2V65.76H82.56V62.4Z" fill="#454267"/>
<path d="M96 62.4H92.64V65.76H96V62.4Z" fill="#454267"/>
<path d="M25.44 65.76H22.08V69.12H25.44V65.76Z" fill="#454267"/>
<path d="M35.52 65.76H32.16V69.12H35.52V65.76Z" fill="#454267"/>
<path d="M38.88 65.76H35.52V69.12H38.88V65.76Z" fill="#454267"/>
<path d="M42.24 65.76H38.88V69.12H42.24V65.76Z" fill="#454267"/>
<path d="M48.96 65.76H45.6V69.12H48.96V65.76Z" fill="#454267"/>
<path d="M55.68 65.76H52.32V69.12H55.68V65.76Z" fill="#454267"/>
<path d="M59.04 65.76H55.68V69.12H59.04V65.76Z" fill="#454267"/>
<path d="M65.76 65.76H62.4L62.4 69.12H65.76V65.76Z" fill="#454267"/>
<path d="M69.12 65.76H65.76V69.12H69.12V65.76Z" fill="#454267"/>
<path d="M72.48 65.76H69.12V69.12H72.48V65.76Z" fill="#454267"/>
<path d="M75.84 65.76H72.48V69.12H75.84V65.76Z" fill="#454267"/>
<path d="M79.2 65.76H75.84V69.12H79.2V65.76Z" fill="#454267"/>
<path d="M82.56 65.76H79.2V69.12H82.56V65.76Z" fill="#454267"/>
<path d="M89.28 65.76H85.92V69.12H89.28V65.76Z" fill="#454267"/>
<path d="M96 65.76H92.64V69.12H96V65.76Z" fill="#454267"/>
<path d="M42.24 69.12H38.88V72.48H42.24V69.12Z" fill="#454267"/>
<path d="M45.6 69.12H42.24V72.48H45.6V69.12Z" fill="#454267"/>
<path d="M62.4 69.12H59.04V72.48H62.4L62.4 69.12Z" fill="#454267"/>
<path d="M65.76 69.12H62.4L62.4 72.48H65.76V69.12Z" fill="#454267"/>
<path d="M69.12 69.12H65.76V72.48H69.12V69.12Z" fill="#454267"/>
<path d="M82.56 69.12H79.2V72.48H82.56V69.12Z" fill="#454267"/>
<path d="M85.92 69.12H82.56V72.48H85.92V69.12Z" fill="#454267"/>
<path d="M92.64 69.12H89.28V72.48H92.64V69.12Z" fill="#454267"/>
<path d="M15.36 72.48H12V75.84H15.36V72.48Z" fill="#454267"/>
<path d="M18.72 72.48H15.36V75.84H18.72V72.48Z" fill="#454267"/>
<path d="M22.08 72.48H18.72V75.84H22.08V72.48Z" fill="#454267"/>
<path d="M25.44 72.48H22.08V75.84H25.44V72.48Z" fill="#454267"/>
<path d="M28.8 72.48H25.44V75.84H28.8V72.48Z" fill="#454267"/>
<path d="M32.16 72.48H28.8V75.84H32.16V72.48Z" fill="#454267"/>
<path d="M35.52 72.48H32.16V75.84H35.52V72.48Z" fill="#454267"/>
<path d="M48.96 72.48H45.6V75.84H48.96V72.48Z" fill="#454267"/>
<path d="M52.32 72.48H48.96V75.84H52.32V72.48Z" fill="#454267"/>
<path d="M55.68 72.48H52.32V75.84H55.68V72.48Z" fill="#454267"/>
<path d="M65.76 72.48H62.4L62.4 75.84H65.76V72.48Z" fill="#454267"/>
<path d="M69.12 72.48H65.76V75.84H69.12V72.48Z" fill="#454267"/>
<path d="M75.84 72.48H72.48V75.84H75.84V72.48Z" fill="#454267"/>
<path d="M82.56 72.48H79.2V75.84H82.56V72.48Z" fill="#454267"/>
<path d="M85.92 72.48H82.56V75.84H85.92V72.48Z" fill="#454267"/>
<path d="M92.64 72.48H89.28V75.84H92.64V72.48Z" fill="#454267"/>
<path d="M96 72.48H92.64V75.84H96V72.48Z" fill="#454267"/>
<path d="M15.36 75.84H12V79.2H15.36V75.84Z" fill="#454267"/>
<path d="M35.52 75.84H32.16L32.16 79.2H35.52V75.84Z" fill="#454267"/>
<path d="M45.6 75.84H42.24V79.2H45.6V75.84Z" fill="#454267"/>
<path d="M52.32 75.84H48.96V79.2H52.32V75.84Z" fill="#454267"/>
<path d="M55.68 75.84H52.32V79.2H55.68V75.84Z" fill="#454267"/>
<path d="M62.4 75.84H59.04V79.2H62.4L62.4 75.84Z" fill="#454267"/>
<path d="M65.76 75.84H62.4L62.4 79.2H65.76V75.84Z" fill="#454267"/>
<path d="M69.12 75.84H65.76V79.2H69.12V75.84Z" fill="#454267"/>
<path d="M82.56 75.84H79.2V79.2H82.56V75.84Z" fill="#454267"/>
<path d="M89.28 75.84H85.92V79.2H89.28V75.84Z" fill="#454267"/>
<path d="M92.64 75.84H89.28V79.2H92.64V75.84Z" fill="#454267"/>
<path d="M15.36 79.2H12V82.56H15.36V79.2Z" fill="#454267"/>
<path d="M22.08 79.2H18.72V82.56H22.08V79.2Z" fill="#454267"/>
<path d="M25.44 79.2H22.08V82.56H25.44V79.2Z" fill="#454267"/>
<path d="M28.8 79.2H25.44V82.56H28.8V79.2Z" fill="#454267"/>
<path d="M35.52 79.2H32.16V82.56H35.52V79.2Z" fill="#454267"/>
<path d="M42.24 79.2H38.88V82.56H42.24V79.2Z" fill="#454267"/>
<path d="M45.6 79.2H42.24V82.56H45.6V79.2Z" fill="#454267"/>
<path d="M48.96 79.2H45.6V82.56H48.96V79.2Z" fill="#454267"/>
<path d="M52.32 79.2H48.96V82.56H52.32V79.2Z" fill="#454267"/>
<path d="M59.04 79.2H55.68V82.56H59.04V79.2Z" fill="#454267"/>
<path d="M62.4 79.2H59.04V82.56H62.4V79.2Z" fill="#454267"/>
<path d="M65.76 79.2H62.4V82.56H65.76V79.2Z" fill="#454267"/>
<path d="M69.12 79.2H65.76V82.56H69.12V79.2Z" fill="#454267"/>
<path d="M72.48 79.2H69.12V82.56H72.48V79.2Z" fill="#454267"/>
<path d="M75.84 79.2H72.48V82.56H75.84V79.2Z" fill="#454267"/>
<path d="M79.2 79.2H75.84V82.56H79.2V79.2Z" fill="#454267"/>
<path d="M82.56 79.2H79.2V82.56H82.56V79.2Z" fill="#454267"/>
<path d="M89.28 79.2H85.92V82.56H89.28V79.2Z" fill="#454267"/>
<path d="M92.64 79.2H89.28V82.56H92.64V79.2Z" fill="#454267"/>
<path d="M15.36 82.56H12V85.92H15.36V82.56Z" fill="#454267"/>
<path d="M22.08 82.56H18.72V85.92H22.08V82.56Z" fill="#454267"/>
<path d="M25.44 82.56H22.08V85.92H25.44V82.56Z" fill="#454267"/>
<path d="M28.8 82.56H25.44V85.92H28.8V82.56Z" fill="#454267"/>
<path d="M35.52 82.56H32.16V85.92H35.52V82.56Z" fill="#454267"/>
<path d="M45.6 82.56H42.24V85.92H45.6V82.56Z" fill="#454267"/>
<path d="M48.96 82.56H45.6V85.92H48.96V82.56Z" fill="#454267"/>
<path d="M52.32 82.56H48.96V85.92H52.32V82.56Z" fill="#454267"/>
<path d="M62.4 82.56H59.04V85.92H62.4V82.56Z" fill="#454267"/>
<path d="M75.84 82.56H72.48V85.92H75.84V82.56Z" fill="#454267"/>
<path d="M82.56 82.56H79.2V85.92H82.56V82.56Z" fill="#454267"/>
<path d="M85.92 82.56H82.56V85.92H85.92V82.56Z" fill="#454267"/>
<path d="M96 82.56H92.64V85.92H96V82.56Z" fill="#454267"/>
<path d="M15.36 85.92H12V89.28H15.36V85.92Z" fill="#454267"/>
<path d="M22.08 85.92H18.72V89.28H22.08V85.92Z" fill="#454267"/>
<path d="M25.44 85.92H22.08V89.28H25.44V85.92Z" fill="#454267"/>
<path d="M28.8 85.92H25.44V89.28H28.8V85.92Z" fill="#454267"/>
<path d="M35.52 85.92H32.16V89.28H35.52V85.92Z" fill="#454267"/>
<path d="M42.24 85.92H38.88V89.28H42.24V85.92Z" fill="#454267"/>
<path d="M45.6 85.92H42.24V89.28H45.6V85.92Z" fill="#454267"/>
<path d="M52.32 85.92H48.96V89.28H52.32V85.92Z" fill="#454267"/>
<path d="M62.4 85.92H59.04V89.28H62.4V85.92Z" fill="#454267"/>
<path d="M65.76 85.92H62.4V89.28H65.76V85.92Z" fill="#454267"/>
<path d="M69.12 85.92H65.76V89.28H69.12V85.92Z" fill="#454267"/>
<path d="M89.28 85.92H85.92V89.28H89.28V85.92Z" fill="#454267"/>
<path d="M92.64 85.92H89.28V89.28H92.64V85.92Z" fill="#454267"/>
<path d="M15.36 89.28H12V92.64H15.36V89.28Z" fill="#454267"/>
<path d="M35.52 89.28H32.16V92.64H35.52V89.28Z" fill="#454267"/>
<path d="M42.24 89.28H38.88V92.64H42.24V89.28Z" fill="#454267"/>
<path d="M45.6 89.28H42.24V92.64H45.6V89.28Z" fill="#454267"/>
<path d="M52.32 89.28H48.96V92.64H52.32V89.28Z" fill="#454267"/>
<path d="M59.04 89.28H55.68V92.64H59.04V89.28Z" fill="#454267"/>
<path d="M62.4 89.28H59.04V92.64H62.4V89.28Z" fill="#454267"/>
<path d="M69.12 89.28H65.76V92.64H69.12V89.28Z" fill="#454267"/>
<path d="M72.48 89.28H69.12V92.64H72.48V89.28Z" fill="#454267"/>
<path d="M85.92 89.28H82.56V92.64H85.92V89.28Z" fill="#454267"/>
<path d="M89.28 89.28H85.92V92.64H89.28V89.28Z" fill="#454267"/>
<path d="M92.64 89.28H89.28V92.64H92.64V89.28Z" fill="#454267"/>
<path d="M15.36 92.64H12V96H15.36V92.64Z" fill="#454267"/>
<path d="M18.72 92.64H15.36V96H18.72V92.64Z" fill="#454267"/>
<path d="M22.08 92.64H18.72V96H22.08V92.64Z" fill="#454267"/>
<path d="M25.44 92.64H22.08V96H25.44V92.64Z" fill="#454267"/>
<path d="M28.8 92.64H25.44V96H28.8V92.64Z" fill="#454267"/>
<path d="M32.16 92.64H28.8V96H32.16L32.16 92.64Z" fill="#454267"/>
<path d="M35.52 92.64H32.16L32.16 96H35.52V92.64Z" fill="#454267"/>
<path d="M42.24 92.64H38.88V96H42.24V92.64Z" fill="#454267"/>
<path d="M48.96 92.64H45.6V96H48.96V92.64Z" fill="#454267"/>
<path d="M52.32 92.64H48.96V96H52.32V92.64Z" fill="#454267"/>
<path d="M55.68 92.64H52.32V96H55.68V92.64Z" fill="#454267"/>
<path d="M62.4 92.64H59.04V96H62.4V92.64Z" fill="#454267"/>
<path d="M65.76 92.64H62.4V96H65.76V92.64Z" fill="#454267"/>
<path d="M75.84 92.64H72.48V96H75.84V92.64Z" fill="#454267"/>
<path d="M79.2 92.64H75.84V96H79.2V92.64Z" fill="#454267"/>
<path d="M82.56 92.64H79.2V96H82.56V92.64Z" fill="#454267"/>
<path d="M85.92 92.64H82.56V96H85.92V92.64Z" fill="#454267"/>
<path d="M89.28 92.64H85.92V96H89.28V92.64Z" fill="#454267"/>
<path d="M92.64 92.64H89.28V96H92.64V92.64Z" fill="#454267"/>
<path d="M96 92.64H92.64V96H96V92.64Z" fill="#454267"/>
<rect x="3" y="3" width="102" height="102" rx="7" stroke="url(#paint0_radial_6_618)" stroke-width="6"/>
<defs>
<radialGradient id="paint0_radial_6_618" cx="0" cy="0" r="1" gradientUnits="userSpaceOnUse" gradientTransform="translate(102 102) rotate(-135) scale(135.765 1425.05)">
<stop stop-color="#F292FF"/>
<stop offset="0.53125" stop-color="#7651F2"/>
<stop offset="1" stop-color="#00D1D1"/>
</radialGradient>
</defs>
</svg>
