<svg width="84" height="84" viewBox="0 0 84 84" fill="none" xmlns="http://www.w3.org/2000/svg">
<path d="M3.36 0H0V3.36H3.36V0Z" fill="#454267"/>
<path d="M6.72 0H3.36V3.36H6.72V0Z" fill="#454267"/>
<path d="M10.08 0H6.72V3.36H10.08V0Z" fill="#454267"/>
<path d="M13.44 0H10.08V3.36H13.44V0Z" fill="#454267"/>
<path d="M16.8 0H13.44V3.36H16.8V0Z" fill="#454267"/>
<path d="M20.16 0H16.8V3.36H20.16V0Z" fill="#454267"/>
<path d="M23.52 0H20.16V3.36H23.52V0Z" fill="#454267"/>
<path d="M30.24 0H26.88V3.36H30.24V0Z" fill="#454267"/>
<path d="M33.6 0H30.24V3.36H33.6V0Z" fill="#454267"/>
<path d="M36.96 0H33.6V3.36H36.96V0Z" fill="#454267"/>
<path d="M43.68 0H40.32V3.36H43.68V0Z" fill="#454267"/>
<path d="M47.04 0H43.68V3.36H47.04V0Z" fill="#454267"/>
<path d="M50.4 0H47.04V3.36H50.4V0Z" fill="#454267"/>
<path d="M53.76 0H50.4V3.36H53.76V0Z" fill="#454267"/>
<path d="M57.12 0H53.76V3.36H57.12V0Z" fill="#454267"/>
<path d="M63.84 0H60.48V3.36H63.84V0Z" fill="#454267"/>
<path d="M67.2 0H63.84V3.36H67.2V0Z" fill="#454267"/>
<path d="M70.56 0H67.2V3.36H70.56V0Z" fill="#454267"/>
<path d="M73.92 0H70.56V3.36H73.92V0Z" fill="#454267"/>
<path d="M77.28 0H73.92V3.36H77.28V0Z" fill="#454267"/>
<path d="M80.64 0H77.28V3.36H80.64V0Z" fill="#454267"/>
<path d="M84 0H80.64V3.36H84V0Z" fill="#454267"/>
<path d="M3.36 3.36H0V6.72H3.36V3.36Z" fill="#454267"/>
<path d="M23.52 3.36H20.16L20.16 6.72H23.52V3.36Z" fill="#454267"/>
<path d="M40.32 3.36H36.96V6.72H40.32V3.36Z" fill="#454267"/>
<path d="M43.68 3.36H40.32V6.72H43.68V3.36Z" fill="#454267"/>
<path d="M47.04 3.36H43.68V6.72H47.04V3.36Z" fill="#454267"/>
<path d="M50.4 3.36H47.04V6.72H50.4V3.36Z" fill="#454267"/>
<path d="M63.84 3.36H60.48V6.72H63.84V3.36Z" fill="#454267"/>
<path d="M84 3.36H80.64V6.72H84V3.36Z" fill="#454267"/>
<path d="M3.36 6.72H0V10.08H3.36V6.72Z" fill="#454267"/>
<path d="M10.08 6.72H6.72V10.08H10.08V6.72Z" fill="#454267"/>
<path d="M13.44 6.72H10.08V10.08H13.44V6.72Z" fill="#454267"/>
<path d="M16.8 6.72H13.44V10.08H16.8V6.72Z" fill="#454267"/>
<path d="M23.52 6.72H20.16V10.08H23.52V6.72Z" fill="#454267"/>
<path d="M33.6 6.72H30.24V10.08H33.6V6.72Z" fill="#454267"/>
<path d="M36.96 6.72H33.6V10.08H36.96V6.72Z" fill="#454267"/>
<path d="M43.68 6.72H40.32V10.08H43.68V6.72Z" fill="#454267"/>
<path d="M53.76 6.72H50.4L50.4 10.08H53.76V6.72Z" fill="#454267"/>
<path d="M63.84 6.72H60.48V10.08H63.84V6.72Z" fill="#454267"/>
<path d="M70.56 6.72H67.2V10.08H70.56V6.72Z" fill="#454267"/>
<path d="M73.92 6.72H70.56V10.08H73.92V6.72Z" fill="#454267"/>
<path d="M77.28 6.72H73.92V10.08H77.28V6.72Z" fill="#454267"/>
<path d="M84 6.72H80.64V10.08H84V6.72Z" fill="#454267"/>
<path d="M3.36 10.08H0V13.44H3.36V10.08Z" fill="#454267"/>
<path d="M10.08 10.08H6.72V13.44H10.08V10.08Z" fill="#454267"/>
<path d="M13.44 10.08H10.08V13.44H13.44V10.08Z" fill="#454267"/>
<path d="M16.8 10.08H13.44V13.44H16.8V10.08Z" fill="#454267"/>
<path d="M23.52 10.08H20.16V13.44H23.52V10.08Z" fill="#454267"/>
<path d="M30.24 10.08H26.88V13.44H30.24V10.08Z" fill="#454267"/>
<path d="M36.96 10.08H33.6V13.44H36.96V10.08Z" fill="#454267"/>
<path d="M40.32 10.08H36.96V13.44H40.32V10.08Z" fill="#454267"/>
<path d="M43.68 10.08H40.32V13.44H43.68V10.08Z" fill="#454267"/>
<path d="M47.04 10.08H43.68V13.44H47.04V10.08Z" fill="#454267"/>
<path d="M50.4 10.08H47.04V13.44H50.4L50.4 10.08Z" fill="#454267"/>
<path d="M53.76 10.08H50.4L50.4 13.44H53.76V10.08Z" fill="#454267"/>
<path d="M57.12 10.08H53.76V13.44H57.12V10.08Z" fill="#454267"/>
<path d="M63.84 10.08H60.48V13.44H63.84V10.08Z" fill="#454267"/>
<path d="M70.56 10.08H67.2V13.44H70.56V10.08Z" fill="#454267"/>
<path d="M73.92 10.08H70.56V13.44H73.92V10.08Z" fill="#454267"/>
<path d="M77.28 10.08H73.92V13.44H77.28V10.08Z" fill="#454267"/>
<path d="M84 10.08H80.64V13.44H84V10.08Z" fill="#454267"/>
<path d="M3.36 13.44H0V16.8H3.36V13.44Z" fill="#454267"/>
<path d="M10.08 13.44H6.72V16.8H10.08V13.44Z" fill="#454267"/>
<path d="M13.44 13.44H10.08V16.8H13.44V13.44Z" fill="#454267"/>
<path d="M16.8 13.44H13.44V16.8H16.8V13.44Z" fill="#454267"/>
<path d="M23.52 13.44H20.16V16.8H23.52V13.44Z" fill="#454267"/>
<path d="M30.24 13.44H26.88V16.8H30.24V13.44Z" fill="#454267"/>
<path d="M33.6 13.44H30.24V16.8H33.6V13.44Z" fill="#454267"/>
<path d="M36.96 13.44H33.6V16.8H36.96V13.44Z" fill="#454267"/>
<path d="M40.32 13.44H36.96V16.8H40.32V13.44Z" fill="#454267"/>
<path d="M47.04 13.44H43.68V16.8H47.04V13.44Z" fill="#454267"/>
<path d="M50.4 13.44H47.04V16.8H50.4V13.44Z" fill="#454267"/>
<path d="M53.76 13.44H50.4V16.8H53.76V13.44Z" fill="#454267"/>
<path d="M63.84 13.44H60.48V16.8H63.84V13.44Z" fill="#454267"/>
<path d="M70.56 13.44H67.2V16.8H70.56V13.44Z" fill="#454267"/>
<path d="M73.92 13.44H70.56V16.8H73.92V13.44Z" fill="#454267"/>
<path d="M77.28 13.44H73.92V16.8H77.28V13.44Z" fill="#454267"/>
<path d="M84 13.44H80.64V16.8H84V13.44Z" fill="#454267"/>
<path d="M3.36 16.8H0V20.16H3.36V16.8Z" fill="#454267"/>
<path d="M23.52 16.8H20.16V20.16H23.52V16.8Z" fill="#454267"/>
<path d="M30.24 16.8H26.88V20.16H30.24V16.8Z" fill="#454267"/>
<path d="M33.6 16.8H30.24V20.16H33.6V16.8Z" fill="#454267"/>
<path d="M53.76 16.8H50.4L50.4 20.16H53.76V16.8Z" fill="#454267"/>
<path d="M57.12 16.8H53.76V20.16H57.12V16.8Z" fill="#454267"/>
<path d="M63.84 16.8H60.48V20.16H63.84V16.8Z" fill="#454267"/>
<path d="M84 16.8H80.64V20.16H84V16.8Z" fill="#454267"/>
<path d="M3.36 20.16H0V23.52H3.36V20.16Z" fill="#454267"/>
<path d="M6.72 20.16L3.36 20.16V23.52H6.72V20.16Z" fill="#454267"/>
<path d="M10.08 20.16H6.72V23.52H10.08V20.16Z" fill="#454267"/>
<path d="M13.44 20.16H10.08V23.52H13.44V20.16Z" fill="#454267"/>
<path d="M16.8 20.16H13.44V23.52H16.8V20.16Z" fill="#454267"/>
<path d="M20.16 20.16L16.8 20.16V23.52H20.16L20.16 20.16Z" fill="#454267"/>
<path d="M23.52 20.16H20.16L20.16 23.52H23.52V20.16Z" fill="#454267"/>
<path d="M30.24 20.16H26.88V23.52H30.24V20.16Z" fill="#454267"/>
<path d="M36.96 20.16L33.6 20.16V23.52H36.96V20.16Z" fill="#454267"/>
<path d="M43.68 20.16H40.32V23.52H43.68V20.16Z" fill="#454267"/>
<path d="M50.4 20.16L47.04 20.16V23.52H50.4L50.4 20.16Z" fill="#454267"/>
<path d="M57.12 20.16H53.76V23.52H57.12V20.16Z" fill="#454267"/>
<path d="M63.84 20.16H60.48V23.52H63.84V20.16Z" fill="#454267"/>
<path d="M67.2 20.16L63.84 20.16V23.52H67.2V20.16Z" fill="#454267"/>
<path d="M70.56 20.16H67.2V23.52H70.56V20.16Z" fill="#454267"/>
<path d="M73.92 20.16H70.56V23.52H73.92V20.16Z" fill="#454267"/>
<path d="M77.28 20.16H73.92V23.52H77.28V20.16Z" fill="#454267"/>
<path d="M80.64 20.16L77.28 20.16V23.52H80.64V20.16Z" fill="#454267"/>
<path d="M84 20.16H80.64V23.52H84V20.16Z" fill="#454267"/>
<path d="M30.24 23.52H26.88V26.88H30.24V23.52Z" fill="#454267"/>
<path d="M33.6 23.52H30.24V26.88H33.6V23.52Z" fill="#454267"/>
<path d="M36.96 23.52H33.6V26.88H36.96V23.52Z" fill="#454267"/>
<path d="M43.68 23.52H40.32V26.88H43.68V23.52Z" fill="#454267"/>
<path d="M47.04 23.52H43.68V26.88H47.04V23.52Z" fill="#454267"/>
<path d="M53.76 23.52H50.4L50.4 26.88H53.76V23.52Z" fill="#454267"/>
<path d="M3.36 26.88H0V30.24H3.36V26.88Z" fill="#454267"/>
<path d="M6.72 26.88H3.36V30.24H6.72V26.88Z" fill="#454267"/>
<path d="M10.08 26.88H6.72V30.24H10.08V26.88Z" fill="#454267"/>
<path d="M16.8 26.88H13.44V30.24H16.8V26.88Z" fill="#454267"/>
<path d="M23.52 26.88H20.16V30.24H23.52V26.88Z" fill="#454267"/>
<path d="M30.24 26.88H26.88V30.24H30.24V26.88Z" fill="#454267"/>
<path d="M36.96 26.88H33.6V30.24H36.96V26.88Z" fill="#454267"/>
<path d="M40.32 26.88H36.96V30.24H40.32V26.88Z" fill="#454267"/>
<path d="M53.76 26.88H50.4V30.24H53.76V26.88Z" fill="#454267"/>
<path d="M57.12 26.88H53.76V30.24H57.12V26.88Z" fill="#454267"/>
<path d="M60.48 26.88H57.12V30.24H60.48V26.88Z" fill="#454267"/>
<path d="M63.84 26.88H60.48V30.24H63.84V26.88Z" fill="#454267"/>
<path d="M67.2 26.88H63.84V30.24H67.2V26.88Z" fill="#454267"/>
<path d="M70.56 26.88H67.2V30.24H70.56V26.88Z" fill="#454267"/>
<path d="M73.92 26.88H70.56V30.24H73.92V26.88Z" fill="#454267"/>
<path d="M84 26.88H80.64V30.24H84V26.88Z" fill="#454267"/>
<path d="M10.08 30.24H6.72V33.6H10.08V30.24Z" fill="#454267"/>
<path d="M26.88 30.24H23.52V33.6H26.88V30.24Z" fill="#454267"/>
<path d="M30.24 30.24H26.88V33.6H30.24V30.24Z" fill="#454267"/>
<path d="M33.6 30.24H30.24V33.6H33.6V30.24Z" fill="#454267"/>
<path d="M36.96 30.24H33.6V33.6H36.96V30.24Z" fill="#454267"/>
<path d="M43.68 30.24H40.32V33.6H43.68V30.24Z" fill="#454267"/>
<path d="M47.04 30.24H43.68V33.6H47.04V30.24Z" fill="#454267"/>
<path d="M57.12 30.24H53.76V33.6H57.12V30.24Z" fill="#454267"/>
<path d="M63.84 30.24H60.48V33.6H63.84V30.24Z" fill="#454267"/>
<path d="M73.92 30.24H70.56V33.6H73.92V30.24Z" fill="#454267"/>
<path d="M77.28 30.24H73.92V33.6H77.28V30.24Z" fill="#454267"/>
<path d="M80.64 30.24H77.28V33.6H80.64V30.24Z" fill="#454267"/>
<path d="M84 30.24H80.64V33.6H84V30.24Z" fill="#454267"/>
<path d="M6.72 33.6H3.36V36.96H6.72V33.6Z" fill="#454267"/>
<path d="M13.44 33.6H10.08V36.96H13.44V33.6Z" fill="#454267"/>
<path d="M23.52 33.6H20.16V36.96H23.52V33.6Z" fill="#454267"/>
<path d="M40.32 33.6H36.96V36.96H40.32V33.6Z" fill="#454267"/>
<path d="M43.68 33.6H40.32V36.96H43.68V33.6Z" fill="#454267"/>
<path d="M47.04 33.6H43.68V36.96H47.04V33.6Z" fill="#454267"/>
<path d="M50.4 33.6H47.04V36.96H50.4V33.6Z" fill="#454267"/>
<path d="M57.12 33.6H53.76V36.96H57.12V33.6Z" fill="#454267"/>
<path d="M63.84 33.6H60.48V36.96H63.84V33.6Z" fill="#454267"/>
<path d="M70.56 33.6H67.2V36.96H70.56V33.6Z" fill="#454267"/>
<path d="M80.64 33.6H77.28V36.96H80.64V33.6Z" fill="#454267"/>
<path d="M84 33.6H80.64V36.96H84V33.6Z" fill="#454267"/>
<path d="M3.36 36.96H0V40.32H3.36V36.96Z" fill="#454267"/>
<path d="M6.72 36.96H3.36V40.32H6.72V36.96Z" fill="#454267"/>
<path d="M13.44 36.96H10.08V40.32H13.44V36.96Z" fill="#454267"/>
<path d="M16.8 36.96H13.44V40.32H16.8V36.96Z" fill="#454267"/>
<path d="M36.96 36.96H33.6V40.32H36.96V36.96Z" fill="#454267"/>
<path d="M43.68 36.96H40.32V40.32H43.68V36.96Z" fill="#454267"/>
<path d="M57.12 36.96H53.76V40.32H57.12V36.96Z" fill="#454267"/>
<path d="M60.48 36.96H57.12V40.32H60.48V36.96Z" fill="#454267"/>
<path d="M67.2 36.96H63.84V40.32H67.2V36.96Z" fill="#454267"/>
<path d="M70.56 36.96H67.2V40.32H70.56V36.96Z" fill="#454267"/>
<path d="M77.28 36.96H73.92V40.32H77.28V36.96Z" fill="#454267"/>
<path d="M80.64 36.96H77.28V40.32H80.64V36.96Z" fill="#454267"/>
<path d="M84 36.96H80.64V40.32H84V36.96Z" fill="#454267"/>
<path d="M13.44 40.32H10.08V43.68H13.44V40.32Z" fill="#454267"/>
<path d="M16.8 40.32H13.44V43.68H16.8V40.32Z" fill="#454267"/>
<path d="M20.16 40.32H16.8V43.68H20.16V40.32Z" fill="#454267"/>
<path d="M23.52 40.32H20.16V43.68H23.52V40.32Z" fill="#454267"/>
<path d="M33.6 40.32H30.24V43.68H33.6V40.32Z" fill="#454267"/>
<path d="M47.04 40.32H43.68V43.68H47.04V40.32Z" fill="#454267"/>
<path d="M53.76 40.32H50.4V43.68H53.76V40.32Z" fill="#454267"/>
<path d="M57.12 40.32H53.76V43.68H57.12V40.32Z" fill="#454267"/>
<path d="M63.84 40.32H60.48V43.68H63.84V40.32Z" fill="#454267"/>
<path d="M73.92 40.32H70.56V43.68H73.92V40.32Z" fill="#454267"/>
<path d="M80.64 40.32H77.28V43.68H80.64V40.32Z" fill="#454267"/>
<path d="M84 40.32H80.64V43.68H84V40.32Z" fill="#454267"/>
<path d="M3.36 43.68H0V47.04H3.36V43.68Z" fill="#454267"/>
<path d="M6.72 43.68H3.36V47.04H6.72V43.68Z" fill="#454267"/>
<path d="M10.08 43.68H6.72V47.04H10.08V43.68Z" fill="#454267"/>
<path d="M16.8 43.68H13.44V47.04H16.8V43.68Z" fill="#454267"/>
<path d="M20.16 43.68H16.8V47.04H20.16V43.68Z" fill="#454267"/>
<path d="M30.24 43.68H26.88V47.04H30.24V43.68Z" fill="#454267"/>
<path d="M43.68 43.68H40.32V47.04H43.68V43.68Z" fill="#454267"/>
<path d="M53.76 43.68H50.4V47.04H53.76V43.68Z" fill="#454267"/>
<path d="M63.84 43.68H60.48V47.04H63.84V43.68Z" fill="#454267"/>
<path d="M67.2 43.68H63.84V47.04H67.2V43.68Z" fill="#454267"/>
<path d="M70.56 43.68H67.2V47.04H70.56V43.68Z" fill="#454267"/>
<path d="M73.92 43.68H70.56V47.04H73.92V43.68Z" fill="#454267"/>
<path d="M77.28 43.68H73.92V47.04H77.28V43.68Z" fill="#454267"/>
<path d="M80.64 43.68H77.28V47.04H80.64V43.68Z" fill="#454267"/>
<path d="M84 43.68H80.64V47.04H84V43.68Z" fill="#454267"/>
<path d="M3.36 47.04H0V50.4H3.36V47.04Z" fill="#454267"/>
<path d="M6.72 47.04H3.36V50.4H6.72V47.04Z" fill="#454267"/>
<path d="M10.08 47.04H6.72V50.4H10.08V47.04Z" fill="#454267"/>
<path d="M13.44 47.04H10.08V50.4H13.44V47.04Z" fill="#454267"/>
<path d="M20.16 47.04H16.8V50.4H20.16V47.04Z" fill="#454267"/>
<path d="M23.52 47.04H20.16V50.4H23.52V47.04Z" fill="#454267"/>
<path d="M26.88 47.04H23.52V50.4H26.88V47.04Z" fill="#454267"/>
<path d="M30.24 47.04H26.88V50.4H30.24V47.04Z" fill="#454267"/>
<path d="M33.6 47.04H30.24V50.4H33.6V47.04Z" fill="#454267"/>
<path d="M36.96 47.04H33.6V50.4H36.96V47.04Z" fill="#454267"/>
<path d="M40.32 47.04H36.96V50.4H40.32V47.04Z" fill="#454267"/>
<path d="M43.68 47.04H40.32V50.4H43.68V47.04Z" fill="#454267"/>
<path d="M50.4 47.04H47.04V50.4H50.4L50.4 47.04Z" fill="#454267"/>
<path d="M53.76 47.04H50.4L50.4 50.4H53.76V47.04Z" fill="#454267"/>
<path d="M63.84 47.04H60.48V50.4H63.84V47.04Z" fill="#454267"/>
<path d="M3.36 50.4H0V53.76H3.36V50.4Z" fill="#454267"/>
<path d="M6.72 50.4H3.36V53.76H6.72V50.4Z" fill="#454267"/>
<path d="M13.44 50.4H10.08V53.76H13.44V50.4Z" fill="#454267"/>
<path d="M16.8 50.4H13.44V53.76H16.8V50.4Z" fill="#454267"/>
<path d="M33.6 50.4H30.24V53.76H33.6V50.4Z" fill="#454267"/>
<path d="M36.96 50.4H33.6V53.76H36.96V50.4Z" fill="#454267"/>
<path d="M40.32 50.4H36.96V53.76H40.32V50.4Z" fill="#454267"/>
<path d="M47.04 50.4H43.68V53.76H47.04V50.4Z" fill="#454267"/>
<path d="M50.4 50.4H47.04V53.76H50.4V50.4Z" fill="#454267"/>
<path d="M53.76 50.4H50.4V53.76H53.76V50.4Z" fill="#454267"/>
<path d="M57.12 50.4L53.76 50.4V53.76H57.12V50.4Z" fill="#454267"/>
<path d="M67.2 50.4L63.84 50.4V53.76H67.2V50.4Z" fill="#454267"/>
<path d="M70.56 50.4H67.2V53.76H70.56V50.4Z" fill="#454267"/>
<path d="M84 50.4H80.64V53.76H84V50.4Z" fill="#454267"/>
<path d="M13.44 53.76H10.08V57.12H13.44V53.76Z" fill="#454267"/>
<path d="M23.52 53.76H20.16V57.12H23.52V53.76Z" fill="#454267"/>
<path d="M26.88 53.76H23.52V57.12H26.88V53.76Z" fill="#454267"/>
<path d="M30.24 53.76H26.88V57.12H30.24V53.76Z" fill="#454267"/>
<path d="M36.96 53.76H33.6V57.12H36.96V53.76Z" fill="#454267"/>
<path d="M43.68 53.76H40.32V57.12H43.68V53.76Z" fill="#454267"/>
<path d="M47.04 53.76H43.68V57.12H47.04V53.76Z" fill="#454267"/>
<path d="M53.76 53.76H50.4L50.4 57.12H53.76V53.76Z" fill="#454267"/>
<path d="M57.12 53.76H53.76V57.12H57.12V53.76Z" fill="#454267"/>
<path d="M60.48 53.76H57.12V57.12H60.48V53.76Z" fill="#454267"/>
<path d="M63.84 53.76H60.48V57.12H63.84V53.76Z" fill="#454267"/>
<path d="M67.2 53.76H63.84V57.12H67.2V53.76Z" fill="#454267"/>
<path d="M70.56 53.76H67.2V57.12H70.56V53.76Z" fill="#454267"/>
<path d="M77.28 53.76H73.92V57.12H77.28V53.76Z" fill="#454267"/>
<path d="M84 53.76H80.64V57.12H84V53.76Z" fill="#454267"/>
<path d="M30.24 57.12H26.88V60.48H30.24V57.12Z" fill="#454267"/>
<path d="M33.6 57.12H30.24V60.48H33.6V57.12Z" fill="#454267"/>
<path d="M50.4 57.12H47.04V60.48H50.4L50.4 57.12Z" fill="#454267"/>
<path d="M53.76 57.12H50.4L50.4 60.48H53.76V57.12Z" fill="#454267"/>
<path d="M57.12 57.12H53.76V60.48H57.12V57.12Z" fill="#454267"/>
<path d="M70.56 57.12H67.2V60.48H70.56V57.12Z" fill="#454267"/>
<path d="M73.92 57.12H70.56V60.48H73.92V57.12Z" fill="#454267"/>
<path d="M80.64 57.12H77.28V60.48H80.64V57.12Z" fill="#454267"/>
<path d="M3.36 60.48H0V63.84H3.36V60.48Z" fill="#454267"/>
<path d="M6.72 60.48H3.36V63.84H6.72V60.48Z" fill="#454267"/>
<path d="M10.08 60.48H6.72V63.84H10.08V60.48Z" fill="#454267"/>
<path d="M13.44 60.48H10.08V63.84H13.44V60.48Z" fill="#454267"/>
<path d="M16.8 60.48H13.44V63.84H16.8V60.48Z" fill="#454267"/>
<path d="M20.16 60.48H16.8V63.84H20.16V60.48Z" fill="#454267"/>
<path d="M23.52 60.48H20.16V63.84H23.52V60.48Z" fill="#454267"/>
<path d="M36.96 60.48H33.6V63.84H36.96V60.48Z" fill="#454267"/>
<path d="M40.32 60.48H36.96V63.84H40.32V60.48Z" fill="#454267"/>
<path d="M43.68 60.48H40.32V63.84H43.68V60.48Z" fill="#454267"/>
<path d="M53.76 60.48H50.4L50.4 63.84H53.76V60.48Z" fill="#454267"/>
<path d="M57.12 60.48H53.76V63.84H57.12V60.48Z" fill="#454267"/>
<path d="M63.84 60.48H60.48V63.84H63.84V60.48Z" fill="#454267"/>
<path d="M70.56 60.48H67.2V63.84H70.56V60.48Z" fill="#454267"/>
<path d="M73.92 60.48H70.56V63.84H73.92V60.48Z" fill="#454267"/>
<path d="M80.64 60.48H77.28V63.84H80.64V60.48Z" fill="#454267"/>
<path d="M84 60.48H80.64V63.84H84V60.48Z" fill="#454267"/>
<path d="M3.36 63.84H0V67.2H3.36V63.84Z" fill="#454267"/>
<path d="M23.52 63.84H20.16L20.16 67.2H23.52V63.84Z" fill="#454267"/>
<path d="M33.6 63.84H30.24V67.2H33.6V63.84Z" fill="#454267"/>
<path d="M40.32 63.84H36.96V67.2H40.32V63.84Z" fill="#454267"/>
<path d="M43.68 63.84H40.32V67.2H43.68V63.84Z" fill="#454267"/>
<path d="M50.4 63.84H47.04V67.2H50.4L50.4 63.84Z" fill="#454267"/>
<path d="M53.76 63.84H50.4L50.4 67.2H53.76V63.84Z" fill="#454267"/>
<path d="M57.12 63.84H53.76V67.2H57.12V63.84Z" fill="#454267"/>
<path d="M70.56 63.84H67.2V67.2H70.56V63.84Z" fill="#454267"/>
<path d="M77.28 63.84H73.92V67.2H77.28V63.84Z" fill="#454267"/>
<path d="M80.64 63.84H77.28V67.2H80.64V63.84Z" fill="#454267"/>
<path d="M3.36 67.2H0V70.56H3.36V67.2Z" fill="#454267"/>
<path d="M10.08 67.2H6.72V70.56H10.08V67.2Z" fill="#454267"/>
<path d="M13.44 67.2H10.08V70.56H13.44V67.2Z" fill="#454267"/>
<path d="M16.8 67.2H13.44V70.56H16.8V67.2Z" fill="#454267"/>
<path d="M23.52 67.2H20.16V70.56H23.52V67.2Z" fill="#454267"/>
<path d="M30.24 67.2H26.88V70.56H30.24V67.2Z" fill="#454267"/>
<path d="M33.6 67.2H30.24V70.56H33.6V67.2Z" fill="#454267"/>
<path d="M36.96 67.2H33.6V70.56H36.96V67.2Z" fill="#454267"/>
<path d="M40.32 67.2H36.96V70.56H40.32V67.2Z" fill="#454267"/>
<path d="M47.04 67.2H43.68V70.56H47.04V67.2Z" fill="#454267"/>
<path d="M50.4 67.2H47.04V70.56H50.4V67.2Z" fill="#454267"/>
<path d="M53.76 67.2H50.4V70.56H53.76V67.2Z" fill="#454267"/>
<path d="M57.12 67.2H53.76V70.56H57.12V67.2Z" fill="#454267"/>
<path d="M60.48 67.2H57.12V70.56H60.48V67.2Z" fill="#454267"/>
<path d="M63.84 67.2H60.48V70.56H63.84V67.2Z" fill="#454267"/>
<path d="M67.2 67.2H63.84V70.56H67.2V67.2Z" fill="#454267"/>
<path d="M70.56 67.2H67.2V70.56H70.56V67.2Z" fill="#454267"/>
<path d="M77.28 67.2H73.92V70.56H77.28V67.2Z" fill="#454267"/>
<path d="M80.64 67.2H77.28V70.56H80.64V67.2Z" fill="#454267"/>
<path d="M3.36 70.56H0V73.92H3.36V70.56Z" fill="#454267"/>
<path d="M10.08 70.56H6.72V73.92H10.08V70.56Z" fill="#454267"/>
<path d="M13.44 70.56H10.08V73.92H13.44V70.56Z" fill="#454267"/>
<path d="M16.8 70.56H13.44V73.92H16.8V70.56Z" fill="#454267"/>
<path d="M23.52 70.56H20.16V73.92H23.52V70.56Z" fill="#454267"/>
<path d="M33.6 70.56H30.24V73.92H33.6V70.56Z" fill="#454267"/>
<path d="M36.96 70.56H33.6V73.92H36.96V70.56Z" fill="#454267"/>
<path d="M40.32 70.56H36.96V73.92H40.32V70.56Z" fill="#454267"/>
<path d="M50.4 70.56H47.04V73.92H50.4V70.56Z" fill="#454267"/>
<path d="M63.84 70.56H60.48V73.92H63.84V70.56Z" fill="#454267"/>
<path d="M70.56 70.56H67.2V73.92H70.56V70.56Z" fill="#454267"/>
<path d="M73.92 70.56H70.56V73.92H73.92V70.56Z" fill="#454267"/>
<path d="M84 70.56H80.64V73.92H84V70.56Z" fill="#454267"/>
<path d="M3.36 73.92H0V77.28H3.36V73.92Z" fill="#454267"/>
<path d="M10.08 73.92H6.72V77.28H10.08V73.92Z" fill="#454267"/>
<path d="M13.44 73.92H10.08V77.28H13.44V73.92Z" fill="#454267"/>
<path d="M16.8 73.92H13.44V77.28H16.8V73.92Z" fill="#454267"/>
<path d="M23.52 73.92H20.16V77.28H23.52V73.92Z" fill="#454267"/>
<path d="M30.24 73.92H26.88V77.28H30.24V73.92Z" fill="#454267"/>
<path d="M33.6 73.92H30.24V77.28H33.6V73.92Z" fill="#454267"/>
<path d="M40.32 73.92H36.96V77.28H40.32V73.92Z" fill="#454267"/>
<path d="M50.4 73.92H47.04V77.28H50.4V73.92Z" fill="#454267"/>
<path d="M53.76 73.92H50.4V77.28H53.76V73.92Z" fill="#454267"/>
<path d="M57.12 73.92H53.76V77.28H57.12V73.92Z" fill="#454267"/>
<path d="M77.28 73.92H73.92V77.28H77.28V73.92Z" fill="#454267"/>
<path d="M80.64 73.92H77.28V77.28H80.64V73.92Z" fill="#454267"/>
<path d="M3.36 77.28H0V80.64H3.36V77.28Z" fill="#454267"/>
<path d="M23.52 77.28H20.16V80.64H23.52V77.28Z" fill="#454267"/>
<path d="M30.24 77.28H26.88V80.64H30.24V77.28Z" fill="#454267"/>
<path d="M33.6 77.28H30.24V80.64H33.6V77.28Z" fill="#454267"/>
<path d="M40.32 77.28H36.96V80.64H40.32V77.28Z" fill="#454267"/>
<path d="M47.04 77.28H43.68V80.64H47.04V77.28Z" fill="#454267"/>
<path d="M50.4 77.28H47.04V80.64H50.4V77.28Z" fill="#454267"/>
<path d="M57.12 77.28H53.76V80.64H57.12V77.28Z" fill="#454267"/>
<path d="M60.48 77.28H57.12V80.64H60.48V77.28Z" fill="#454267"/>
<path d="M73.92 77.28H70.56V80.64H73.92V77.28Z" fill="#454267"/>
<path d="M77.28 77.28H73.92V80.64H77.28V77.28Z" fill="#454267"/>
<path d="M80.64 77.28H77.28V80.64H80.64V77.28Z" fill="#454267"/>
<path d="M3.36 80.64H0V84H3.36V80.64Z" fill="#454267"/>
<path d="M6.72 80.64H3.36V84H6.72V80.64Z" fill="#454267"/>
<path d="M10.08 80.64H6.72V84H10.08V80.64Z" fill="#454267"/>
<path d="M13.44 80.64H10.08V84H13.44V80.64Z" fill="#454267"/>
<path d="M16.8 80.64H13.44V84H16.8V80.64Z" fill="#454267"/>
<path d="M20.16 80.64H16.8V84H20.16L20.16 80.64Z" fill="#454267"/>
<path d="M23.52 80.64H20.16L20.16 84H23.52V80.64Z" fill="#454267"/>
<path d="M30.24 80.64H26.88V84H30.24V80.64Z" fill="#454267"/>
<path d="M36.96 80.64H33.6V84H36.96V80.64Z" fill="#454267"/>
<path d="M40.32 80.64H36.96V84H40.32V80.64Z" fill="#454267"/>
<path d="M43.68 80.64H40.32V84H43.68V80.64Z" fill="#454267"/>
<path d="M50.4 80.64H47.04V84H50.4V80.64Z" fill="#454267"/>
<path d="M53.76 80.64H50.4V84H53.76V80.64Z" fill="#454267"/>
<path d="M63.84 80.64H60.48V84H63.84V80.64Z" fill="#454267"/>
<path d="M67.2 80.64H63.84V84H67.2V80.64Z" fill="#454267"/>
<path d="M70.56 80.64H67.2V84H70.56V80.64Z" fill="#454267"/>
<path d="M73.92 80.64H70.56V84H73.92V80.64Z" fill="#454267"/>
<path d="M77.28 80.64H73.92V84H77.28V80.64Z" fill="#454267"/>
<path d="M80.64 80.64H77.28V84H80.64V80.64Z" fill="#454267"/>
<path d="M84 80.64H80.64V84H84V80.64Z" fill="#454267"/>
</svg>
