<svg width="175" height="56" viewBox="0 0 175 56" fill="none" xmlns="http://www.w3.org/2000/svg">
<rect width="174.769" height="56" rx="14" fill="black" fill-opacity="0.48"/>
<path d="M41.9261 28.082C41.8908 24.2603 45.1356 22.401 45.284 22.3144C43.4463 19.7022 40.5981 19.3453 39.5972 19.3168C37.205 19.0714 34.8845 20.7125 33.6659 20.7125C32.423 20.7125 30.5464 19.3405 28.524 19.3809C25.9214 19.42 23.4866 20.8892 22.1512 23.1706C19.3954 27.8223 21.4507 34.6582 24.091 38.4183C25.4118 40.2598 26.9551 42.3159 28.9752 42.2436C30.9514 42.1641 31.6896 41.0151 34.0745 41.0151C36.4376 41.0151 37.1308 42.2436 39.191 42.1973C41.3119 42.1641 42.6473 40.3475 43.9218 38.4894C45.4481 36.3788 46.0611 34.3001 46.0854 34.1934C46.0355 34.1768 41.9662 32.6626 41.9261 28.082Z" fill="white"/>
<path d="M38.0344 16.8433C39.0973 15.5473 39.8246 13.7841 39.6227 11.9948C38.0842 12.0612 36.1603 13.0323 35.0523 14.2999C34.0721 15.4169 33.1965 17.2477 33.4227 18.9694C35.1508 19.0951 36.9252 18.1192 38.0344 16.8433Z" fill="white"/>
<path d="M64.9359 16.4923C64.9359 17.8879 64.5066 18.9385 63.6492 19.644C62.855 20.295 61.7264 20.6211 60.2646 20.6211C59.5398 20.6211 58.9195 20.5903 58.4002 20.5286V12.903C59.0776 12.7962 59.8073 12.7417 60.5954 12.7417C61.9879 12.7417 63.0375 13.037 63.7453 13.6275C64.5382 14.295 64.9359 15.2496 64.9359 16.4923ZM63.592 16.5267C63.592 15.6219 63.3464 14.9282 62.855 14.4445C62.3637 13.9618 61.6462 13.72 60.7012 13.72C60.2999 13.72 59.9581 13.746 59.6748 13.8006V19.5978C59.8316 19.6215 60.1187 19.6322 60.5358 19.6322C61.5112 19.6322 62.264 19.3677 62.7942 18.8389C63.3245 18.31 63.592 17.5393 63.592 16.5267Z" fill="white"/>
<path d="M72.0601 17.7111C72.0601 18.5707 71.8084 19.2751 71.3049 19.8276C70.7771 20.3956 70.0778 20.679 69.2046 20.679C68.363 20.679 67.6929 20.4075 67.193 19.862C66.6944 19.3178 66.4451 18.6312 66.4451 17.8036C66.4451 16.9379 66.7017 16.2277 67.2173 15.6763C67.733 15.1249 68.4262 14.8486 69.2994 14.8486C70.141 14.8486 70.8172 15.1202 71.3292 15.6644C71.8157 16.1933 72.0601 16.8763 72.0601 17.7111ZM70.7382 17.7514C70.7382 17.2356 70.6238 16.7933 70.3964 16.4245C70.1289 15.9787 69.7482 15.7557 69.2532 15.7557C68.7412 15.7557 68.352 15.9787 68.0845 16.4245C67.8558 16.7933 67.7427 17.2427 67.7427 17.7739C67.7427 18.2897 67.8571 18.732 68.0845 19.1008C68.3605 19.5466 68.7449 19.7695 69.2411 19.7695C69.7275 19.7695 70.1094 19.5431 70.3842 19.0889C70.6202 18.713 70.7382 18.2672 70.7382 17.7514Z" fill="white"/>
<path d="M81.6145 14.9628L79.8206 20.5525H78.6531L77.91 18.1252C77.7215 17.5193 77.5683 16.9169 77.4491 16.3193H77.426C77.3153 16.9335 77.1621 17.5347 76.9651 18.1252L76.1758 20.5525H74.9949L73.3081 14.9628H74.6179L75.2661 17.6201C75.423 18.2485 75.5519 18.8473 75.6553 19.4141H75.6784C75.7732 18.9469 75.9301 18.3517 76.1515 17.6319L76.9651 14.964H78.0037L78.7832 17.575C78.9717 18.2118 79.125 18.8248 79.2429 19.4153H79.2782C79.3646 18.8402 79.4947 18.2272 79.6674 17.575L80.363 14.964H81.6145V14.9628Z" fill="white"/>
<path d="M88.2251 20.5527H86.9505V17.3511C86.9505 16.3645 86.5662 15.8713 85.7952 15.8713C85.417 15.8713 85.1117 16.0064 84.8745 16.278C84.6398 16.5495 84.5206 16.8697 84.5206 17.2361V20.5515H83.2461V16.5602C83.2461 16.0693 83.2303 15.5369 83.1999 14.9606H84.32L84.3796 15.8345H84.4148C84.5632 15.563 84.7846 15.3389 85.0752 15.1598C85.4206 14.9511 85.8073 14.8456 86.2306 14.8456C86.7657 14.8456 87.2108 15.014 87.5647 15.3519C88.005 15.7657 88.2251 16.3835 88.2251 17.2041V20.5527Z" fill="white"/>
<path d="M91.7368 20.5522H90.4635V12.3977H91.7368V20.5522Z" fill="white"/>
<path d="M99.2396 17.7111C99.2396 18.5707 98.9879 19.2751 98.4844 19.8276C97.9566 20.3956 97.2561 20.679 96.3841 20.679C95.5413 20.679 94.8711 20.4075 94.3725 19.862C93.8739 19.3178 93.6246 18.6312 93.6246 17.8036C93.6246 16.9379 93.8812 16.2277 94.3968 15.6763C94.9125 15.1249 95.6057 14.8486 96.4777 14.8486C97.3205 14.8486 97.9955 15.1202 98.5087 15.6644C98.9952 16.1933 99.2396 16.8763 99.2396 17.7111ZM97.9164 17.7514C97.9164 17.2356 97.8021 16.7933 97.5747 16.4245C97.3083 15.9787 96.9265 15.7557 96.4327 15.7557C95.9195 15.7557 95.5303 15.9787 95.264 16.4245C95.0353 16.7933 94.9222 17.2427 94.9222 17.7739C94.9222 18.2897 95.0365 18.732 95.264 19.1008C95.54 19.5466 95.9243 19.7695 96.4205 19.7695C96.907 19.7695 97.2877 19.5431 97.5625 19.0889C97.7997 18.713 97.9164 18.2672 97.9164 17.7514Z" fill="white"/>
<path d="M105.41 20.5521H104.266L104.171 19.9083H104.136C103.744 20.4217 103.186 20.679 102.461 20.679C101.92 20.679 101.482 20.5095 101.153 20.1727C100.853 19.8668 100.704 19.4861 100.704 19.0344C100.704 18.3514 100.996 17.8308 101.583 17.4704C102.169 17.1099 102.994 16.9332 104.056 16.9415V16.8372C104.056 16.1008 103.659 15.7332 102.865 15.7332C102.299 15.7332 101.801 15.8719 101.37 16.147L101.111 15.3312C101.644 15.0099 102.302 14.8486 103.078 14.8486C104.576 14.8486 105.328 15.6194 105.328 17.1609V19.2194C105.328 19.7778 105.356 20.2225 105.41 20.5521ZM104.087 18.6312V17.7692C102.681 17.7455 101.978 18.1213 101.978 18.8956C101.978 19.1873 102.059 19.4055 102.223 19.5514C102.387 19.6972 102.596 19.7695 102.846 19.7695C103.125 19.7695 103.387 19.683 103.625 19.5111C103.865 19.3379 104.012 19.1186 104.067 18.8494C104.08 18.7889 104.087 18.7154 104.087 18.6312Z" fill="white"/>
<path d="M112.651 20.5522H111.52L111.46 19.6546H111.425C111.064 20.3376 110.449 20.6791 109.584 20.6791C108.893 20.6791 108.318 20.4146 107.862 19.8858C107.406 19.3569 107.178 18.6704 107.178 17.8273C107.178 16.9226 107.425 16.1898 107.921 15.6301C108.402 15.1084 108.99 14.8475 109.691 14.8475C110.461 14.8475 110.999 15.1001 111.306 15.6064H111.33V12.3977H112.606V19.0463C112.606 19.5905 112.621 20.0921 112.651 20.5522ZM111.33 18.1949V17.2629C111.33 17.1016 111.318 16.9712 111.295 16.8716C111.223 16.5728 111.069 16.3214 110.834 16.1186C110.597 15.9159 110.311 15.8139 109.982 15.8139C109.506 15.8139 109.134 15.9977 108.86 16.3665C108.589 16.7352 108.452 17.206 108.452 17.7811C108.452 18.3336 108.582 18.7819 108.843 19.1269C109.119 19.4945 109.491 19.6783 109.957 19.6783C110.376 19.6783 110.71 19.5253 110.964 19.2182C111.21 18.9348 111.33 18.5933 111.33 18.1949Z" fill="white"/>
<path d="M123.55 17.7111C123.55 18.5707 123.299 19.2751 122.795 19.8276C122.267 20.3956 121.569 20.679 120.695 20.679C119.855 20.679 119.184 20.4075 118.683 19.862C118.185 19.3178 117.935 18.6312 117.935 17.8036C117.935 16.9379 118.192 16.2277 118.708 15.6763C119.223 15.1249 119.917 14.8486 120.791 14.8486C121.631 14.8486 122.309 15.1202 122.82 15.6644C123.306 16.1933 123.55 16.8763 123.55 17.7111ZM122.23 17.7514C122.23 17.2356 122.115 16.7933 121.888 16.4245C121.619 15.9787 121.24 15.7557 120.744 15.7557C120.233 15.7557 119.844 15.9787 119.575 16.4245C119.346 16.7933 119.233 17.2427 119.233 17.7739C119.233 18.2897 119.347 18.732 119.575 19.1008C119.851 19.5466 120.235 19.7695 120.731 19.7695C121.218 19.7695 121.601 19.5431 121.876 19.0889C122.111 18.713 122.23 18.2672 122.23 17.7514Z" fill="white"/>
<path d="M130.403 20.5527H129.13V17.3511C129.13 16.3645 128.746 15.8713 127.973 15.8713C127.595 15.8713 127.29 16.0064 127.054 16.278C126.818 16.5495 126.7 16.8697 126.7 17.2361V20.5515H125.424V16.5602C125.424 16.0693 125.41 15.5369 125.379 14.9606H126.498L126.558 15.8345H126.593C126.743 15.563 126.964 15.3389 127.253 15.1598C127.6 14.9511 127.986 14.8456 128.41 14.8456C128.944 14.8456 129.389 15.014 129.743 15.3519C130.184 15.7657 130.403 16.3835 130.403 17.2041V20.5527Z" fill="white"/>
<path d="M138.983 15.893H137.58V18.6084C137.58 19.2985 137.829 19.6435 138.323 19.6435C138.551 19.6435 138.741 19.6246 138.891 19.5854L138.924 20.5281C138.672 20.6206 138.341 20.6669 137.934 20.6669C137.43 20.6669 137.039 20.5175 136.755 20.2186C136.471 19.9198 136.329 19.4171 136.329 18.7115V15.893H135.492V14.9622H136.329V13.9377L137.578 13.5701V14.961H138.982V15.893H138.983Z" fill="white"/>
<path d="M145.735 20.5522H144.459V17.3744C144.459 16.3724 144.075 15.8708 143.305 15.8708C142.714 15.8708 142.31 16.1613 142.089 16.7423C142.051 16.8645 142.029 17.0139 142.029 17.1894V20.551H140.756V12.3977H142.029V15.7665H142.054C142.455 15.1534 143.03 14.8475 143.776 14.8475C144.304 14.8475 144.74 15.0159 145.087 15.3538C145.519 15.7748 145.735 16.4008 145.735 17.2285V20.5522Z" fill="white"/>
<path d="M152.688 17.4931C152.688 17.716 152.671 17.9033 152.64 18.0563H148.818C148.835 18.6089 149.017 19.0298 149.371 19.3215C149.695 19.5824 150.112 19.7128 150.623 19.7128C151.188 19.7128 151.704 19.6251 152.169 19.4484L152.368 20.3116C151.824 20.5417 151.185 20.6567 150.444 20.6567C149.556 20.6567 148.857 20.4017 148.351 19.8919C147.843 19.382 147.591 18.6978 147.591 17.8393C147.591 16.9962 147.826 16.2943 148.299 15.7346C148.792 15.1369 149.46 14.8381 150.303 14.8381C151.128 14.8381 151.754 15.1369 152.177 15.7346C152.519 16.2089 152.688 16.7958 152.688 17.4931ZM151.472 17.1717C151.481 16.8029 151.398 16.4852 151.225 16.2172C151.003 15.8721 150.667 15.699 150.211 15.699C149.795 15.699 149.455 15.8674 149.196 16.2053C148.985 16.4745 148.859 16.7958 148.818 17.1717H151.472Z" fill="white"/>
<path d="M70.5301 41.9793H67.7682L66.2553 37.3442H60.9966L59.5554 41.9793H56.8665L62.0765 26.1992H65.2945L70.5301 41.9793ZM65.7992 35.3996L64.431 31.279C64.2863 30.8581 64.0151 29.8668 63.615 28.3063H63.5663C63.407 28.9775 63.1504 29.9688 62.7977 31.279L61.4538 35.3996H65.7992Z" fill="white"/>
<path d="M83.9264 36.1499C83.9264 38.0851 83.39 39.6147 82.3174 40.7376C81.3566 41.7372 80.1635 42.2364 78.7394 42.2364C77.2022 42.2364 76.0979 41.6981 75.4254 40.6214H75.3767V46.6155H72.7839V34.3464C72.7839 33.1298 72.751 31.8812 72.6878 30.6005H74.9681L75.1128 32.4041H75.1615C76.0262 31.0452 77.3384 30.3669 79.0994 30.3669C80.4761 30.3669 81.6254 30.897 82.5448 31.9582C83.4667 33.0207 83.9264 34.4175 83.9264 36.1499ZM81.2849 36.2424C81.2849 35.1349 81.0295 34.2219 80.5162 33.5033C79.9556 32.7539 79.2028 32.3792 78.259 32.3792C77.6193 32.3792 77.038 32.5879 76.5187 32.9993C75.9982 33.4144 75.6577 33.9562 75.4983 34.6274C75.4181 34.9404 75.3779 35.1966 75.3779 35.3981V37.2954C75.3779 38.123 75.6382 38.8214 76.1587 39.3918C76.6792 39.9621 77.3554 40.2467 78.1873 40.2467C79.1639 40.2467 79.924 39.8791 80.4676 39.1463C81.0124 38.4123 81.2849 37.4448 81.2849 36.2424Z" fill="white"/>
<path d="M97.3506 36.1499C97.3506 38.0851 96.8143 39.6147 95.7404 40.7376C94.7809 41.7372 93.5878 42.2364 92.1637 42.2364C90.6264 42.2364 89.5222 41.6981 88.8508 40.6214H88.8022V46.6155H86.2093V34.3464C86.2093 33.1298 86.1765 31.8812 86.1133 30.6005H88.3936L88.5383 32.4041H88.5869C89.4504 31.0452 90.7627 30.3669 92.5249 30.3669C93.9004 30.3669 95.0497 30.897 95.9715 31.9582C96.8897 33.0207 97.3506 34.4175 97.3506 36.1499ZM94.7091 36.2424C94.7091 35.1349 94.4525 34.2219 93.9393 33.5033C93.3786 32.7539 92.6283 32.3792 91.6833 32.3792C91.0424 32.3792 90.4623 32.5879 89.9417 32.9993C89.4212 33.4144 89.0819 33.9562 88.9226 34.6274C88.8435 34.9404 88.8022 35.1966 88.8022 35.3981V37.2954C88.8022 38.123 89.0625 38.8214 89.5805 39.3918C90.1011 39.9609 90.7773 40.2467 91.6115 40.2467C92.5881 40.2467 93.3482 39.8791 93.8919 39.1463C94.4367 38.4123 94.7091 37.4448 94.7091 36.2424Z" fill="white"/>
<path d="M112.36 37.554C112.36 38.8963 111.882 39.9884 110.922 40.8314C109.868 41.7528 108.4 42.2128 106.514 42.2128C104.772 42.2128 103.376 41.8856 102.319 41.2298L102.92 39.1227C104.058 39.7939 105.307 40.1306 106.668 40.1306C107.645 40.1306 108.405 39.9148 108.951 39.4856C109.495 39.0563 109.766 38.4801 109.766 37.7615C109.766 37.1212 109.542 36.5817 109.093 36.1441C108.647 35.7066 107.901 35.2999 106.86 34.924C104.027 33.8935 102.611 32.3841 102.611 30.3991C102.611 29.1019 103.107 28.0382 104.101 27.2106C105.091 26.3817 106.412 25.9679 108.063 25.9679C109.536 25.9679 110.759 26.2181 111.736 26.7173L111.088 28.7782C110.176 28.2944 109.144 28.0525 107.99 28.0525C107.078 28.0525 106.365 28.2718 105.855 28.7082C105.423 29.0983 105.206 29.5738 105.206 30.137C105.206 30.7607 105.453 31.2766 105.949 31.6821C106.381 32.0568 107.166 32.4623 108.304 32.8999C109.696 33.4465 110.719 34.0856 111.377 34.8184C112.033 35.5489 112.36 36.4631 112.36 37.554Z" fill="white"/>
<path d="M120.929 32.4981H118.071V38.0226C118.071 39.4277 118.574 40.1297 119.584 40.1297C120.047 40.1297 120.431 40.0906 120.735 40.0123L120.807 41.9321C120.296 42.1182 119.624 42.2119 118.791 42.2119C117.767 42.2119 116.967 41.9072 116.389 41.2989C115.814 40.6894 115.524 39.6672 115.524 38.2313V32.4958H113.822V30.5985H115.524V28.5151L118.071 27.7657V30.5985H120.929V32.4981Z" fill="white"/>
<path d="M133.826 36.1959C133.826 37.9449 133.313 39.3809 132.289 40.5038C131.215 41.6599 129.79 42.2362 128.013 42.2362C126.3 42.2362 124.937 41.6825 123.92 40.575C122.904 39.4675 122.395 38.0694 122.395 36.3845C122.395 34.6212 122.918 33.177 123.968 32.0541C125.015 30.93 126.428 30.3679 128.205 30.3679C129.917 30.3679 131.295 30.9217 132.335 32.0304C133.33 33.1058 133.826 34.4944 133.826 36.1959ZM131.136 36.2778C131.136 35.2284 130.906 34.3284 130.44 33.5778C129.897 32.6695 129.119 32.2165 128.113 32.2165C127.07 32.2165 126.279 32.6707 125.735 33.5778C125.269 34.3296 125.039 35.2438 125.039 36.3252C125.039 37.3746 125.269 38.2746 125.735 39.024C126.296 39.9323 127.079 40.3852 128.089 40.3852C129.079 40.3852 129.856 39.9228 130.417 39.0003C130.895 38.2355 131.136 37.326 131.136 36.2778Z" fill="white"/>
<path d="M142.253 32.8238C141.996 32.7776 141.723 32.7539 141.436 32.7539C140.524 32.7539 139.818 33.0895 139.322 33.7618C138.89 34.3547 138.674 35.1041 138.674 36.0088V41.9791H136.082L136.106 34.1839C136.106 32.8725 136.074 31.6784 136.009 30.6017H138.268L138.362 32.7788H138.434C138.708 32.0306 139.14 31.4282 139.731 30.9764C140.308 30.5697 140.932 30.3669 141.605 30.3669C141.844 30.3669 142.061 30.3835 142.253 30.4132V32.8238Z" fill="white"/>
<path d="M153.848 35.7517C153.848 36.2047 153.818 36.5865 153.754 36.8983H145.975C146.005 38.0225 146.381 38.8821 147.104 39.475C147.759 40.005 148.607 40.2707 149.648 40.2707C150.8 40.2707 151.85 40.0916 152.795 39.7323L153.201 41.4873C152.097 41.9568 150.793 42.1904 149.289 42.1904C147.479 42.1904 146.059 41.671 145.025 40.6335C143.994 39.596 143.477 38.2027 143.477 36.4549C143.477 34.7391 143.957 33.3102 144.919 32.1707C145.926 30.9541 147.287 30.3458 149 30.3458C150.682 30.3458 151.955 30.9541 152.82 32.1707C153.504 33.1371 153.848 34.3324 153.848 35.7517ZM151.376 35.096C151.393 34.3466 151.224 33.6992 150.873 33.1525C150.424 32.4494 149.734 32.0984 148.806 32.0984C147.959 32.0984 147.269 32.4411 146.742 33.1288C146.311 33.6754 146.054 34.3312 145.975 35.0948H151.376V35.096Z" fill="white"/>
</svg>
