<svg width="15" height="11" viewBox="0 0 15 11" fill="none" xmlns="http://www.w3.org/2000/svg">
<path d="M8.20193 0.0985121C7.67637 -0.0712202 7.11273 0.217233 6.943 0.742789C6.77326 1.26835 7.06172 1.83199 7.58727 2.00172L8.20193 0.0985121ZM13.9506 3.00593L14.9022 3.31326C14.9837 3.06088 14.9616 2.78646 14.8408 2.55036C14.7199 2.31427 14.5103 2.13584 14.2579 2.05433L13.9506 3.00593ZM11.0431 8.75458C10.8734 9.28013 11.1619 9.84378 11.6874 10.0135C12.213 10.1832 12.7766 9.89479 12.9464 9.36923L11.0431 8.75458ZM1.47732 8.26596C0.985673 8.51757 0.791084 9.12009 1.04269 9.61173C1.2943 10.1034 1.89682 10.298 2.38846 10.0464L1.47732 8.26596ZM7.58727 2.00172L13.6432 3.95754L14.2579 2.05433L8.20193 0.0985121L7.58727 2.00172ZM12.999 2.69861L11.0431 8.75458L12.9464 9.36923L14.9022 3.31326L12.999 2.69861ZM13.495 2.11574L1.47732 8.26596L2.38846 10.0464L14.4061 3.89613L13.495 2.11574Z" fill="#8664E9"/>
</svg>
