<svg width="175" height="56" viewBox="0 0 175 56" fill="none" xmlns="http://www.w3.org/2000/svg">
<rect width="174.769" height="56" rx="14" fill="black" fill-opacity="0.48"/>
<path d="M57.9382 20.078C57.4569 20.078 57.0048 19.9938 56.582 19.8254C56.1625 19.6535 55.7929 19.4025 55.4732 19.0724C55.1569 18.7424 54.9094 18.3384 54.7306 17.8606C54.5518 17.3793 54.4625 16.8292 54.4625 16.2104C54.4625 15.399 54.6137 14.7063 54.9163 14.1321C55.2188 13.5545 55.6331 13.1128 56.1591 12.8068C56.6851 12.4974 57.2781 12.3427 57.9382 12.3427C58.8527 12.3427 59.5764 12.5558 60.1093 12.9821C60.6456 13.405 61.0083 13.9998 61.1974 14.7664L59.9288 14.9675C59.7878 14.5275 59.5575 14.1768 59.2378 13.9155C58.918 13.6508 58.5106 13.5184 58.0156 13.5184C57.5171 13.5116 57.1028 13.6199 56.7728 13.8433C56.4427 14.0668 56.1935 14.3814 56.025 14.787C55.86 15.1927 55.7775 15.6672 55.7775 16.2104C55.7775 16.7536 55.86 17.2263 56.025 17.6285C56.19 18.0273 56.4376 18.3384 56.7676 18.5619C57.1011 18.7854 57.5171 18.9005 58.0156 18.9074C58.3903 18.9109 58.7186 18.8438 59.0006 18.7063C59.2825 18.5653 59.5128 18.3539 59.6916 18.072C59.8704 17.7867 59.9907 17.4308 60.0526 17.0045H58.7427V16.0299H61.3727C61.3796 16.0849 61.3848 16.1657 61.3882 16.2722C61.3916 16.3788 61.3934 16.4424 61.3934 16.463C61.3934 17.1644 61.2541 17.7884 60.9757 18.335C60.7006 18.8782 60.3053 19.3045 59.7896 19.6139C59.2739 19.9233 58.6568 20.078 57.9382 20.078ZM62.4291 19.9233V12.4974H67.225V13.6628H63.6719V15.4935H66.6062V16.659H63.6719V18.7579H67.225V19.9233H62.4291ZM70.2466 19.9233V13.6628H67.8435V12.4974H73.8925V13.6628H71.4894V19.9233H70.2466ZM76.5728 19.9233V12.4974H77.8156V19.9233H76.5728ZM81.1446 19.9233V13.6628H78.7415V12.4974H84.7906V13.6628H82.3874V19.9233H81.1446ZM90.5082 20.078C89.7656 20.078 89.1296 19.9165 88.6002 19.5933C88.0707 19.2667 87.6633 18.8129 87.378 18.2319C87.0961 17.6509 86.9551 16.977 86.9551 16.2104C86.9551 15.4437 87.0961 14.7699 87.378 14.1888C87.6633 13.6078 88.0707 13.1557 88.6002 12.8326C89.1296 12.506 89.7656 12.3427 90.5082 12.3427C91.2508 12.3427 91.8868 12.506 92.4163 12.8326C92.9492 13.1557 93.3566 13.6078 93.6385 14.1888C93.9238 14.7699 94.0665 15.4437 94.0665 16.2104C94.0665 16.977 93.9238 17.6509 93.6385 18.2319C93.3566 18.8129 92.9492 19.2667 92.4163 19.5933C91.8868 19.9165 91.2508 20.078 90.5082 20.078ZM90.5082 18.9074C91.0067 18.9109 91.421 18.8008 91.751 18.5774C92.0845 18.3539 92.3338 18.0393 92.4988 17.6337C92.6673 17.228 92.7515 16.7536 92.7515 16.2104C92.7515 15.6672 92.6673 15.1962 92.4988 14.7974C92.3338 14.3951 92.0845 14.0823 91.751 13.8588C91.421 13.6353 91.0067 13.5202 90.5082 13.5133C90.0097 13.5098 89.5955 13.6199 89.2654 13.8433C88.9354 14.0668 88.6861 14.3814 88.5177 14.787C88.3526 15.1927 88.2701 15.6672 88.2701 16.2104C88.2701 16.7536 88.3526 17.2263 88.5177 17.6285C88.6827 18.0273 88.9302 18.3384 89.2603 18.5619C89.5937 18.7854 90.0097 18.9005 90.5082 18.9074ZM95.093 19.9233V12.4974H96.3513L99.7961 17.7316V12.4974H101.054V19.9233H99.7961L96.3513 14.6891V19.9233H95.093Z" fill="white"/>
<path d="M87.5562 30.0061C86.5193 30.0085 85.5063 30.3184 84.6454 30.8966C83.7846 31.4747 83.1145 32.2951 82.7199 33.2541C82.3253 34.2131 82.224 35.2675 82.4286 36.2841C82.6333 37.3007 83.1349 38.2337 83.8699 38.9653C84.6048 39.6968 85.5402 40.194 86.5578 40.3939C87.5753 40.5938 88.6293 40.4875 89.5864 40.0884C90.5435 39.6893 91.3608 39.0154 91.9348 38.1518C92.5089 37.2883 92.8141 36.2738 92.8116 35.2369C92.8217 34.5451 92.6924 33.8584 92.4315 33.2176C92.1707 32.5768 91.7835 31.9951 91.2932 31.507C90.8028 31.019 90.2193 30.6346 89.5773 30.3767C88.9353 30.1189 88.248 29.9928 87.5562 30.0061ZM87.5562 38.4123C86.9206 38.4567 86.2864 38.3089 85.7359 37.9881C85.1854 37.6673 84.7442 37.1883 84.4695 36.6134C84.1948 36.0385 84.0995 35.3943 84.1958 34.7644C84.2922 34.1346 84.5758 33.5484 85.0097 33.0818C85.4437 32.6153 86.008 32.2902 86.6292 32.1486C87.2504 32.007 87.8998 32.0556 88.4931 32.2881C89.0863 32.5205 89.5959 32.926 89.9556 33.4519C90.3153 33.9778 90.5085 34.5997 90.5101 35.2369C90.5299 35.6406 90.4687 36.0442 90.3301 36.4239C90.1914 36.8035 89.9782 37.1516 89.7029 37.4475C89.4276 37.7435 89.0958 37.9813 88.7271 38.147C88.3585 38.3127 87.9603 38.4029 87.5562 38.4123ZM76.0855 30.0061C75.0485 30.0085 74.0355 30.3184 73.1747 30.8966C72.3138 31.4747 71.6437 32.2951 71.2491 33.2541C70.8545 34.2131 70.7532 35.2675 70.9579 36.2841C71.1626 37.3007 71.6641 38.2337 72.3991 38.9653C73.1341 39.6968 74.0695 40.194 75.087 40.3939C76.1045 40.5938 77.1585 40.4875 78.1156 40.0884C79.0727 39.6893 79.89 39.0154 80.4641 38.1518C81.0382 37.2883 81.3433 36.2738 81.3409 35.2369C81.3509 34.5451 81.2216 33.8584 80.9608 33.2176C80.6999 32.5768 80.3128 31.9951 79.8224 31.507C79.332 31.019 78.7485 30.6346 78.1065 30.3767C77.4645 30.1189 76.7772 29.9928 76.0855 30.0061ZM76.0855 38.4123C75.4499 38.4567 74.8156 38.3089 74.2651 37.9881C73.7146 37.6673 73.2734 37.1883 72.9987 36.6134C72.7241 36.0385 72.6287 35.3943 72.7251 34.7644C72.8214 34.1346 73.105 33.5484 73.539 33.0818C73.9729 32.6153 74.5372 32.2902 75.1584 32.1486C75.7796 32.007 76.4291 32.0556 77.0223 32.2881C77.6156 32.5205 78.1252 32.926 78.4849 33.4519C78.8446 33.9778 79.0378 34.5997 79.0393 35.2369C79.0591 35.6406 78.9979 36.0442 78.8593 36.4239C78.7207 36.8035 78.5074 37.1516 78.2321 37.4475C77.9568 37.7435 77.625 37.9813 77.2564 38.147C76.8877 38.3127 76.4896 38.4029 76.0855 38.4123ZM62.4486 31.6184V33.8338H67.7655C67.6821 34.8772 67.2484 35.8618 66.5347 36.6276C66.0014 37.171 65.3599 37.5964 64.6518 37.8763C63.9436 38.1561 63.1847 38.2842 62.4239 38.2523C60.8571 38.2523 59.3545 37.6298 58.2466 36.5219C57.1387 35.414 56.5162 33.9114 56.5162 32.3446C56.5162 30.7777 57.1387 29.2751 58.2466 28.1672C59.3545 27.0593 60.8571 26.4369 62.4239 26.4369C63.926 26.4145 65.3764 26.985 66.4609 28.0246L68.0239 26.4615C67.2904 25.736 66.4194 25.1641 65.462 24.7795C64.5047 24.3948 63.4802 24.2051 62.4486 24.2215C61.3544 24.1789 60.2629 24.3576 59.2395 24.747C58.216 25.1363 57.2817 25.7283 56.4926 26.4873C55.7034 27.2464 55.0755 28.157 54.6467 29.1645C54.2178 30.172 53.9968 31.2557 53.9968 32.3507C53.9968 33.4457 54.2178 34.5294 54.6467 35.5369C55.0755 36.5444 55.7034 37.455 56.4926 38.2141C57.2817 38.9732 58.216 39.5651 59.2395 39.9544C60.2629 40.3438 61.3544 40.5225 62.4486 40.4799C63.5014 40.522 64.5512 40.3409 65.529 39.9484C66.5069 39.556 67.3907 38.9612 68.1224 38.203C69.4148 36.7832 70.1035 34.9159 70.0424 32.9969C70.0468 32.535 70.0097 32.0737 69.9316 31.6184H62.4486ZM118.215 33.3415C117.894 32.3972 117.293 31.5726 116.493 30.977C115.693 30.3814 114.731 30.0428 113.735 30.0061C113.061 30.0048 112.395 30.1416 111.777 30.408C111.159 30.6744 110.602 31.0648 110.14 31.5551C109.679 32.0453 109.323 32.625 109.094 33.2583C108.866 33.8915 108.77 34.565 108.812 35.2369C108.801 36.3604 109.154 37.4571 109.819 38.3633C110.483 39.2696 111.422 39.9366 112.497 40.2647C113.571 40.5929 114.723 40.5647 115.781 40.1842C116.838 39.8037 117.743 39.0915 118.362 38.1538L116.578 36.923C116.312 37.3664 115.934 37.7326 115.483 37.9852C115.032 38.2378 114.523 38.368 114.005 38.363C113.472 38.3851 112.944 38.2452 112.492 37.9618C112.039 37.6785 111.683 37.2649 111.47 36.7753L118.473 33.883L118.215 33.3415ZM111.076 35.0892C111.051 34.7069 111.103 34.3234 111.228 33.9613C111.353 33.5992 111.549 33.2657 111.805 32.9803C112.06 32.6949 112.37 32.4634 112.716 32.2993C113.063 32.1351 113.438 32.0418 113.821 32.0246C114.217 32.0004 114.612 32.0937 114.956 32.293C115.3 32.4922 115.577 32.7884 115.753 33.1446L111.076 35.0892ZM105.39 40.1599H107.692V24.7753H105.39V40.1599ZM101.624 31.1753H101.538C101.188 30.795 100.761 30.4938 100.286 30.2921C99.8104 30.0905 99.2972 29.9929 98.7809 30.0061C97.4359 30.0713 96.1675 30.6515 95.2387 31.6265C94.3098 32.6015 93.7917 33.8964 93.7917 35.243C93.7917 36.5896 94.3098 37.8846 95.2387 38.8595C96.1675 39.8345 97.4359 40.4147 98.7809 40.4799C99.3027 40.4904 99.8203 40.3855 100.297 40.1728C100.773 39.96 101.197 39.6446 101.538 39.2492H101.624V39.9999C101.624 42.0061 100.553 43.0769 98.8301 43.0769C98.2545 43.0642 97.6956 42.8808 97.2245 42.5499C96.7533 42.219 96.3912 41.7556 96.1839 41.2184L94.1901 42.043C94.5587 42.9689 95.1996 43.761 96.0281 44.3148C96.8566 44.8686 97.8337 45.1579 98.8301 45.1446C101.525 45.1446 103.753 43.5569 103.753 39.6923V30.3138H101.624V31.1753ZM98.9778 38.4123C98.1714 38.362 97.4145 38.0062 96.8612 37.4174C96.308 36.8286 96 36.051 96 35.243C96 34.4351 96.308 33.6575 96.8612 33.0687C97.4145 32.4799 98.1714 32.1241 98.9778 32.0738C99.3719 32.0908 99.7586 32.1869 100.115 32.3564C100.471 32.5259 100.79 32.7654 101.051 33.0605C101.313 33.3556 101.513 33.7003 101.639 34.0742C101.765 34.4481 101.814 34.8435 101.784 35.2369C101.818 35.6316 101.771 36.029 101.646 36.4051C101.522 36.7811 101.323 37.1281 101.06 37.4249C100.798 37.7217 100.478 37.9623 100.12 38.132C99.7622 38.3017 99.3736 38.397 98.9778 38.4123ZM128.996 24.7753H123.482V40.1599H125.784V34.3261H128.996C129.652 34.3732 130.311 34.2847 130.931 34.0661C131.551 33.8474 132.12 33.5034 132.601 33.0553C133.083 32.6073 133.466 32.0649 133.729 31.4619C133.992 30.8589 134.127 30.2083 134.127 29.5507C134.127 28.8931 133.992 28.2425 133.729 27.6395C133.466 27.0366 133.083 26.4942 132.601 26.0461C132.12 25.5981 131.551 25.254 130.931 25.0354C130.311 24.8167 129.652 24.7282 128.996 24.7753ZM128.996 32.1599H125.784V26.9169H129.045C129.744 26.9169 130.414 27.1944 130.908 27.6883C131.402 28.1822 131.679 28.8522 131.679 29.5507C131.679 30.2493 131.402 30.9192 130.908 31.4131C130.414 31.9071 129.744 32.1846 129.045 32.1846L128.996 32.1599ZM143.199 29.9569C142.361 29.9052 141.526 30.1003 140.798 30.5181C140.069 30.9359 139.479 31.5581 139.101 32.3076L141.132 33.1569C141.337 32.7869 141.645 32.4843 142.018 32.2855C142.392 32.0868 142.815 32.0004 143.236 32.0369C143.528 32.0027 143.824 32.0272 144.107 32.1087C144.39 32.1902 144.653 32.3271 144.882 32.5116C145.112 32.696 145.302 32.9243 145.442 33.183C145.582 33.4417 145.669 33.7257 145.698 34.0184V34.1661C144.958 33.7771 144.134 33.5743 143.298 33.5753C141.107 33.5753 138.867 34.8061 138.867 37.0461C138.889 37.5222 139.006 37.9891 139.211 38.4191C139.417 38.849 139.707 39.2333 140.064 39.549C140.421 39.8647 140.838 40.1055 141.29 40.2569C141.742 40.4084 142.22 40.4675 142.695 40.4307C143.272 40.4627 143.848 40.3404 144.363 40.0766C144.877 39.8127 145.313 39.4167 145.624 38.9292H145.698V40.1599H147.913V34.2399C147.913 31.5446 145.87 29.9815 143.249 29.9815L143.199 29.9569ZM142.916 38.3876C142.165 38.3876 141.119 38.0061 141.119 37.083C141.119 35.8523 142.424 35.4338 143.581 35.4338C144.312 35.4158 145.035 35.5943 145.673 35.9507C145.596 36.6191 145.279 37.2368 144.781 37.6894C144.283 38.142 143.638 38.3988 142.965 38.4123L142.916 38.3876ZM155.987 30.3138L153.353 36.9846H153.279L150.547 30.3138H148.085L152.184 39.643L149.845 44.8246H152.307L158.547 30.3138H155.987ZM135.31 40.1599H137.599V24.7753H135.31V40.1599Z" fill="white"/>
<path d="M29.1958 27.1384L16.0881 41.0461C16.2313 41.5722 16.4935 42.0582 16.8545 42.4668C17.2154 42.8754 17.6654 43.1955 18.1698 43.4025C18.6741 43.6095 19.2193 43.6977 19.7632 43.6605C20.3071 43.6232 20.8352 43.4615 21.3066 43.1877L36.0758 34.6707L29.1958 27.1384Z" fill="#EA4335"/>
<path d="M42.4471 24.7756L36.0717 21.0833L28.9087 27.4709L36.0964 34.6709L42.4348 30.9786C42.9983 30.6769 43.4693 30.2279 43.7976 29.6795C44.126 29.1311 44.2994 28.504 44.2994 27.8648C44.2994 27.2256 44.126 26.5984 43.7976 26.0501C43.4693 25.5017 42.9983 25.0527 42.4348 24.7509L42.4471 24.7756Z" fill="#FBBC04"/>
<path d="M16.0874 14.6584C16.0223 14.9492 15.9934 15.2468 16.0013 15.5446V40.16C16.0034 40.4676 16.0448 40.7736 16.1243 41.0708L29.6628 27.5323L16.0874 14.6584Z" fill="#4285F4"/>
<path d="M29.2911 27.8525L36.0727 21.0709L21.3035 12.5294C20.7486 12.1996 20.1151 12.0252 19.4696 12.0248C18.691 12.027 17.9346 12.2847 17.3165 12.7582C16.6984 13.2318 16.2528 13.8951 16.0481 14.6463L29.2911 27.8525Z" fill="#34A853"/>
</svg>
