<svg width="325" height="374" viewBox="0 0 325 374" fill="none" xmlns="http://www.w3.org/2000/svg">
<g clip-path="url(#clip0_2_1454)">
<rect x="2.5" width="320" height="660.5" rx="52.5" fill="black"/>
<rect x="5.375" y="2.875" width="314.25" height="654.75" rx="49.625" stroke="#595163" stroke-width="3.25"/>
<rect x="3.125" y="0.625" width="318.75" height="659.25" rx="51.875" stroke="#28232E" stroke-width="1.25"/>
<g opacity="0.9" filter="url(#filter0_f_2_1454)">
<rect x="3.75" y="1.5" width="317.5" height="657.75" rx="51.5" stroke="#89789A" stroke-width="1.25"/>
</g>
<g opacity="0.8" filter="url(#filter1_f_2_1454)">
<rect x="8" y="5.5" width="309" height="649.5" rx="47" stroke="#646464" stroke-width="0.5"/>
</g>
<rect x="16.25" y="13.75" width="292.5" height="633" rx="41.25" fill="url(#paint0_linear_2_1454)"/>
<path d="M57.8103 32.144C55.7223 32.144 54.1848 33.5472 54.1848 35.501V35.5144C54.1848 37.3339 55.5007 38.6766 57.3672 38.6766C58.6764 38.6766 59.6432 38.0052 60.0259 37.119H60.0662C60.0662 37.2264 60.0594 37.3271 60.0527 37.4279C59.9856 39.2607 59.3344 40.7512 57.7767 40.7512C56.9106 40.7512 56.3198 40.3215 56.058 39.6569L56.0378 39.5964H54.3191L54.3325 39.6703C54.6346 41.1339 55.9774 42.1678 57.77 42.1678C60.2407 42.1678 61.7245 40.2544 61.7245 37.0519V37.0385C61.7245 33.6412 59.9453 32.144 57.8103 32.144ZM57.8103 37.3406C56.7092 37.3406 55.8901 36.5551 55.8901 35.454V35.4406C55.8901 34.3932 56.7562 33.5607 57.8304 33.5607C58.9181 33.5607 59.764 34.3999 59.764 35.4741V35.4808C59.764 36.5618 58.9181 37.3406 57.8103 37.3406ZM63.8864 35.6621C64.4302 35.6621 64.8531 35.2324 64.8531 34.6886C64.8531 34.1448 64.4302 33.7218 63.8864 33.7218C63.3425 33.7218 62.9128 34.1448 62.9128 34.6886C62.9128 35.2324 63.3425 35.6621 63.8864 35.6621ZM63.8864 40.5901C64.4302 40.5901 64.8531 40.1604 64.8531 39.6166C64.8531 39.0728 64.4302 38.6498 63.8864 38.6498C63.3425 38.6498 62.9128 39.0728 62.9128 39.6166C62.9128 40.1604 63.3425 40.5901 63.8864 40.5901ZM70.8083 42H72.46V40.1403H73.7759V38.7169H72.46V32.3119H69.996L65.9744 38.6632V40.1403H70.8083V42ZM67.532 38.7572V38.7102L70.7949 33.6211H70.8352V38.7572H67.532ZM77.2872 42H78.9858V32.3119H77.2738L74.7427 34.0911V35.6823L77.2469 33.9635H77.2872V42Z" fill="white"/>
<g opacity="0.9">
<rect x="225.5" y="37.5" width="2.5" height="3" rx="0.25" fill="white"/>
<rect x="229" y="36" width="2.5" height="4.5" rx="0.25" fill="white"/>
<rect x="232.75" y="34.25" width="2.5" height="6.25" rx="0.25" fill="white"/>
<rect x="236.25" y="32.25" width="2.5" height="8.25" rx="0.25" fill="white"/>
</g>
<g opacity="0.9">
<path d="M258.537 34.4081C256.906 32.7665 254.647 31.75 252.151 31.75C249.647 31.75 247.381 32.7726 245.75 34.4229L247.164 35.8372C248.434 34.5488 250.199 33.75 252.151 33.75C254.095 33.75 255.854 34.5426 257.122 35.8223L258.537 34.4081Z" fill="white"/>
<path d="M256.239 36.7062C255.196 35.6527 253.75 35 252.151 35C250.544 35 249.091 35.6588 248.048 36.7211L249.462 38.1354C250.144 37.4351 251.096 37 252.151 37C253.197 37 254.144 37.4289 254.824 38.1205L256.239 36.7062Z" fill="white"/>
<path d="M253.94 39.0044C253.486 38.539 252.852 38.25 252.151 38.25C251.442 38.25 250.801 38.5452 250.346 39.0194L252.136 40.8089L253.94 39.0044Z" fill="white"/>
</g>
<rect opacity="0.6" x="265.875" y="32.375" width="16.75" height="8" rx="1.625" stroke="white" stroke-width="0.75"/>
<rect opacity="0.9" x="266.75" y="33.25" width="15" height="6.25" rx="1" fill="white"/>
<path opacity="0.6" d="M283.5 35.25C284.052 35.25 284.5 35.6977 284.5 36.25V36.5C284.5 37.0523 284.052 37.5 283.5 37.5V35.25Z" fill="white"/>
<rect opacity="0.6" x="232.25" y="46" width="40.75" height="1.75" rx="0.875" fill="white"/>
<rect x="116.25" y="23.75" width="92.5" height="27" rx="13.5" fill="black"/>
<g opacity="0.75">
<rect x="183.75" y="30.75" width="13" height="13" rx="6.5" fill="#121212"/>
<g filter="url(#filter2_f_2_1454)">
<path d="M188.857 34.4642C186.745 35.0833 186.041 38.6428 188.857 40.0357C188.153 38.1785 188.153 36.4761 188.857 34.4642Z" fill="#50A99A"/>
</g>
<g filter="url(#filter3_f_2_1454)">
<path d="M188.393 35.75C187.337 36.0833 186.985 38 188.393 38.75C188.041 37.75 188.041 36.8333 188.393 35.75Z" fill="#50A99A"/>
</g>
<g opacity="0.4" filter="url(#filter4_f_2_1454)">
<path d="M188.827 35.2662C187.922 35.4026 187.261 37.9065 188.354 38.5713C187.967 37.6784 188.161 35.8927 188.827 35.2662Z" fill="#D0FFF7"/>
</g>
<g filter="url(#filter5_f_2_1454)">
<path d="M191.643 34.4642C193.755 35.0833 194.459 38.6428 191.643 40.0357C192.347 38.1785 192.347 36.4761 191.643 34.4642Z" fill="#3E518C"/>
</g>
<g filter="url(#filter6_f_2_1454)">
<path d="M192.107 35.75C193.163 36.0833 193.515 38 192.107 38.75C192.459 37.75 192.459 36.8333 192.107 35.75Z" fill="#26408D"/>
</g>
<g opacity="0.5" filter="url(#filter7_f_2_1454)">
<path d="M191.673 35.2662C192.578 35.4026 193.239 37.9065 192.146 38.5713C192.533 37.6784 192.339 35.8927 191.673 35.2662Z" fill="#0D308C"/>
</g>
</g>
<g opacity="0.4">
<rect width="18" height="18" rx="9" transform="matrix(-1 0 0 1 138.75 28.25)" fill="#141414"/>
<rect width="11.7" height="11.7" rx="5.85" transform="matrix(-1 0 0 1 135.6 31.4)" fill="black"/>
<g filter="url(#filter8_f_2_1454)">
<path d="M131.505 33.7401C134.166 34.5201 135.053 39.0051 131.505 40.7601C132.392 38.4201 132.392 36.2751 131.505 33.7401Z" fill="#50A99A"/>
</g>
<g filter="url(#filter9_f_2_1454)">
<path d="M132.09 35.3601C133.421 35.7801 133.864 38.1951 132.09 39.1401C132.534 37.8801 132.534 36.7251 132.09 35.3601Z" fill="#50A99A"/>
</g>
<g opacity="0.5" filter="url(#filter10_f_2_1454)">
<path d="M131.543 34.7506C132.683 34.9225 133.516 38.0773 132.139 38.915C132.627 37.79 132.383 35.54 131.543 34.7506Z" fill="#D0FFF7"/>
</g>
<g filter="url(#filter11_f_2_1454)">
<path d="M127.995 33.7401C125.334 34.5201 124.447 39.0051 127.995 40.7601C127.108 38.4201 127.108 36.2751 127.995 33.7401Z" fill="#3E518C"/>
</g>
<g filter="url(#filter12_f_2_1454)">
<path d="M127.41 35.3601C126.079 35.7801 125.636 38.1951 127.41 39.1401C126.966 37.8801 126.966 36.7251 127.41 35.3601Z" fill="#26408D"/>
</g>
<g opacity="0.5" filter="url(#filter13_f_2_1454)">
<path d="M127.957 34.7506C126.817 34.9225 125.984 38.0773 127.361 38.915C126.873 37.79 127.117 35.54 127.957 34.7506Z" fill="#0D308C"/>
</g>
</g>
<g style="mix-blend-mode:screen" opacity="0.75">
<rect x="318" y="66.75" width="4.5" height="4" fill="#7C7C7C"/>
</g>
<g style="mix-blend-mode:screen" opacity="0.75">
<rect x="2.5" y="66.75" width="4.5" height="4" fill="#7C7C7C"/>
</g>
<g style="mix-blend-mode:screen" opacity="0.75">
<rect x="257.25" width="4" height="4.5" fill="#7C7C7C"/>
</g>
</g>
<g clip-path="url(#clip1_2_1454)">
<g filter="url(#filter14_f_2_1454)">
<rect width="2.5" height="78" rx="0.25" transform="matrix(-1 0 0 1 324.75 199.75)" fill="#DEDEDE"/>
<rect x="0.125" y="-0.125" width="2.75" height="78.25" rx="0.375" transform="matrix(-1 0 0 1 325 199.75)" stroke="black" stroke-width="0.25"/>
</g>
<g filter="url(#filter15_f_2_1454)">
<rect x="0.125" y="-0.125" width="2.25" height="77.75" rx="0.175" transform="matrix(-1 0 0 1 324.75 200)" stroke="#FAFAF8" stroke-width="0.25"/>
</g>
<g filter="url(#filter16_f_2_1454)">
<rect width="2.25" height="5.5" rx="0.125" transform="matrix(-1 0 0 1 324.5 200)" fill="url(#paint1_linear_2_1454)"/>
</g>
<g filter="url(#filter17_f_2_1454)">
<rect x="324.5" y="277.5" width="2.25" height="5.5" rx="0.125" transform="rotate(180 324.5 277.5)" fill="url(#paint2_linear_2_1454)"/>
</g>
</g>
<g clip-path="url(#clip2_2_1454)">
<g filter="url(#filter18_f_2_1454)">
<rect x="0.25" y="134.75" width="2.5" height="23.75" rx="0.25" fill="#DEDEDE"/>
<rect x="0.125" y="134.625" width="2.75" height="24" rx="0.375" stroke="black" stroke-width="0.25"/>
</g>
<g filter="url(#filter19_f_2_1454)">
<rect x="0.375" y="134.875" width="2.25" height="23.5" rx="0.175" stroke="#FAFAF8" stroke-width="0.25"/>
</g>
<g filter="url(#filter20_f_2_1454)">
<rect x="0.5" y="135" width="2.25" height="2.75" rx="0.125" fill="url(#paint3_linear_2_1454)"/>
</g>
<g filter="url(#filter21_f_2_1454)">
<rect width="2.25" height="2.75" rx="0.125" transform="matrix(1 0 0 -1 0.5 158.25)" fill="url(#paint4_linear_2_1454)"/>
</g>
</g>
<g clip-path="url(#clip3_2_1454)">
<g filter="url(#filter22_f_2_1454)">
<rect x="0.25" y="182" width="2.5" height="50" rx="0.25" fill="#DEDEDE"/>
<rect x="0.125" y="181.875" width="2.75" height="50.25" rx="0.375" stroke="black" stroke-width="0.25"/>
</g>
<g filter="url(#filter23_f_2_1454)">
<rect x="0.375" y="182.125" width="2.25" height="49.75" rx="0.175" stroke="#FAFAF8" stroke-width="0.25"/>
</g>
<g filter="url(#filter24_f_2_1454)">
<rect x="0.5" y="182.25" width="2.25" height="5.5" rx="0.125" fill="url(#paint5_linear_2_1454)"/>
</g>
<g filter="url(#filter25_f_2_1454)">
<rect width="2.25" height="5.5" rx="0.125" transform="matrix(1 0 0 -1 0.5 231.75)" fill="url(#paint6_linear_2_1454)"/>
</g>
</g>
<g clip-path="url(#clip4_2_1454)">
<g filter="url(#filter26_f_2_1454)">
<rect x="0.25" y="245.5" width="2.5" height="50" rx="0.25" fill="#DEDEDE"/>
<rect x="0.125" y="245.375" width="2.75" height="50.25" rx="0.375" stroke="black" stroke-width="0.25"/>
</g>
<g filter="url(#filter27_f_2_1454)">
<rect x="0.375" y="245.625" width="2.25" height="49.75" rx="0.175" stroke="#FAFAF8" stroke-width="0.25"/>
</g>
<g filter="url(#filter28_f_2_1454)">
<rect x="0.5" y="245.75" width="2.25" height="5.5" rx="0.125" fill="url(#paint7_linear_2_1454)"/>
</g>
<g filter="url(#filter29_f_2_1454)">
<rect width="2.25" height="5.5" rx="0.125" transform="matrix(1 0 0 -1 0.5 295.25)" fill="url(#paint8_linear_2_1454)"/>
</g>
</g>
<rect x="24" y="67" width="276" height="33" rx="8" fill="white" fill-opacity="0.9"/>
<path d="M36.7428 87.1234C37.7728 87.1234 38.7226 86.7904 39.4997 86.2353L42.4231 89.1587C42.5588 89.2944 42.7376 89.3622 42.9288 89.3622C43.3297 89.3622 43.6134 89.0539 43.6134 88.6591C43.6134 88.4741 43.5517 88.2953 43.416 88.1657L40.5112 85.2547C41.1217 84.4529 41.4856 83.4599 41.4856 82.3806C41.4856 79.7718 39.3517 77.6378 36.7428 77.6378C34.1401 77.6378 32 79.7656 32 82.3806C32 84.9895 34.134 87.1234 36.7428 87.1234ZM36.7428 86.0996C34.7075 86.0996 33.0238 84.4159 33.0238 82.3806C33.0238 80.3454 34.7075 78.6616 36.7428 78.6616C38.7781 78.6616 40.4618 80.3454 40.4618 82.3806C40.4618 84.4159 38.7781 86.0996 36.7428 86.0996Z" fill="#454267"/>
<path d="M52.1235 88.2097C54.1094 88.2097 55.4107 87.1736 55.4107 85.5083V85.5022C55.4107 84.2193 54.6768 83.4731 52.8204 83.0598L51.8336 82.8378C50.6248 82.5726 50.1375 82.0915 50.1375 81.3823V81.3761C50.1375 80.4448 50.9948 79.9206 52.105 79.9144C53.2645 79.9082 54.0046 80.488 54.1279 81.2713L54.1402 81.3514H55.2504L55.2442 81.2651C55.1517 79.9391 53.912 78.8906 52.1358 78.8906C50.2979 78.8906 49.0089 79.9329 49.0027 81.4069V81.4131C49.0027 82.7021 49.7737 83.5224 51.5561 83.9171L52.5429 84.133C53.764 84.4043 54.2759 84.9101 54.2759 85.6502V85.6563C54.2759 86.563 53.394 87.1859 52.1851 87.1859C50.9023 87.1859 49.9772 86.6246 49.897 85.7365L49.8908 85.6687H48.7807L48.7869 85.7365C48.9164 87.1859 50.1745 88.2097 52.1235 88.2097ZM59.5359 88.1172C61.1024 88.1172 62.0522 87.2291 62.2804 86.3286L62.2927 86.2793H61.2196L61.1949 86.3348C61.0161 86.7357 60.461 87.1612 59.5605 87.1612C58.3764 87.1612 57.6178 86.3594 57.5869 84.9841H62.3729V84.5647C62.3729 82.5788 61.2751 81.2343 59.468 81.2343C57.6609 81.2343 56.4891 82.6404 56.4891 84.6942V84.7004C56.4891 86.785 57.6363 88.1172 59.5359 88.1172ZM59.4619 82.1902C60.4425 82.1902 61.1703 82.8131 61.2813 84.1268H57.6054C57.7226 82.8625 58.4751 82.1902 59.4619 82.1902ZM65.5606 88.1172C66.4549 88.1172 67.1518 87.7286 67.5712 87.0194H67.6699V88H68.743V83.4484C68.743 82.0669 67.8364 81.2343 66.2143 81.2343C64.7958 81.2343 63.7843 81.9373 63.6116 82.9797L63.6055 83.0167H64.6786L64.6848 82.9982C64.8575 82.4801 65.3817 82.184 66.1773 82.184C67.1703 82.184 67.6699 82.6281 67.6699 83.4484V84.0528L65.7641 84.17C64.2161 84.2625 63.3403 84.9471 63.3403 86.1312V86.1436C63.3403 87.3524 64.2962 88.1172 65.5606 88.1172ZM64.4381 86.1189V86.1066C64.4381 85.4467 64.8822 85.0889 65.8936 85.0273L67.6699 84.9162V85.5207C67.6699 86.4705 66.8743 87.1859 65.7826 87.1859C65.0117 87.1859 64.4381 86.7912 64.4381 86.1189ZM70.4011 88H71.4743V83.8801C71.4743 82.9056 72.202 82.2581 73.2258 82.2581C73.4602 82.2581 73.6637 82.2827 73.8858 82.3197V81.2774C73.7809 81.2589 73.5527 81.2343 73.3492 81.2343C72.4487 81.2343 71.8258 81.6413 71.573 82.3382H71.4743V81.3514H70.4011V88ZM77.4435 88.1172C79.0409 88.1172 79.9352 87.2599 80.2065 86.0572L80.2189 85.9894L79.158 85.9956L79.1457 86.0326C78.899 86.7727 78.3316 87.1674 77.4373 87.1674C76.2532 87.1674 75.4884 86.1868 75.4884 84.6572V84.6449C75.4884 83.1462 76.2408 82.184 77.4373 82.184C78.3933 82.184 78.9854 82.7145 79.1519 83.3682L79.158 83.3867H80.225L80.2189 83.3497C80.0215 82.1655 79.0532 81.2343 77.4373 81.2343C75.5747 81.2343 74.3906 82.5788 74.3906 84.6449V84.6572C74.3906 86.7665 75.5809 88.1172 77.4435 88.1172ZM81.5501 88H82.6232V84.0651C82.6232 82.8995 83.2955 82.184 84.3563 82.184C85.4171 82.184 85.9105 82.7576 85.9105 83.9541V88H86.9837V83.6951C86.9837 82.1162 86.1511 81.2343 84.6585 81.2343C83.6779 81.2343 83.055 81.6475 82.7219 82.3506H82.6232V78.7117H81.5501V88ZM94.5925 88.1172C96.1899 88.1172 97.0842 87.2599 97.3555 86.0572L97.3679 85.9894L96.3071 85.9956L96.2947 86.0326C96.048 86.7727 95.4806 87.1674 94.5863 87.1674C93.4022 87.1674 92.6374 86.1868 92.6374 84.6572V84.6449C92.6374 83.1462 93.3898 82.184 94.5863 82.184C95.5423 82.184 96.1344 82.7145 96.3009 83.3682L96.3071 83.3867H97.374L97.3679 83.3497C97.1705 82.1655 96.2022 81.2343 94.5863 81.2343C92.7237 81.2343 91.5396 82.5788 91.5396 84.6449V84.6572C91.5396 86.7665 92.7299 88.1172 94.5925 88.1172ZM101.37 88.1172C103.263 88.1172 104.435 86.8097 104.435 84.6819V84.6695C104.435 82.5356 103.263 81.2343 101.37 81.2343C99.4762 81.2343 98.3044 82.5356 98.3044 84.6695V84.6819C98.3044 86.8097 99.4762 88.1172 101.37 88.1172ZM101.37 87.1674C100.111 87.1674 99.4022 86.2484 99.4022 84.6819V84.6695C99.4022 83.0968 100.111 82.184 101.37 82.184C102.628 82.184 103.337 83.0968 103.337 84.6695V84.6819C103.337 86.2484 102.628 87.1674 101.37 87.1674ZM108.023 88.1172C108.998 88.1172 109.67 87.7163 109.997 87.007H110.096V88H111.169V81.3514H110.096V85.2863C110.096 86.452 109.473 87.1674 108.301 87.1674C107.24 87.1674 106.808 86.5938 106.808 85.3973V81.3514H105.735V85.6563C105.735 87.2291 106.512 88.1172 108.023 88.1172ZM112.87 88H113.943V84.0651C113.943 82.8995 114.616 82.184 115.676 82.184C116.737 82.184 117.231 82.7576 117.231 83.9541V88H118.304V83.6951C118.304 82.1162 117.471 81.2343 115.979 81.2343C114.998 81.2343 114.375 81.6475 114.042 82.3506H113.943V81.3514H112.87V88ZM122.305 88.0493C122.515 88.0493 122.719 88.0247 122.928 87.9877V87.0749C122.731 87.0934 122.626 87.0995 122.435 87.0995C121.744 87.0995 121.473 86.785 121.473 86.0017V82.2396H122.928V81.3514H121.473V79.6307H120.363V81.3514H119.314V82.2396H120.363V86.2731C120.363 87.5436 120.936 88.0493 122.305 88.0493ZM124.229 88H125.302V83.8801C125.302 82.9056 126.03 82.2581 127.054 82.2581C127.288 82.2581 127.491 82.2827 127.713 82.3197V81.2774C127.609 81.2589 127.38 81.2343 127.177 81.2343C126.276 81.2343 125.654 81.6413 125.401 82.3382H125.302V81.3514H124.229V88ZM129.365 90.3313C130.543 90.3313 131.092 89.8996 131.641 88.4071L134.238 81.3514H133.109L131.29 86.822H131.191L129.365 81.3514H128.218L130.679 88.0062L130.556 88.4009C130.315 89.1657 129.945 89.4432 129.335 89.4432C129.187 89.4432 129.02 89.437 128.891 89.4124V90.2943C129.039 90.319 129.224 90.3313 129.365 90.3313Z" fill="#454267"/>
<g clip-path="url(#clip5_2_1454)">
<rect x="24" y="107.598" width="48" height="23" rx="11.5" fill="white" fill-opacity="0.1"/>
<path d="M35 115.348H36.125V114.598H35V115.348ZM36.875 116.098V117.223H37.625V116.098H36.875ZM36.125 117.973H35V118.723H36.125V117.973ZM34.25 117.223V116.098H33.5V117.223H34.25ZM35 117.973C34.5858 117.973 34.25 117.637 34.25 117.223H33.5C33.5 118.052 34.1716 118.723 35 118.723V117.973ZM36.875 117.223C36.875 117.637 36.5392 117.973 36.125 117.973V118.723C36.9534 118.723 37.625 118.052 37.625 117.223H36.875ZM36.125 115.348C36.5392 115.348 36.875 115.684 36.875 116.098H37.625C37.625 115.27 36.9534 114.598 36.125 114.598V115.348ZM35 114.598C34.1716 114.598 33.5 115.27 33.5 116.098H34.25C34.25 115.684 34.5858 115.348 35 115.348V114.598ZM35 120.223H36.125V119.473H35V120.223ZM36.875 120.973V122.098H37.625V120.973H36.875ZM36.125 122.848H35V123.598H36.125V122.848ZM34.25 122.098V120.973H33.5V122.098H34.25ZM35 122.848C34.5858 122.848 34.25 122.512 34.25 122.098H33.5C33.5 122.927 34.1716 123.598 35 123.598V122.848ZM36.875 122.098C36.875 122.512 36.5392 122.848 36.125 122.848V123.598C36.9534 123.598 37.625 122.927 37.625 122.098H36.875ZM36.125 120.223C36.5392 120.223 36.875 120.559 36.875 120.973H37.625C37.625 120.145 36.9534 119.473 36.125 119.473V120.223ZM35 119.473C34.1716 119.473 33.5 120.145 33.5 120.973H34.25C34.25 120.559 34.5858 120.223 35 120.223V119.473ZM39.875 115.348H41V114.598H39.875V115.348ZM41.75 116.098V117.223H42.5V116.098H41.75ZM41 117.973H39.875V118.723H41V117.973ZM39.125 117.223V116.098H38.375V117.223H39.125ZM39.875 117.973C39.4608 117.973 39.125 117.637 39.125 117.223H38.375C38.375 118.052 39.0466 118.723 39.875 118.723V117.973ZM41.75 117.223C41.75 117.637 41.4142 117.973 41 117.973V118.723C41.8284 118.723 42.5 118.052 42.5 117.223H41.75ZM41 115.348C41.4142 115.348 41.75 115.684 41.75 116.098H42.5C42.5 115.27 41.8284 114.598 41 114.598V115.348ZM39.875 114.598C39.0466 114.598 38.375 115.27 38.375 116.098H39.125C39.125 115.684 39.4608 115.348 39.875 115.348V114.598ZM39.875 120.223H41V119.473H39.875V120.223ZM41.75 120.973V122.098H42.5V120.973H41.75ZM41 122.848H39.875V123.598H41V122.848ZM39.125 122.098V120.973H38.375V122.098H39.125ZM39.875 122.848C39.4608 122.848 39.125 122.512 39.125 122.098H38.375C38.375 122.927 39.0466 123.598 39.875 123.598V122.848ZM41.75 122.098C41.75 122.512 41.4142 122.848 41 122.848V123.598C41.8284 123.598 42.5 122.927 42.5 122.098H41.75ZM41 120.223C41.4142 120.223 41.75 120.559 41.75 120.973H42.5C42.5 120.145 41.8284 119.473 41 119.473V120.223ZM39.875 119.473C39.0466 119.473 38.375 120.145 38.375 120.973H39.125C39.125 120.559 39.4608 120.223 39.875 120.223V119.473Z" fill="white"/>
<path d="M47.4256 123.598H48.5912L49.4855 121.051H53.0256L53.9199 123.598H55.0856L51.8045 114.698H50.7067L47.4256 123.598ZM51.2062 116.135H51.3049L52.6988 120.107H49.8124L51.2062 116.135ZM56.2688 123.598H57.342V114.31H56.2688V123.598ZM59.1604 123.598H60.2336V114.31H59.1604V123.598Z" fill="white"/>
<rect x="25" y="108.598" width="46" height="21" rx="10.5" stroke="white" stroke-opacity="0.24" stroke-width="2"/>
<g opacity="0.8">
<rect x="74" y="107.598" width="84" height="23" rx="11.5" fill="white" fill-opacity="0.1"/>
<path d="M87.7404 114.848C87.8364 114.617 88.1637 114.617 88.2597 114.848L89.3227 117.403C89.3632 117.501 89.4548 117.567 89.5599 117.576L92.3191 117.797C92.5684 117.817 92.6695 118.128 92.4795 118.291L90.3774 120.091C90.2973 120.16 90.2623 120.268 90.2868 120.37L90.929 123.063C90.9871 123.306 90.7223 123.498 90.5088 123.368L88.1467 121.925C88.0566 121.87 87.9435 121.87 87.8534 121.925L85.4913 123.368C85.2778 123.498 85.013 123.306 85.0711 123.063L85.7133 120.37C85.7378 120.268 85.7028 120.16 85.6227 120.091L83.5206 118.291C83.3306 118.128 83.4317 117.817 83.681 117.797L86.4402 117.576C86.5453 117.567 86.6369 117.501 86.6774 117.403L87.7404 114.848Z" stroke="white" stroke-width="0.75" stroke-linecap="round" stroke-linejoin="round"/>
<path d="M98.1348 123.598H99.245V119.743H103.186V118.757H99.245V115.698H103.538V114.698H98.1348V123.598ZM107.638 123.715C109.205 123.715 110.154 122.827 110.383 121.927L110.395 121.877H109.322L109.297 121.933C109.118 122.334 108.563 122.759 107.663 122.759C106.479 122.759 105.72 121.958 105.689 120.582H110.475V120.163C110.475 118.177 109.377 116.832 107.57 116.832C105.763 116.832 104.591 118.239 104.591 120.292V120.299C104.591 122.383 105.738 123.715 107.638 123.715ZM107.564 117.788C108.545 117.788 109.272 118.411 109.383 119.725H105.708C105.825 118.461 106.577 117.788 107.564 117.788ZM113.663 123.715C114.557 123.715 115.254 123.327 115.673 122.618H115.772V123.598H116.845V119.047C116.845 117.665 115.939 116.832 114.316 116.832C112.898 116.832 111.886 117.535 111.714 118.578L111.708 118.615H112.781L112.787 118.596C112.96 118.078 113.484 117.782 114.279 117.782C115.272 117.782 115.772 118.226 115.772 119.047V119.651L113.866 119.768C112.318 119.861 111.442 120.545 111.442 121.729V121.742C111.442 122.951 112.398 123.715 113.663 123.715ZM112.54 121.717V121.705C112.54 121.045 112.984 120.687 113.996 120.625L115.772 120.514V121.119C115.772 122.069 114.976 122.784 113.885 122.784C113.114 122.784 112.54 122.389 112.54 121.717ZM120.865 123.647C121.075 123.647 121.279 123.623 121.488 123.586V122.673C121.291 122.692 121.186 122.698 120.995 122.698C120.304 122.698 120.033 122.383 120.033 121.6V117.838H121.488V116.95H120.033V115.229H118.923V116.95H117.874V117.838H118.923V121.871C118.923 123.142 119.496 123.647 120.865 123.647ZM125.015 123.715C125.99 123.715 126.662 123.314 126.989 122.605H127.087V123.598H128.161V116.95H127.087V120.884C127.087 122.05 126.465 122.766 125.293 122.766C124.232 122.766 123.8 122.192 123.8 120.995V116.95H122.727V121.254C122.727 122.827 123.504 123.715 125.015 123.715ZM129.862 123.598H130.935V119.478C130.935 118.504 131.663 117.856 132.687 117.856C132.921 117.856 133.125 117.881 133.347 117.918V116.876C133.242 116.857 133.014 116.832 132.81 116.832C131.91 116.832 131.287 117.239 131.034 117.936H130.935V116.95H129.862V123.598ZM136.898 123.715C138.465 123.715 139.414 122.827 139.643 121.927L139.655 121.877H138.582L138.557 121.933C138.378 122.334 137.823 122.759 136.923 122.759C135.739 122.759 134.98 121.958 134.949 120.582H139.735V120.163C139.735 118.177 138.637 116.832 136.83 116.832C135.023 116.832 133.851 118.239 133.851 120.292V120.299C133.851 122.383 134.999 123.715 136.898 123.715ZM136.824 117.788C137.805 117.788 138.532 118.411 138.644 119.725H134.968C135.085 118.461 135.837 117.788 136.824 117.788ZM143.552 123.715C144.477 123.715 145.217 123.277 145.624 122.537H145.723V123.598H146.796V114.31H145.723V117.998H145.624C145.26 117.289 144.465 116.832 143.552 116.832C141.862 116.832 140.764 118.183 140.764 120.268V120.28C140.764 122.352 141.868 123.715 143.552 123.715ZM143.799 122.766C142.584 122.766 141.862 121.828 141.862 120.28V120.268C141.862 118.72 142.584 117.782 143.799 117.782C145.007 117.782 145.748 118.732 145.748 120.268V120.28C145.748 121.816 145.007 122.766 143.799 122.766Z" fill="white"/>
</g>
<g opacity="0.8">
<rect x="160" y="107.598" width="117" height="23" rx="11.5" fill="white" fill-opacity="0.1"/>
<g clip-path="url(#clip6_2_1454)">
<path d="M172.5 122.473L172.139 122.576C172.185 122.737 172.333 122.848 172.5 122.848C172.667 122.848 172.815 122.737 172.861 122.576L172.5 122.473ZM172.907 121.05L173.267 121.153V121.153L172.907 121.05ZM174.452 119.505L174.349 119.144L174.452 119.505ZM175.875 119.098L175.978 119.459C176.139 119.413 176.25 119.266 176.25 119.098C176.25 118.931 176.139 118.784 175.978 118.738L175.875 119.098ZM174.452 118.692L174.555 118.331H174.555L174.452 118.692ZM172.907 117.146L172.546 117.249L172.907 117.146ZM172.5 115.723L172.861 115.62C172.815 115.459 172.667 115.348 172.5 115.348C172.333 115.348 172.185 115.459 172.139 115.62L172.5 115.723ZM172.093 117.146L171.733 117.043L172.093 117.146ZM170.548 118.692L170.651 119.052H170.651L170.548 118.692ZM169.125 119.098L169.022 118.738C168.861 118.784 168.75 118.931 168.75 119.098C168.75 119.266 168.861 119.413 169.022 119.459L169.125 119.098ZM170.548 119.505L170.445 119.865H170.445L170.548 119.505ZM172.093 121.05L172.454 120.947V120.947L172.093 121.05ZM177 117.973L176.636 118.064C176.678 118.231 176.828 118.348 177 118.348C177.172 118.348 177.322 118.231 177.364 118.064L177 117.973ZM177.129 117.455L176.766 117.364L177.129 117.455ZM178.875 116.098L178.966 116.462C179.133 116.42 179.25 116.27 179.25 116.098C179.25 115.926 179.133 115.776 178.966 115.734L178.875 116.098ZM177 114.223L177.364 114.132C177.322 113.965 177.172 113.848 177 113.848C176.828 113.848 176.678 113.965 176.636 114.132L177 114.223ZM176.871 114.741L177.234 114.832V114.832L176.871 114.741ZM175.125 116.098L175.034 115.734C174.867 115.776 174.75 115.926 174.75 116.098C174.75 116.27 174.867 116.42 175.034 116.462L175.125 116.098ZM176.25 123.973L175.894 124.092C175.945 124.245 176.089 124.348 176.25 124.348C176.411 124.348 176.555 124.245 176.606 124.092L176.25 123.973ZM176.447 123.382L176.091 123.263V123.263L176.447 123.382ZM177.159 122.67L177.04 122.315L177.159 122.67ZM177.75 122.473L177.869 122.829C178.022 122.778 178.125 122.635 178.125 122.473C178.125 122.312 178.022 122.168 177.869 122.117L177.75 122.473ZM177.159 122.276L177.04 122.632L177.159 122.276ZM176.447 121.565L176.091 121.683L176.447 121.565ZM176.25 120.973L176.606 120.855C176.555 120.701 176.411 120.598 176.25 120.598C176.089 120.598 175.945 120.701 175.894 120.855L176.25 120.973ZM176.053 121.565L176.409 121.683L176.053 121.565ZM175.341 122.276L175.46 122.632L175.341 122.276ZM174.75 122.473L174.631 122.117C174.478 122.168 174.375 122.312 174.375 122.473C174.375 122.635 174.478 122.778 174.631 122.829L174.75 122.473ZM175.341 122.67L175.46 122.315L175.341 122.67ZM176.053 123.382L176.409 123.263V123.263L176.053 123.382ZM172.861 122.576L173.267 121.153L172.546 120.947L172.139 122.37L172.861 122.576ZM174.555 119.865L175.978 119.459L175.772 118.738L174.349 119.144L174.555 119.865ZM175.978 118.738L174.555 118.331L174.349 119.052L175.772 119.459L175.978 118.738ZM173.267 117.043L172.861 115.62L172.139 115.826L172.546 117.249L173.267 117.043ZM172.139 115.62L171.733 117.043L172.454 117.249L172.861 115.826L172.139 115.62ZM170.445 118.331L169.022 118.738L169.228 119.459L170.651 119.052L170.445 118.331ZM169.022 119.459L170.445 119.865L170.651 119.144L169.228 118.738L169.022 119.459ZM171.733 121.153L172.139 122.576L172.861 122.37L172.454 120.947L171.733 121.153ZM170.445 119.865C171.068 120.043 171.555 120.53 171.733 121.153L172.454 120.947C172.205 120.075 171.523 119.393 170.651 119.144L170.445 119.865ZM171.733 117.043C171.555 117.666 171.068 118.153 170.445 118.331L170.651 119.052C171.523 118.803 172.205 118.121 172.454 117.249L171.733 117.043ZM174.555 118.331C173.932 118.153 173.445 117.666 173.267 117.043L172.546 117.249C172.795 118.121 173.477 118.803 174.349 119.052L174.555 118.331ZM173.267 121.153C173.445 120.53 173.932 120.043 174.555 119.865L174.349 119.144C173.477 119.393 172.795 120.075 172.546 120.947L173.267 121.153ZM177.364 118.064L177.493 117.546L176.766 117.364L176.636 117.882L177.364 118.064ZM178.448 116.591L178.966 116.462L178.784 115.734L178.266 115.864L178.448 116.591ZM178.966 115.734L178.448 115.605L178.266 116.333L178.784 116.462L178.966 115.734ZM177.493 114.65L177.364 114.132L176.636 114.314L176.766 114.832L177.493 114.65ZM176.636 114.132L176.507 114.65L177.234 114.832L177.364 114.314L176.636 114.132ZM175.552 115.605L175.034 115.734L175.216 116.462L175.734 116.333L175.552 115.605ZM175.034 116.462L175.552 116.591L175.734 115.864L175.216 115.734L175.034 116.462ZM176.507 117.546L176.636 118.064L177.364 117.882L177.234 117.364L176.507 117.546ZM175.552 116.591C176.022 116.709 176.389 117.076 176.507 117.546L177.234 117.364C177.05 116.625 176.473 116.049 175.734 115.864L175.552 116.591ZM176.507 114.65C176.389 115.12 176.022 115.487 175.552 115.605L175.734 116.333C176.473 116.148 177.05 115.571 177.234 114.832L176.507 114.65ZM178.448 115.605C177.978 115.487 177.611 115.12 177.493 114.65L176.766 114.832C176.95 115.571 177.527 116.148 178.266 116.333L178.448 115.605ZM177.493 117.546C177.611 117.076 177.978 116.709 178.448 116.591L178.266 115.864C177.527 116.049 176.95 116.625 176.766 117.364L177.493 117.546ZM176.606 124.092L176.803 123.5L176.091 123.263L175.894 123.855L176.606 124.092ZM177.277 123.026L177.869 122.829L177.631 122.117L177.04 122.315L177.277 123.026ZM177.869 122.117L177.277 121.92L177.04 122.632L177.631 122.829L177.869 122.117ZM176.803 121.446L176.606 120.855L175.894 121.092L176.091 121.683L176.803 121.446ZM175.894 120.855L175.697 121.446L176.409 121.683L176.606 121.092L175.894 120.855ZM175.223 121.92L174.631 122.117L174.869 122.829L175.46 122.632L175.223 121.92ZM174.631 122.829L175.223 123.026L175.46 122.315L174.869 122.117L174.631 122.829ZM175.697 123.5L175.894 124.092L176.606 123.855L176.409 123.263L175.697 123.5ZM175.223 123.026C175.447 123.101 175.622 123.276 175.697 123.5L176.409 123.263C176.259 122.815 175.908 122.464 175.46 122.315L175.223 123.026ZM175.697 121.446C175.622 121.67 175.447 121.846 175.223 121.92L175.46 122.632C175.908 122.482 176.259 122.131 176.409 121.683L175.697 121.446ZM177.277 121.92C177.053 121.846 176.878 121.67 176.803 121.446L176.091 121.683C176.241 122.131 176.592 122.482 177.04 122.632L177.277 121.92ZM176.803 123.5C176.878 123.276 177.053 123.101 177.277 123.026L177.04 122.315C176.592 122.464 176.241 122.815 176.091 123.263L176.803 123.5Z" fill="white"/>
</g>
<path d="M184.135 123.598H189.649V122.599H185.245V119.54H189.42V118.553H185.245V115.698H189.649V114.698H184.135V123.598ZM193.046 123.715C193.94 123.715 194.637 123.327 195.057 122.618H195.155V123.598H196.228V119.047C196.228 117.665 195.322 116.832 193.7 116.832C192.281 116.832 191.27 117.535 191.097 118.578L191.091 118.615H192.164L192.17 118.596C192.343 118.078 192.867 117.782 193.663 117.782C194.656 117.782 195.155 118.226 195.155 119.047V119.651L193.249 119.768C191.701 119.861 190.826 120.545 190.826 121.729V121.742C190.826 122.951 191.782 123.715 193.046 123.715ZM191.923 121.717V121.705C191.923 121.045 192.367 120.687 193.379 120.625L195.155 120.514V121.119C195.155 122.069 194.36 122.784 193.268 122.784C192.497 122.784 191.923 122.389 191.923 121.717ZM200.168 123.715C201.679 123.715 202.833 122.895 202.833 121.711V121.699C202.833 120.749 202.228 120.206 200.976 119.904L199.953 119.657C199.169 119.466 198.836 119.182 198.836 118.732V118.72C198.836 118.134 199.416 117.727 200.205 117.727C201.007 117.727 201.525 118.091 201.667 118.615H202.722C202.574 117.529 201.605 116.832 200.212 116.832C198.799 116.832 197.738 117.665 197.738 118.769V118.775C197.738 119.731 198.3 120.274 199.546 120.57L200.576 120.817C201.396 121.014 201.735 121.329 201.735 121.779V121.791C201.735 122.395 201.1 122.821 200.205 122.821C199.354 122.821 198.824 122.457 198.645 121.902H197.547C197.671 123 198.688 123.715 200.168 123.715ZM204.762 115.667C205.169 115.667 205.502 115.334 205.502 114.927C205.502 114.52 205.169 114.187 204.762 114.187C204.355 114.187 204.022 114.52 204.022 114.927C204.022 115.334 204.355 115.667 204.762 115.667ZM204.22 123.598H205.293V116.95H204.22V123.598ZM209.726 123.715C211.293 123.715 212.243 122.827 212.471 121.927L212.483 121.877H211.41L211.385 121.933C211.206 122.334 210.651 122.759 209.751 122.759C208.567 122.759 207.808 121.958 207.777 120.582H212.563V120.163C212.563 118.177 211.465 116.832 209.658 116.832C207.851 116.832 206.679 118.239 206.679 120.292V120.299C206.679 122.383 207.827 123.715 209.726 123.715ZM209.652 117.788C210.633 117.788 211.361 118.411 211.472 119.725H207.796C207.913 118.461 208.665 117.788 209.652 117.788ZM213.925 123.598H214.998V119.478C214.998 118.504 215.726 117.856 216.75 117.856C216.984 117.856 217.188 117.881 217.41 117.918V116.876C217.305 116.857 217.077 116.832 216.873 116.832C215.973 116.832 215.35 117.239 215.097 117.936H214.998V116.95H213.925V123.598ZM224.044 123.647C224.254 123.647 224.458 123.623 224.667 123.586V122.673C224.47 122.692 224.365 122.698 224.174 122.698C223.483 122.698 223.212 122.383 223.212 121.6V117.838H224.667V116.95H223.212V115.229H222.102V116.95H221.053V117.838H222.102V121.871C222.102 123.142 222.675 123.647 224.044 123.647ZM228.601 123.715C230.495 123.715 231.666 122.408 231.666 120.28V120.268C231.666 118.134 230.495 116.832 228.601 116.832C226.708 116.832 225.536 118.134 225.536 120.268V120.28C225.536 122.408 226.708 123.715 228.601 123.715ZM228.601 122.766C227.343 122.766 226.634 121.847 226.634 120.28V120.268C226.634 118.695 227.343 117.782 228.601 117.782C229.859 117.782 230.569 118.695 230.569 120.268V120.28C230.569 121.847 229.859 122.766 228.601 122.766ZM236.278 123.598H237.351V119.478C237.351 118.541 238.011 117.782 238.881 117.782C239.719 117.782 240.262 118.294 240.262 119.084V123.598H241.335V119.324C241.335 118.479 241.946 117.782 242.871 117.782C243.808 117.782 244.259 118.269 244.259 119.25V123.598H245.332V119.003C245.332 117.61 244.573 116.832 243.216 116.832C242.297 116.832 241.539 117.295 241.181 117.998H241.082C240.774 117.307 240.145 116.832 239.244 116.832C238.375 116.832 237.746 117.246 237.45 117.961H237.351V116.95H236.278V123.598ZM249.697 123.715C251.591 123.715 252.763 122.408 252.763 120.28V120.268C252.763 118.134 251.591 116.832 249.697 116.832C247.804 116.832 246.632 118.134 246.632 120.268V120.28C246.632 122.408 247.804 123.715 249.697 123.715ZM249.697 122.766C248.439 122.766 247.73 121.847 247.73 120.28V120.268C247.73 118.695 248.439 117.782 249.697 117.782C250.956 117.782 251.665 118.695 251.665 120.268V120.28C251.665 121.847 250.956 122.766 249.697 122.766ZM255.759 123.598H256.845L259.305 116.95H258.171L256.351 122.426H256.253L254.433 116.95H253.298L255.759 123.598ZM262.888 123.715C264.454 123.715 265.404 122.827 265.632 121.927L265.645 121.877H264.572L264.547 121.933C264.368 122.334 263.813 122.759 262.912 122.759C261.728 122.759 260.97 121.958 260.939 120.582H265.725V120.163C265.725 118.177 264.627 116.832 262.82 116.832C261.013 116.832 259.841 118.239 259.841 120.292V120.299C259.841 122.383 260.988 123.715 262.888 123.715ZM262.814 117.788C263.794 117.788 264.522 118.411 264.633 119.725H260.957C261.075 118.461 261.827 117.788 262.814 117.788Z" fill="white"/>
</g>
<g opacity="0.8">
<rect x="279" y="107.598" width="117" height="23" rx="11.5" fill="white" fill-opacity="0.1"/>
<g clip-path="url(#clip7_2_1454)">
<path d="M291.5 122.473L291.139 122.576C291.185 122.737 291.333 122.848 291.5 122.848C291.667 122.848 291.815 122.737 291.861 122.576L291.5 122.473ZM291.907 121.05L292.267 121.153V121.153L291.907 121.05ZM293.452 119.505L293.349 119.144L293.452 119.505ZM294.875 119.098L294.978 119.459C295.139 119.413 295.25 119.266 295.25 119.098C295.25 118.931 295.139 118.784 294.978 118.738L294.875 119.098ZM293.452 118.692L293.555 118.331H293.555L293.452 118.692ZM291.907 117.146L291.546 117.249L291.907 117.146ZM291.5 115.723L291.861 115.62C291.815 115.459 291.667 115.348 291.5 115.348C291.333 115.348 291.185 115.459 291.139 115.62L291.5 115.723ZM291.093 117.146L290.733 117.043L291.093 117.146ZM289.548 118.692L289.651 119.052H289.651L289.548 118.692ZM288.125 119.098L288.022 118.738C287.861 118.784 287.75 118.931 287.75 119.098C287.75 119.266 287.861 119.413 288.022 119.459L288.125 119.098ZM289.548 119.505L289.445 119.865H289.445L289.548 119.505ZM291.093 121.05L291.454 120.947V120.947L291.093 121.05ZM296 117.973L295.636 118.064C295.678 118.231 295.828 118.348 296 118.348C296.172 118.348 296.322 118.231 296.364 118.064L296 117.973ZM296.129 117.455L295.766 117.364L296.129 117.455ZM297.875 116.098L297.966 116.462C298.133 116.42 298.25 116.27 298.25 116.098C298.25 115.926 298.133 115.776 297.966 115.734L297.875 116.098ZM296 114.223L296.364 114.132C296.322 113.965 296.172 113.848 296 113.848C295.828 113.848 295.678 113.965 295.636 114.132L296 114.223ZM295.871 114.741L296.234 114.832V114.832L295.871 114.741ZM294.125 116.098L294.034 115.734C293.867 115.776 293.75 115.926 293.75 116.098C293.75 116.27 293.867 116.42 294.034 116.462L294.125 116.098ZM295.25 123.973L294.894 124.092C294.945 124.245 295.089 124.348 295.25 124.348C295.411 124.348 295.555 124.245 295.606 124.092L295.25 123.973ZM295.447 123.382L295.091 123.263V123.263L295.447 123.382ZM296.159 122.67L296.04 122.315L296.159 122.67ZM296.75 122.473L296.869 122.829C297.022 122.778 297.125 122.635 297.125 122.473C297.125 122.312 297.022 122.168 296.869 122.117L296.75 122.473ZM296.159 122.276L296.04 122.632L296.159 122.276ZM295.447 121.565L295.091 121.683L295.447 121.565ZM295.25 120.973L295.606 120.855C295.555 120.701 295.411 120.598 295.25 120.598C295.089 120.598 294.945 120.701 294.894 120.855L295.25 120.973ZM295.053 121.565L295.409 121.683L295.053 121.565ZM294.341 122.276L294.46 122.632L294.341 122.276ZM293.75 122.473L293.631 122.117C293.478 122.168 293.375 122.312 293.375 122.473C293.375 122.635 293.478 122.778 293.631 122.829L293.75 122.473ZM294.341 122.67L294.46 122.315L294.341 122.67ZM295.053 123.382L295.409 123.263V123.263L295.053 123.382ZM291.861 122.576L292.267 121.153L291.546 120.947L291.139 122.37L291.861 122.576ZM293.555 119.865L294.978 119.459L294.772 118.738L293.349 119.144L293.555 119.865ZM294.978 118.738L293.555 118.331L293.349 119.052L294.772 119.459L294.978 118.738ZM292.267 117.043L291.861 115.62L291.139 115.826L291.546 117.249L292.267 117.043ZM291.139 115.62L290.733 117.043L291.454 117.249L291.861 115.826L291.139 115.62ZM289.445 118.331L288.022 118.738L288.228 119.459L289.651 119.052L289.445 118.331ZM288.022 119.459L289.445 119.865L289.651 119.144L288.228 118.738L288.022 119.459ZM290.733 121.153L291.139 122.576L291.861 122.37L291.454 120.947L290.733 121.153ZM289.445 119.865C290.068 120.043 290.555 120.53 290.733 121.153L291.454 120.947C291.205 120.075 290.523 119.393 289.651 119.144L289.445 119.865ZM290.733 117.043C290.555 117.666 290.068 118.153 289.445 118.331L289.651 119.052C290.523 118.803 291.205 118.121 291.454 117.249L290.733 117.043ZM293.555 118.331C292.932 118.153 292.445 117.666 292.267 117.043L291.546 117.249C291.795 118.121 292.477 118.803 293.349 119.052L293.555 118.331ZM292.267 121.153C292.445 120.53 292.932 120.043 293.555 119.865L293.349 119.144C292.477 119.393 291.795 120.075 291.546 120.947L292.267 121.153ZM296.364 118.064L296.493 117.546L295.766 117.364L295.636 117.882L296.364 118.064ZM297.448 116.591L297.966 116.462L297.784 115.734L297.266 115.864L297.448 116.591ZM297.966 115.734L297.448 115.605L297.266 116.333L297.784 116.462L297.966 115.734ZM296.493 114.65L296.364 114.132L295.636 114.314L295.766 114.832L296.493 114.65ZM295.636 114.132L295.507 114.65L296.234 114.832L296.364 114.314L295.636 114.132ZM294.552 115.605L294.034 115.734L294.216 116.462L294.734 116.333L294.552 115.605ZM294.034 116.462L294.552 116.591L294.734 115.864L294.216 115.734L294.034 116.462ZM295.507 117.546L295.636 118.064L296.364 117.882L296.234 117.364L295.507 117.546ZM294.552 116.591C295.022 116.709 295.389 117.076 295.507 117.546L296.234 117.364C296.05 116.625 295.473 116.049 294.734 115.864L294.552 116.591ZM295.507 114.65C295.389 115.12 295.022 115.487 294.552 115.605L294.734 116.333C295.473 116.148 296.05 115.571 296.234 114.832L295.507 114.65ZM297.448 115.605C296.978 115.487 296.611 115.12 296.493 114.65L295.766 114.832C295.95 115.571 296.527 116.148 297.266 116.333L297.448 115.605ZM296.493 117.546C296.611 117.076 296.978 116.709 297.448 116.591L297.266 115.864C296.527 116.049 295.95 116.625 295.766 117.364L296.493 117.546ZM295.606 124.092L295.803 123.5L295.091 123.263L294.894 123.855L295.606 124.092ZM296.277 123.026L296.869 122.829L296.631 122.117L296.04 122.315L296.277 123.026ZM296.869 122.117L296.277 121.92L296.04 122.632L296.631 122.829L296.869 122.117ZM295.803 121.446L295.606 120.855L294.894 121.092L295.091 121.683L295.803 121.446ZM294.894 120.855L294.697 121.446L295.409 121.683L295.606 121.092L294.894 120.855ZM294.223 121.92L293.631 122.117L293.869 122.829L294.46 122.632L294.223 121.92ZM293.631 122.829L294.223 123.026L294.46 122.315L293.869 122.117L293.631 122.829ZM294.697 123.5L294.894 124.092L295.606 123.855L295.409 123.263L294.697 123.5ZM294.223 123.026C294.447 123.101 294.622 123.276 294.697 123.5L295.409 123.263C295.259 122.815 294.908 122.464 294.46 122.315L294.223 123.026ZM294.697 121.446C294.622 121.67 294.447 121.846 294.223 121.92L294.46 122.632C294.908 122.482 295.259 122.131 295.409 121.683L294.697 121.446ZM296.277 121.92C296.053 121.846 295.878 121.67 295.803 121.446L295.091 121.683C295.241 122.131 295.592 122.482 296.04 122.632L296.277 121.92ZM295.803 123.5C295.878 123.276 296.053 123.101 296.277 123.026L296.04 122.315C295.592 122.464 295.241 122.815 295.091 123.263L295.803 123.5Z" fill="white"/>
</g>
</g>
</g>
<path d="M258 107.598H300V130.598H258V107.598Z" fill="url(#paint9_linear_2_1454)"/>
<path d="M24 165.4C24 157.559 24 153.639 25.5259 150.644C26.8681 148.01 29.0099 145.868 31.6441 144.526C34.6389 143 38.5593 143 46.4 143H277.6C285.441 143 289.361 143 292.356 144.526C294.99 145.868 297.132 148.01 298.474 150.644C300 153.639 300 157.559 300 165.4V343H24V165.4Z" fill="white" fill-opacity="0.79"/>
<rect x="32" y="151" width="260" height="184" rx="8" fill="white" fill-opacity="0.8"/>
<g clip-path="url(#clip8_2_1454)">
<mask id="mask0_2_1454" style="mask-type:alpha" maskUnits="userSpaceOnUse" x="44" y="165" width="21" height="15">
<path d="M63 165H46C44.8954 165 44 165.895 44 167V178C44 179.105 44.8954 180 46 180H63C64.1046 180 65 179.105 65 178V167C65 165.895 64.1046 165 63 165Z" fill="white"/>
</mask>
<g mask="url(#mask0_2_1454)">
<path d="M63 165H46C44.8954 165 44 165.895 44 167V178C44 179.105 44.8954 180 46 180H63C64.1046 180 65 179.105 65 178V167C65 165.895 64.1046 165 63 165Z" fill="white"/>
<path fill-rule="evenodd" clip-rule="evenodd" d="M44 165H53V172H44V165Z" fill="#444379"/>
<path fill-rule="evenodd" clip-rule="evenodd" d="M45 166V167H46V166H45ZM47 166V167H48V166H47ZM49 166V167H50V166H49ZM51 166V167H52V166H51ZM50 167V168H51V167H50ZM48 167V168H49V167H48ZM46 167V168H47V167H46ZM45 168V169H46V168H45ZM47 168V169H48V168H47ZM49 168V169H50V168H49ZM51 168V169H52V168H51ZM45 170V171H46V170H45ZM47 170V171H48V170H47ZM49 170V171H50V170H49ZM51 170V171H52V170H51ZM50 169V170H51V169H50ZM48 169V170H49V169H48ZM46 169V170H47V169H46Z" fill="#A7B6E7"/>
<path fill-rule="evenodd" clip-rule="evenodd" d="M53 165V166H65V165H53ZM53 167V168H65V167H53ZM53 169V170H65V169H53ZM53 171V172H65V171H53ZM44 173V174H65V173H44ZM44 175V176H65V175H44ZM44 177V178H65V177H44ZM44 179V180H65V179H44Z" fill="#ED4C49"/>
<path d="M63 165.5H46C45.1716 165.5 44.5 166.172 44.5 167V178C44.5 178.828 45.1716 179.5 46 179.5H63C63.8284 179.5 64.5 178.828 64.5 178V167C64.5 166.172 63.8284 165.5 63 165.5Z" stroke="black" stroke-opacity="0.1"/>
</g>
</g>
<path d="M75.749 176.222C78.0124 176.222 79.4063 174.896 79.4063 172.935V167.1H77.8151V172.805C77.8151 174.033 77.075 174.847 75.7551 174.847C74.4291 174.847 73.6829 174.033 73.6829 172.805V167.1H72.0916V172.935C72.0916 174.896 73.4978 176.222 75.749 176.222ZM81.1323 176H82.668V172.071C82.668 171.06 83.2354 170.418 84.1482 170.418C85.0795 170.418 85.505 170.949 85.505 171.997V176H87.0407V171.64C87.0407 170.036 86.2205 169.129 84.7156 169.129C83.7411 169.129 83.0935 169.567 82.7728 170.289H82.668V169.259H81.1323V176ZM89.3403 168.13C89.8398 168.13 90.2531 167.729 90.2531 167.224C90.2531 166.724 89.8398 166.317 89.3403 166.317C88.8345 166.317 88.4213 166.724 88.4213 167.224C88.4213 167.729 88.8345 168.13 89.3403 168.13ZM88.5693 176H90.105V169.259H88.5693V176ZM94.3412 176.031C94.6372 176.031 94.9209 176.006 95.143 175.963V174.779C94.9579 174.797 94.8407 174.804 94.6249 174.804C93.9835 174.804 93.7183 174.52 93.7183 173.848V170.449H95.143V169.259H93.7183V167.606H92.1579V169.259H91.1094V170.449H92.1579V174.211C92.1579 175.513 92.7931 176.031 94.3412 176.031ZM99.1941 176.136C101.026 176.136 101.926 175.081 102.142 174.211L102.161 174.156H100.699L100.68 174.199C100.532 174.507 100.058 174.927 99.2249 174.927C98.1826 174.927 97.5288 174.224 97.5103 173.015H102.222V172.509C102.222 170.474 101.038 169.129 99.1201 169.129C97.202 169.129 95.9746 170.517 95.9746 172.639V172.645C95.9746 174.791 97.1896 176.136 99.1941 176.136ZM99.1386 170.332C99.9958 170.332 100.619 170.881 100.724 171.985H97.5227C97.6399 170.912 98.2813 170.332 99.1386 170.332ZM105.885 176.111C106.835 176.111 107.562 175.679 107.932 174.945H108.037V176H109.579V166.65H108.037V170.332H107.932C107.581 169.604 106.81 169.148 105.885 169.148C104.176 169.148 103.122 170.48 103.122 172.626V172.639C103.122 174.773 104.195 176.111 105.885 176.111ZM106.366 174.816C105.317 174.816 104.682 173.996 104.682 172.639V172.626C104.682 171.27 105.324 170.443 106.366 170.443C107.408 170.443 108.062 171.276 108.062 172.626V172.639C108.062 173.989 107.414 174.816 106.366 174.816ZM117.521 176.222C119.655 176.222 120.993 175.137 120.993 173.403V173.397C120.993 172.053 120.21 171.3 118.335 170.906L117.379 170.702C116.269 170.468 115.819 170.073 115.819 169.444V169.438C115.819 168.679 116.522 168.217 117.509 168.217C118.526 168.21 119.186 168.704 119.297 169.395L119.31 169.469H120.833L120.827 169.388C120.716 167.958 119.489 166.878 117.515 166.878C115.591 166.878 114.221 167.951 114.221 169.543V169.549C114.221 170.875 115.011 171.726 116.83 172.108L117.786 172.306C118.933 172.552 119.396 172.941 119.396 173.582V173.589C119.396 174.353 118.644 174.884 117.57 174.884C116.442 174.884 115.646 174.39 115.572 173.644L115.566 173.582H114.024L114.03 173.669C114.141 175.204 115.455 176.222 117.521 176.222ZM124.97 176.031C125.267 176.031 125.55 176.006 125.772 175.963V174.779C125.587 174.797 125.47 174.804 125.254 174.804C124.613 174.804 124.348 174.52 124.348 173.848V170.449H125.772V169.259H124.348V167.606H122.787V169.259H121.739V170.449H122.787V174.211C122.787 175.513 123.422 176.031 124.97 176.031ZM128.837 176.111C129.725 176.111 130.44 175.729 130.81 175.075H130.915V176H132.432V171.393C132.432 169.968 131.458 169.129 129.725 169.129C128.121 169.129 127.036 169.882 126.888 171.017L126.881 171.072H128.331L128.337 171.047C128.491 170.603 128.948 170.351 129.651 170.351C130.477 170.351 130.915 170.721 130.915 171.393V171.973L129.182 172.077C127.541 172.176 126.622 172.879 126.622 174.082V174.094C126.622 175.322 127.554 176.111 128.837 176.111ZM128.14 174.02V174.008C128.14 173.453 128.541 173.138 129.398 173.083L130.915 172.984V173.527C130.915 174.329 130.23 174.933 129.305 174.933C128.627 174.933 128.14 174.594 128.14 174.02ZM136.625 176.031C136.921 176.031 137.205 176.006 137.427 175.963V174.779C137.242 174.797 137.125 174.804 136.909 174.804C136.267 174.804 136.002 174.52 136.002 173.848V170.449H137.427V169.259H136.002V167.606H134.442V169.259H133.393V170.449H134.442V174.211C134.442 175.513 135.077 176.031 136.625 176.031ZM141.478 176.136C143.31 176.136 144.21 175.081 144.426 174.211L144.445 174.156H142.983L142.964 174.199C142.816 174.507 142.342 174.927 141.509 174.927C140.467 174.927 139.813 174.224 139.794 173.015H144.506V172.509C144.506 170.474 143.322 169.129 141.404 169.129C139.486 169.129 138.259 170.517 138.259 172.639V172.645C138.259 174.791 139.474 176.136 141.478 176.136ZM141.423 170.332C142.28 170.332 142.903 170.881 143.008 171.985H139.807C139.924 170.912 140.565 170.332 141.423 170.332ZM148.286 176.136C149.945 176.136 151.148 175.278 151.148 173.996V173.983C151.148 173.003 150.525 172.441 149.205 172.145L148.113 171.905C147.386 171.738 147.102 171.498 147.102 171.103V171.097C147.102 170.591 147.595 170.258 148.28 170.258C149.001 170.258 149.446 170.603 149.557 171.029L149.563 171.047H151.006V171.035C150.907 169.944 149.927 169.129 148.286 169.129C146.695 169.129 145.585 169.968 145.585 171.183V171.189C145.585 172.182 146.195 172.787 147.478 173.07L148.57 173.317C149.31 173.484 149.606 173.743 149.606 174.137V174.15C149.606 174.655 149.075 175.001 148.311 175.001C147.546 175.001 147.096 174.674 146.935 174.205L146.929 174.193H145.406V174.205C145.535 175.346 146.571 176.136 148.286 176.136Z" fill="#454267"/>
<rect x="72" y="189" width="220" height="1" fill="#EAEAEA"/>
<g clip-path="url(#clip9_2_1454)">
<mask id="mask1_2_1454" style="mask-type:alpha" maskUnits="userSpaceOnUse" x="44" y="201" width="21" height="15">
<path d="M63 201H46C44.8954 201 44 201.895 44 203V214C44 215.105 44.8954 216 46 216H63C64.1046 216 65 215.105 65 214V203C65 201.895 64.1046 201 63 201Z" fill="white"/>
</mask>
<g mask="url(#mask1_2_1454)">
<path d="M63 201H46C44.8954 201 44 201.895 44 203V214C44 215.105 44.8954 216 46 216H63C64.1046 216 65 215.105 65 214V203C65 201.895 64.1046 201 63 201Z" fill="white"/>
<path fill-rule="evenodd" clip-rule="evenodd" d="M44 201H49V216H44V201ZM60 201H65V216H60V201ZM54.5 205L53.5 207L52 206V208L51 209L53 210H54V212H55V210H56L58 209L57 208V206L55.4 207L54.5 205Z" fill="#FF0000"/>
<path d="M63 201.5H46C45.1716 201.5 44.5 202.172 44.5 203V214C44.5 214.828 45.1716 215.5 46 215.5H63C63.8284 215.5 64.5 214.828 64.5 214V203C64.5 202.172 63.8284 201.5 63 201.5Z" stroke="black" stroke-opacity="0.1"/>
</g>
</g>
<path d="M75.8107 212.222C77.8644 212.222 79.3385 211.032 79.5728 209.249V209.206H78.0124L78.0063 209.237C77.7781 210.218 76.9393 210.847 75.8107 210.847C74.2934 210.847 73.3498 209.582 73.3498 207.553V207.541C73.3498 205.518 74.2934 204.254 75.8045 204.254C76.927 204.254 77.7781 204.951 78.0063 206.005L78.0124 206.03H79.5728V205.981C79.3631 204.161 77.8274 202.878 75.8045 202.878C73.282 202.878 71.7216 204.661 71.7216 207.547V207.559C71.7216 210.433 73.2881 212.222 75.8107 212.222ZM82.7235 212.111C83.6116 212.111 84.327 211.729 84.6971 211.075H84.8019V212H86.3191V207.393C86.3191 205.968 85.3447 205.129 83.6116 205.129C82.0081 205.129 80.9226 205.882 80.7746 207.017L80.7684 207.072H82.2177L82.2239 207.047C82.3781 206.603 82.8345 206.351 83.5376 206.351C84.364 206.351 84.8019 206.721 84.8019 207.393V207.973L83.0689 208.077C81.4283 208.176 80.5093 208.879 80.5093 210.082V210.094C80.5093 211.322 81.4406 212.111 82.7235 212.111ZM82.0266 210.02V210.008C82.0266 209.453 82.4274 209.138 83.2847 209.083L84.8019 208.984V209.527C84.8019 210.329 84.1173 210.933 83.1922 210.933C82.5138 210.933 82.0266 210.594 82.0266 210.02ZM87.8601 212H89.3958V208.071C89.3958 207.06 89.9632 206.418 90.876 206.418C91.8073 206.418 92.2328 206.949 92.2328 207.997V212H93.7685V207.64C93.7685 206.036 92.9483 205.129 91.4434 205.129C90.4689 205.129 89.8213 205.567 89.5006 206.289H89.3958V205.259H87.8601V212ZM97.1166 212.111C98.0047 212.111 98.7201 211.729 99.0902 211.075H99.195V212H100.712V207.393C100.712 205.968 99.7377 205.129 98.0047 205.129C96.4011 205.129 95.3156 205.882 95.1676 207.017L95.1615 207.072H96.6108L96.617 207.047C96.7712 206.603 97.2276 206.351 97.9307 206.351C98.7571 206.351 99.195 206.721 99.195 207.393V207.973L97.4619 208.077C95.8214 208.176 94.9024 208.879 94.9024 210.082V210.094C94.9024 211.322 95.8337 212.111 97.1166 212.111ZM96.4196 210.02V210.008C96.4196 209.453 96.8205 209.138 97.6778 209.083L99.195 208.984V209.527C99.195 210.329 98.5104 210.933 97.5853 210.933C96.9069 210.933 96.4196 210.594 96.4196 210.02ZM104.683 212.111C105.633 212.111 106.361 211.679 106.731 210.945H106.836V212H108.377V202.65H106.836V206.332H106.731C106.379 205.604 105.608 205.148 104.683 205.148C102.975 205.148 101.92 206.48 101.92 208.626V208.639C101.92 210.773 102.993 212.111 104.683 212.111ZM105.164 210.816C104.116 210.816 103.48 209.996 103.48 208.639V208.626C103.48 207.27 104.122 206.443 105.164 206.443C106.207 206.443 106.86 207.276 106.86 208.626V208.639C106.86 209.989 106.213 210.816 105.164 210.816ZM111.843 212.111C112.731 212.111 113.446 211.729 113.816 211.075H113.921V212H115.438V207.393C115.438 205.968 114.464 205.129 112.731 205.129C111.127 205.129 110.042 205.882 109.894 207.017L109.888 207.072H111.337L111.343 207.047C111.497 206.603 111.954 206.351 112.657 206.351C113.483 206.351 113.921 206.721 113.921 207.393V207.973L112.188 208.077C110.547 208.176 109.629 208.879 109.629 210.082V210.094C109.629 211.322 110.56 212.111 111.843 212.111ZM111.146 210.02V210.008C111.146 209.453 111.547 209.138 112.404 209.083L113.921 208.984V209.527C113.921 210.329 113.237 210.933 112.311 210.933C111.633 210.933 111.146 210.594 111.146 210.02Z" fill="#454267"/>
<rect x="72" y="225" width="220" height="1" fill="#EAEAEA"/>
<g clip-path="url(#clip10_2_1454)">
<mask id="mask2_2_1454" style="mask-type:alpha" maskUnits="userSpaceOnUse" x="44" y="237" width="21" height="15">
<path d="M63 237H46C44.8954 237 44 237.895 44 239V250C44 251.105 44.8954 252 46 252H63C64.1046 252 65 251.105 65 250V239C65 237.895 64.1046 237 63 237Z" fill="white"/>
</mask>
<g mask="url(#mask2_2_1454)">
<path d="M63 237H46C44.8954 237 44 237.895 44 239V250C44 251.105 44.8954 252 46 252H63C64.1046 252 65 251.105 65 250V239C65 237.895 64.1046 237 63 237Z" fill="#00008E"/>
<path fill-rule="evenodd" clip-rule="evenodd" d="M59 241V242H60V241H59ZM61 243V244H62V243H61ZM57 244V245H58V244H57ZM59 248V249H60V248H59Z" fill="#FF7F7F"/>
<path d="M53 238H46C45.4477 238 45 238.448 45 239V244C45 244.552 45.4477 245 46 245H53C53.5523 245 54 244.552 54 244V239C54 238.448 53.5523 238 53 238Z" fill="white"/>
<path fill-rule="evenodd" clip-rule="evenodd" d="M49 242H46V241H49V239H50V241H53V242H50V244H49V242ZM51.5 243V244H53V243H51.5ZM51.5 239V240H53V239H51.5ZM46 243V244H47.5V243H46ZM46 239V240H47.5V239H46Z" fill="#FF0000"/>
<path d="M63 237.5H46C45.1716 237.5 44.5 238.172 44.5 239V250C44.5 250.828 45.1716 251.5 46 251.5H63C63.8284 251.5 64.5 250.828 64.5 250V239C64.5 238.172 63.8284 237.5 63 237.5Z" stroke="black" stroke-opacity="0.1"/>
</g>
</g>
<path d="M72.0978 248H73.6335V241.87H73.7322L78.105 248H79.4803V239.1H77.9508V245.231H77.8521L73.4793 239.1H72.0978V248ZM84.105 248.136C85.9368 248.136 86.8372 247.081 87.0531 246.211L87.0716 246.156H85.6099L85.5914 246.199C85.4434 246.507 84.9685 246.927 84.1358 246.927C83.0935 246.927 82.4398 246.224 82.4213 245.015H87.1332V244.509C87.1332 242.474 85.9491 241.129 84.031 241.129C82.1129 241.129 80.8856 242.517 80.8856 244.639V244.645C80.8856 246.791 82.1006 248.136 84.105 248.136ZM84.0495 242.332C84.9068 242.332 85.5297 242.881 85.6345 243.985H82.4336C82.5508 242.912 83.1922 242.332 84.0495 242.332ZM89.5623 248H91.1535L92.461 243.115H92.5659L93.8796 248H95.4893L97.3149 241.259H95.7915L94.6752 246.322H94.5703L93.2628 241.259H91.8011L90.5059 246.322H90.4011L89.2786 241.259H87.7367L89.5623 248ZM101.328 248H108.094V246.662H103.314V246.551L107.977 240.161V239.1H101.458V240.439H106.009V240.55L101.328 246.939V248ZM112.299 248.136C114.131 248.136 115.031 247.081 115.247 246.211L115.266 246.156H113.804L113.785 246.199C113.637 246.507 113.163 246.927 112.33 246.927C111.288 246.927 110.634 246.224 110.615 245.015H115.327V244.509C115.327 242.474 114.143 241.129 112.225 241.129C110.307 241.129 109.08 242.517 109.08 244.639V244.645C109.08 246.791 110.295 248.136 112.299 248.136ZM112.244 242.332C113.101 242.332 113.724 242.881 113.829 243.985H110.628C110.745 242.912 111.386 242.332 112.244 242.332ZM118.398 248.111C119.286 248.111 120.001 247.729 120.371 247.075H120.476V248H121.993V243.393C121.993 241.968 121.019 241.129 119.286 241.129C117.682 241.129 116.597 241.882 116.449 243.017L116.443 243.072H117.892L117.898 243.047C118.052 242.603 118.509 242.351 119.212 242.351C120.038 242.351 120.476 242.721 120.476 243.393V243.973L118.743 244.077C117.103 244.176 116.184 244.879 116.184 246.082V246.094C116.184 247.322 117.115 248.111 118.398 248.111ZM117.701 246.02V246.008C117.701 245.453 118.102 245.138 118.959 245.083L120.476 244.984V245.527C120.476 246.329 119.792 246.933 118.867 246.933C118.188 246.933 117.701 246.594 117.701 246.02ZM123.596 248H125.132V238.65H123.596V248ZM128.609 248.111C129.497 248.111 130.213 247.729 130.583 247.075H130.688V248H132.205V243.393C132.205 241.968 131.23 241.129 129.497 241.129C127.894 241.129 126.808 241.882 126.66 243.017L126.654 243.072H128.104L128.11 243.047C128.264 242.603 128.72 242.351 129.423 242.351C130.25 242.351 130.688 242.721 130.688 243.393V243.973L128.955 244.077C127.314 244.176 126.395 244.879 126.395 246.082V246.094C126.395 247.322 127.326 248.111 128.609 248.111ZM127.912 246.02V246.008C127.912 245.453 128.313 245.138 129.171 245.083L130.688 244.984V245.527C130.688 246.329 130.003 246.933 129.078 246.933C128.4 246.933 127.912 246.594 127.912 246.02ZM133.746 248H135.282V244.071C135.282 243.06 135.849 242.418 136.762 242.418C137.693 242.418 138.119 242.949 138.119 243.997V248H139.654V243.64C139.654 242.036 138.834 241.129 137.329 241.129C136.355 241.129 135.707 241.567 135.386 242.289H135.282V241.259H133.746V248ZM143.594 248.111C144.544 248.111 145.272 247.679 145.642 246.945H145.747V248H147.289V238.65H145.747V242.332H145.642C145.291 241.604 144.52 241.148 143.594 241.148C141.886 241.148 140.831 242.48 140.831 244.626V244.639C140.831 246.773 141.905 248.111 143.594 248.111ZM144.076 246.816C143.027 246.816 142.392 245.996 142.392 244.639V244.626C142.392 243.27 143.033 242.443 144.076 242.443C145.118 242.443 145.772 243.276 145.772 244.626V244.639C145.772 245.989 145.124 246.816 144.076 246.816Z" fill="#454267"/>
<rect x="72" y="261" width="220" height="1" fill="#EAEAEA"/>
<g clip-path="url(#clip11_2_1454)">
<mask id="mask3_2_1454" style="mask-type:alpha" maskUnits="userSpaceOnUse" x="44" y="273" width="21" height="15">
<path d="M63 273H46C44.8954 273 44 273.895 44 275V286C44 287.105 44.8954 288 46 288H63C64.1046 288 65 287.105 65 286V275C65 273.895 64.1046 273 63 273Z" fill="white"/>
</mask>
<g mask="url(#mask3_2_1454)">
<path d="M63 273H46C44.8954 273 44 273.895 44 275V286C44 287.105 44.8954 288 46 288H63C64.1046 288 65 287.105 65 286V275C65 273.895 64.1046 273 63 273Z" fill="#00008E"/>
<path fill-rule="evenodd" clip-rule="evenodd" d="M48 284.5L49 284L49.5 283L50 284L51 284.5L50 285L49.5 286L49 285L48 284.5ZM58 276V277H59V276H58ZM61 277V278H62V277H61ZM57 279V280H58V279H57ZM60 280V281H61V280H60ZM59 283V284H60V283H59Z" fill="#BDC4E7"/>
<path d="M53 274H46C45.4477 274 45 274.448 45 275V280C45 280.552 45.4477 281 46 281H53C53.5523 281 54 280.552 54 280V275C54 274.448 53.5523 274 53 274Z" fill="white"/>
<path fill-rule="evenodd" clip-rule="evenodd" d="M49 278H46V277H49V275H50V277H53V278H50V280H49V278ZM51.5 279V280H53V279H51.5ZM51.5 275V276H53V275H51.5ZM46 279V280H47.5V279H46ZM46 275V276H47.5V275H46Z" fill="#FF0000"/>
<path d="M63 273.5H46C45.1716 273.5 44.5 274.172 44.5 275V286C44.5 286.828 45.1716 287.5 46 287.5H63C63.8284 287.5 64.5 286.828 64.5 286V275C64.5 274.172 63.8284 273.5 63 273.5Z" stroke="black" stroke-opacity="0.1"/>
</g>
</g>
<path d="M71.4379 284H73.1031L73.8432 281.7H77.1367L77.8829 284H79.5482L76.3904 275.1H74.5957L71.4379 284ZM75.4406 276.753H75.5454L76.7419 280.472H74.2441L75.4406 276.753ZM82.5015 284.136C83.4759 284.136 84.1605 283.698 84.4751 282.976H84.5799V284H86.1156V277.259H84.5799V281.188C84.5799 282.199 84.0495 282.841 83.0565 282.841C82.1314 282.841 81.7429 282.31 81.7429 281.268V277.259H80.2071V281.619C80.2071 283.223 80.9842 284.136 82.5015 284.136ZM90.2346 284.136C91.8936 284.136 93.0963 283.278 93.0963 281.996V281.983C93.0963 281.003 92.4734 280.441 91.1535 280.145L90.0619 279.905C89.3341 279.738 89.0504 279.498 89.0504 279.103V279.097C89.0504 278.591 89.5438 278.258 90.2284 278.258C90.95 278.258 91.3941 278.603 91.5051 279.029L91.5112 279.047H92.9544V279.035C92.8558 277.944 91.8751 277.129 90.2346 277.129C88.6433 277.129 87.5332 277.968 87.5332 279.183V279.189C87.5332 280.182 88.1438 280.787 89.4266 281.07L90.5183 281.317C91.2584 281.484 91.5544 281.743 91.5544 282.137V282.15C91.5544 282.655 91.024 283.001 90.2592 283.001C89.4945 283.001 89.0442 282.674 88.8839 282.205L88.8777 282.193H87.3543V282.205C87.4839 283.346 88.52 284.136 90.2346 284.136ZM96.9439 284.031C97.2399 284.031 97.5236 284.006 97.7456 283.963V282.779C97.5606 282.797 97.4434 282.804 97.2276 282.804C96.5862 282.804 96.3209 282.52 96.3209 281.848V278.449H97.7456V277.259H96.3209V275.606H94.7606V277.259H93.7121V278.449H94.7606V282.211C94.7606 283.513 95.3958 284.031 96.9439 284.031ZM98.972 284H100.508V280.084C100.508 279.122 101.18 278.511 102.204 278.511C102.469 278.511 102.722 278.548 102.969 278.597V277.222C102.821 277.179 102.58 277.148 102.346 277.148C101.458 277.148 100.841 277.573 100.613 278.295H100.508V277.259H98.972V284ZM105.675 284.111C106.563 284.111 107.279 283.729 107.649 283.075H107.754V284H109.271V279.393C109.271 277.968 108.296 277.129 106.563 277.129C104.96 277.129 103.874 277.882 103.726 279.017L103.72 279.072H105.169L105.176 279.047C105.33 278.603 105.786 278.351 106.489 278.351C107.316 278.351 107.754 278.721 107.754 279.393V279.973L106.021 280.077C104.38 280.176 103.461 280.879 103.461 282.082V282.094C103.461 283.322 104.392 284.111 105.675 284.111ZM104.978 282.02V282.008C104.978 281.453 105.379 281.138 106.236 281.083L107.754 280.984V281.527C107.754 282.329 107.069 282.933 106.144 282.933C105.465 282.933 104.978 282.594 104.978 282.02ZM110.873 284H112.409V274.65H110.873V284ZM114.838 276.13C115.338 276.13 115.751 275.729 115.751 275.224C115.751 274.724 115.338 274.317 114.838 274.317C114.332 274.317 113.919 274.724 113.919 275.224C113.919 275.729 114.332 276.13 114.838 276.13ZM114.067 284H115.603V277.259H114.067V284ZM119.025 284.111C119.913 284.111 120.629 283.729 120.999 283.075H121.103V284H122.621V279.393C122.621 277.968 121.646 277.129 119.913 277.129C118.31 277.129 117.224 277.882 117.076 279.017L117.07 279.072H118.519L118.525 279.047C118.68 278.603 119.136 278.351 119.839 278.351C120.666 278.351 121.103 278.721 121.103 279.393V279.973L119.37 280.077C117.73 280.176 116.811 280.879 116.811 282.082V282.094C116.811 283.322 117.742 284.111 119.025 284.111ZM118.328 282.02V282.008C118.328 281.453 118.729 281.138 119.586 281.083L121.103 280.984V281.527C121.103 282.329 120.419 282.933 119.494 282.933C118.815 282.933 118.328 282.594 118.328 282.02Z" fill="#454267"/>
<g clip-path="url(#clip12_2_1454)">
<mask id="mask4_2_1454" style="mask-type:alpha" maskUnits="userSpaceOnUse" x="44" y="308" width="21" height="15">
<path d="M63 308H46C44.8954 308 44 308.895 44 310V321C44 322.105 44.8954 323 46 323H63C64.1046 323 65 322.105 65 321V310C65 308.895 64.1046 308 63 308Z" fill="white"/>
</mask>
<g mask="url(#mask4_2_1454)">
<path d="M63 308H46C44.8954 308 44 308.895 44 310V321C44 322.105 44.8954 323 46 323H63C64.1046 323 65 322.105 65 321V310C65 308.895 64.1046 308 63 308Z" fill="white"/>
<path fill-rule="evenodd" clip-rule="evenodd" d="M44 308H51V323H44V308Z" fill="#001C98"/>
<path fill-rule="evenodd" clip-rule="evenodd" d="M58 308H65V323H58V308Z" fill="#F02532"/>
<path d="M63 308.5H46C45.1716 308.5 44.5 309.172 44.5 310V321C44.5 321.828 45.1716 322.5 46 322.5H63C63.8284 322.5 64.5 321.828 64.5 321V310C64.5 309.172 63.8284 308.5 63 308.5Z" stroke="black" stroke-opacity="0.1"/>
</g>
</g>
<path d="M72.0978 319H73.689V315.367H77.4204V314.072H73.689V311.439H77.7719V310.1H72.0978V319ZM79.0723 319H80.608V315.084C80.608 314.122 81.2803 313.511 82.3041 313.511C82.5693 313.511 82.8222 313.548 83.0689 313.597V312.222C82.9208 312.179 82.6803 312.148 82.4459 312.148C81.5578 312.148 80.9411 312.573 80.7129 313.295H80.608V312.259H79.0723V319ZM85.7755 319.111C86.6636 319.111 87.379 318.729 87.7491 318.075H87.8539V319H89.3711V314.393C89.3711 312.968 88.3966 312.129 86.6636 312.129C85.06 312.129 83.9745 312.882 83.8265 314.017L83.8204 314.072H85.2697L85.2759 314.047C85.4301 313.603 85.8865 313.351 86.5896 313.351C87.416 313.351 87.8539 313.721 87.8539 314.393V314.973L86.1208 315.077C84.4803 315.176 83.5613 315.879 83.5613 317.082V317.094C83.5613 318.322 84.4926 319.111 85.7755 319.111ZM85.0785 317.02V317.008C85.0785 316.453 85.4794 316.138 86.3367 316.083L87.8539 315.984V316.527C87.8539 317.329 87.1693 317.933 86.2442 317.933C85.5658 317.933 85.0785 317.594 85.0785 317.02ZM90.9121 319H92.4478V315.071C92.4478 314.06 93.0152 313.418 93.928 313.418C94.8593 313.418 95.2848 313.949 95.2848 314.997V319H96.8205V314.64C96.8205 313.036 96.0002 312.129 94.4954 312.129C93.5209 312.129 92.8733 312.567 92.5526 313.289H92.4478V312.259H90.9121V319ZM101.223 319.136C102.932 319.136 103.925 318.217 104.147 316.835L104.159 316.786L102.71 316.792L102.697 316.817C102.506 317.526 102.019 317.89 101.223 317.89C100.181 317.89 99.558 317.051 99.558 315.62V315.608C99.558 314.196 100.175 313.369 101.223 313.369C102.062 313.369 102.562 313.838 102.703 314.492L102.71 314.51H104.159V314.485C103.986 313.092 102.95 312.129 101.217 312.129C99.1879 312.129 97.9976 313.431 97.9976 315.608V315.62C97.9976 317.822 99.1941 319.136 101.223 319.136ZM108.204 319.136C110.036 319.136 110.936 318.081 111.152 317.211L111.17 317.156H109.709L109.69 317.199C109.542 317.507 109.067 317.927 108.235 317.927C107.192 317.927 106.539 317.224 106.52 316.015H111.232V315.509C111.232 313.474 110.048 312.129 108.13 312.129C106.212 312.129 104.984 313.517 104.984 315.639V315.645C104.984 317.791 106.199 319.136 108.204 319.136ZM108.148 313.332C109.006 313.332 109.629 313.881 109.733 314.985H106.532C106.65 313.912 107.291 313.332 108.148 313.332Z" fill="#454267"/>
<defs>
<filter id="filter0_f_2_1454" x="2.375" y="0.125" width="320.25" height="660.5" filterUnits="userSpaceOnUse" color-interpolation-filters="sRGB">
<feFlood flood-opacity="0" result="BackgroundImageFix"/>
<feBlend mode="normal" in="SourceGraphic" in2="BackgroundImageFix" result="shape"/>
<feGaussianBlur stdDeviation="0.375" result="effect1_foregroundBlur_2_1454"/>
</filter>
<filter id="filter1_f_2_1454" x="7.25" y="4.75" width="310.5" height="651" filterUnits="userSpaceOnUse" color-interpolation-filters="sRGB">
<feFlood flood-opacity="0" result="BackgroundImageFix"/>
<feBlend mode="normal" in="SourceGraphic" in2="BackgroundImageFix" result="shape"/>
<feGaussianBlur stdDeviation="0.25" result="effect1_foregroundBlur_2_1454"/>
</filter>
<filter id="filter2_f_2_1454" x="185.607" y="33.0714" width="4.64286" height="8.35713" filterUnits="userSpaceOnUse" color-interpolation-filters="sRGB">
<feFlood flood-opacity="0" result="BackgroundImageFix"/>
<feBlend mode="normal" in="SourceGraphic" in2="BackgroundImageFix" result="shape"/>
<feGaussianBlur stdDeviation="0.696429" result="effect1_foregroundBlur_2_1454"/>
</filter>
<filter id="filter3_f_2_1454" x="186.071" y="34.3571" width="3.71429" height="5.78571" filterUnits="userSpaceOnUse" color-interpolation-filters="sRGB">
<feFlood flood-opacity="0" result="BackgroundImageFix"/>
<feBlend mode="normal" in="SourceGraphic" in2="BackgroundImageFix" result="shape"/>
<feGaussianBlur stdDeviation="0.696429" result="effect1_foregroundBlur_2_1454"/>
</filter>
<filter id="filter4_f_2_1454" x="186.856" y="34.3377" width="2.89959" height="5.1622" filterUnits="userSpaceOnUse" color-interpolation-filters="sRGB">
<feFlood flood-opacity="0" result="BackgroundImageFix"/>
<feBlend mode="normal" in="SourceGraphic" in2="BackgroundImageFix" result="shape"/>
<feGaussianBlur stdDeviation="0.464286" result="effect1_foregroundBlur_2_1454"/>
</filter>
<filter id="filter5_f_2_1454" x="190.25" y="33.0714" width="4.64286" height="8.35713" filterUnits="userSpaceOnUse" color-interpolation-filters="sRGB">
<feFlood flood-opacity="0" result="BackgroundImageFix"/>
<feBlend mode="normal" in="SourceGraphic" in2="BackgroundImageFix" result="shape"/>
<feGaussianBlur stdDeviation="0.696429" result="effect1_foregroundBlur_2_1454"/>
</filter>
<filter id="filter6_f_2_1454" x="190.714" y="34.3571" width="3.71429" height="5.78571" filterUnits="userSpaceOnUse" color-interpolation-filters="sRGB">
<feFlood flood-opacity="0" result="BackgroundImageFix"/>
<feBlend mode="normal" in="SourceGraphic" in2="BackgroundImageFix" result="shape"/>
<feGaussianBlur stdDeviation="0.696429" result="effect1_foregroundBlur_2_1454"/>
</filter>
<filter id="filter7_f_2_1454" x="190.744" y="34.3377" width="2.89959" height="5.1622" filterUnits="userSpaceOnUse" color-interpolation-filters="sRGB">
<feFlood flood-opacity="0" result="BackgroundImageFix"/>
<feBlend mode="normal" in="SourceGraphic" in2="BackgroundImageFix" result="shape"/>
<feGaussianBlur stdDeviation="0.464286" result="effect1_foregroundBlur_2_1454"/>
</filter>
<filter id="filter8_f_2_1454" x="129.75" y="31.9851" width="5.85" height="10.53" filterUnits="userSpaceOnUse" color-interpolation-filters="sRGB">
<feFlood flood-opacity="0" result="BackgroundImageFix"/>
<feBlend mode="normal" in="SourceGraphic" in2="BackgroundImageFix" result="shape"/>
<feGaussianBlur stdDeviation="0.8775" result="effect1_foregroundBlur_2_1454"/>
</filter>
<filter id="filter9_f_2_1454" x="130.335" y="33.6051" width="4.68" height="7.29003" filterUnits="userSpaceOnUse" color-interpolation-filters="sRGB">
<feFlood flood-opacity="0" result="BackgroundImageFix"/>
<feBlend mode="normal" in="SourceGraphic" in2="BackgroundImageFix" result="shape"/>
<feGaussianBlur stdDeviation="0.8775" result="effect1_foregroundBlur_2_1454"/>
</filter>
<filter id="filter10_f_2_1454" x="130.958" y="34.1656" width="2.48348" height="5.33443" filterUnits="userSpaceOnUse" color-interpolation-filters="sRGB">
<feFlood flood-opacity="0" result="BackgroundImageFix"/>
<feBlend mode="normal" in="SourceGraphic" in2="BackgroundImageFix" result="shape"/>
<feGaussianBlur stdDeviation="0.2925" result="effect1_foregroundBlur_2_1454"/>
</filter>
<filter id="filter11_f_2_1454" x="123.9" y="31.9851" width="5.85" height="10.53" filterUnits="userSpaceOnUse" color-interpolation-filters="sRGB">
<feFlood flood-opacity="0" result="BackgroundImageFix"/>
<feBlend mode="normal" in="SourceGraphic" in2="BackgroundImageFix" result="shape"/>
<feGaussianBlur stdDeviation="0.8775" result="effect1_foregroundBlur_2_1454"/>
</filter>
<filter id="filter12_f_2_1454" x="124.485" y="33.6051" width="4.68" height="7.29003" filterUnits="userSpaceOnUse" color-interpolation-filters="sRGB">
<feFlood flood-opacity="0" result="BackgroundImageFix"/>
<feBlend mode="normal" in="SourceGraphic" in2="BackgroundImageFix" result="shape"/>
<feGaussianBlur stdDeviation="0.8775" result="effect1_foregroundBlur_2_1454"/>
</filter>
<filter id="filter13_f_2_1454" x="126.059" y="34.1656" width="2.48348" height="5.33443" filterUnits="userSpaceOnUse" color-interpolation-filters="sRGB">
<feFlood flood-opacity="0" result="BackgroundImageFix"/>
<feBlend mode="normal" in="SourceGraphic" in2="BackgroundImageFix" result="shape"/>
<feGaussianBlur stdDeviation="0.2925" result="effect1_foregroundBlur_2_1454"/>
</filter>
<filter id="filter14_f_2_1454" x="321.75" y="199.25" width="3.5" height="79" filterUnits="userSpaceOnUse" color-interpolation-filters="sRGB">
<feFlood flood-opacity="0" result="BackgroundImageFix"/>
<feBlend mode="normal" in="SourceGraphic" in2="BackgroundImageFix" result="shape"/>
<feGaussianBlur stdDeviation="0.125" result="effect1_foregroundBlur_2_1454"/>
</filter>
<filter id="filter15_f_2_1454" x="322" y="199.5" width="3" height="78.5" filterUnits="userSpaceOnUse" color-interpolation-filters="sRGB">
<feFlood flood-opacity="0" result="BackgroundImageFix"/>
<feBlend mode="normal" in="SourceGraphic" in2="BackgroundImageFix" result="shape"/>
<feGaussianBlur stdDeviation="0.125" result="effect1_foregroundBlur_2_1454"/>
</filter>
<filter id="filter16_f_2_1454" x="322" y="199.75" width="2.75" height="6" filterUnits="userSpaceOnUse" color-interpolation-filters="sRGB">
<feFlood flood-opacity="0" result="BackgroundImageFix"/>
<feBlend mode="normal" in="SourceGraphic" in2="BackgroundImageFix" result="shape"/>
<feGaussianBlur stdDeviation="0.125" result="effect1_foregroundBlur_2_1454"/>
</filter>
<filter id="filter17_f_2_1454" x="322" y="271.75" width="2.75" height="6" filterUnits="userSpaceOnUse" color-interpolation-filters="sRGB">
<feFlood flood-opacity="0" result="BackgroundImageFix"/>
<feBlend mode="normal" in="SourceGraphic" in2="BackgroundImageFix" result="shape"/>
<feGaussianBlur stdDeviation="0.125" result="effect1_foregroundBlur_2_1454"/>
</filter>
<filter id="filter18_f_2_1454" x="-0.25" y="134.25" width="3.5" height="24.75" filterUnits="userSpaceOnUse" color-interpolation-filters="sRGB">
<feFlood flood-opacity="0" result="BackgroundImageFix"/>
<feBlend mode="normal" in="SourceGraphic" in2="BackgroundImageFix" result="shape"/>
<feGaussianBlur stdDeviation="0.125" result="effect1_foregroundBlur_2_1454"/>
</filter>
<filter id="filter19_f_2_1454" x="0" y="134.5" width="3" height="24.25" filterUnits="userSpaceOnUse" color-interpolation-filters="sRGB">
<feFlood flood-opacity="0" result="BackgroundImageFix"/>
<feBlend mode="normal" in="SourceGraphic" in2="BackgroundImageFix" result="shape"/>
<feGaussianBlur stdDeviation="0.125" result="effect1_foregroundBlur_2_1454"/>
</filter>
<filter id="filter20_f_2_1454" x="0.25" y="134.75" width="2.75" height="3.25" filterUnits="userSpaceOnUse" color-interpolation-filters="sRGB">
<feFlood flood-opacity="0" result="BackgroundImageFix"/>
<feBlend mode="normal" in="SourceGraphic" in2="BackgroundImageFix" result="shape"/>
<feGaussianBlur stdDeviation="0.125" result="effect1_foregroundBlur_2_1454"/>
</filter>
<filter id="filter21_f_2_1454" x="0.25" y="155.25" width="2.75" height="3.25" filterUnits="userSpaceOnUse" color-interpolation-filters="sRGB">
<feFlood flood-opacity="0" result="BackgroundImageFix"/>
<feBlend mode="normal" in="SourceGraphic" in2="BackgroundImageFix" result="shape"/>
<feGaussianBlur stdDeviation="0.125" result="effect1_foregroundBlur_2_1454"/>
</filter>
<filter id="filter22_f_2_1454" x="-0.25" y="181.5" width="3.5" height="51" filterUnits="userSpaceOnUse" color-interpolation-filters="sRGB">
<feFlood flood-opacity="0" result="BackgroundImageFix"/>
<feBlend mode="normal" in="SourceGraphic" in2="BackgroundImageFix" result="shape"/>
<feGaussianBlur stdDeviation="0.125" result="effect1_foregroundBlur_2_1454"/>
</filter>
<filter id="filter23_f_2_1454" x="0" y="181.75" width="3" height="50.5" filterUnits="userSpaceOnUse" color-interpolation-filters="sRGB">
<feFlood flood-opacity="0" result="BackgroundImageFix"/>
<feBlend mode="normal" in="SourceGraphic" in2="BackgroundImageFix" result="shape"/>
<feGaussianBlur stdDeviation="0.125" result="effect1_foregroundBlur_2_1454"/>
</filter>
<filter id="filter24_f_2_1454" x="0.25" y="182" width="2.75" height="6" filterUnits="userSpaceOnUse" color-interpolation-filters="sRGB">
<feFlood flood-opacity="0" result="BackgroundImageFix"/>
<feBlend mode="normal" in="SourceGraphic" in2="BackgroundImageFix" result="shape"/>
<feGaussianBlur stdDeviation="0.125" result="effect1_foregroundBlur_2_1454"/>
</filter>
<filter id="filter25_f_2_1454" x="0.25" y="226" width="2.75" height="6" filterUnits="userSpaceOnUse" color-interpolation-filters="sRGB">
<feFlood flood-opacity="0" result="BackgroundImageFix"/>
<feBlend mode="normal" in="SourceGraphic" in2="BackgroundImageFix" result="shape"/>
<feGaussianBlur stdDeviation="0.125" result="effect1_foregroundBlur_2_1454"/>
</filter>
<filter id="filter26_f_2_1454" x="-0.25" y="245" width="3.5" height="51" filterUnits="userSpaceOnUse" color-interpolation-filters="sRGB">
<feFlood flood-opacity="0" result="BackgroundImageFix"/>
<feBlend mode="normal" in="SourceGraphic" in2="BackgroundImageFix" result="shape"/>
<feGaussianBlur stdDeviation="0.125" result="effect1_foregroundBlur_2_1454"/>
</filter>
<filter id="filter27_f_2_1454" x="0" y="245.25" width="3" height="50.5" filterUnits="userSpaceOnUse" color-interpolation-filters="sRGB">
<feFlood flood-opacity="0" result="BackgroundImageFix"/>
<feBlend mode="normal" in="SourceGraphic" in2="BackgroundImageFix" result="shape"/>
<feGaussianBlur stdDeviation="0.125" result="effect1_foregroundBlur_2_1454"/>
</filter>
<filter id="filter28_f_2_1454" x="0.25" y="245.5" width="2.75" height="6" filterUnits="userSpaceOnUse" color-interpolation-filters="sRGB">
<feFlood flood-opacity="0" result="BackgroundImageFix"/>
<feBlend mode="normal" in="SourceGraphic" in2="BackgroundImageFix" result="shape"/>
<feGaussianBlur stdDeviation="0.125" result="effect1_foregroundBlur_2_1454"/>
</filter>
<filter id="filter29_f_2_1454" x="0.25" y="289.5" width="2.75" height="6" filterUnits="userSpaceOnUse" color-interpolation-filters="sRGB">
<feFlood flood-opacity="0" result="BackgroundImageFix"/>
<feBlend mode="normal" in="SourceGraphic" in2="BackgroundImageFix" result="shape"/>
<feGaussianBlur stdDeviation="0.125" result="effect1_foregroundBlur_2_1454"/>
</filter>
<linearGradient id="paint0_linear_2_1454" x1="162.5" y1="13.75" x2="162.5" y2="646.75" gradientUnits="userSpaceOnUse">
<stop stop-color="#704EE2"/>
<stop offset="1" stop-color="#926FF7"/>
</linearGradient>
<linearGradient id="paint1_linear_2_1454" x1="1.125" y1="0" x2="1.125" y2="5.5" gradientUnits="userSpaceOnUse">
<stop stop-color="#2D2E2A"/>
<stop offset="0.760033" stop-color="#DEDEDE"/>
</linearGradient>
<linearGradient id="paint2_linear_2_1454" x1="325.625" y1="277.5" x2="325.625" y2="283" gradientUnits="userSpaceOnUse">
<stop stop-color="#2D2E2A"/>
<stop offset="0.760033" stop-color="#DEDEDE"/>
</linearGradient>
<linearGradient id="paint3_linear_2_1454" x1="1.625" y1="135" x2="1.625" y2="137.75" gradientUnits="userSpaceOnUse">
<stop stop-color="#2D2E2A"/>
<stop offset="0.760033" stop-color="#DEDEDE"/>
</linearGradient>
<linearGradient id="paint4_linear_2_1454" x1="1.125" y1="0" x2="1.125" y2="2.75" gradientUnits="userSpaceOnUse">
<stop stop-color="#2D2E2A"/>
<stop offset="0.760033" stop-color="#DEDEDE"/>
</linearGradient>
<linearGradient id="paint5_linear_2_1454" x1="1.625" y1="182.25" x2="1.625" y2="187.75" gradientUnits="userSpaceOnUse">
<stop stop-color="#2D2E2A"/>
<stop offset="0.760033" stop-color="#DEDEDE"/>
</linearGradient>
<linearGradient id="paint6_linear_2_1454" x1="1.125" y1="0" x2="1.125" y2="5.5" gradientUnits="userSpaceOnUse">
<stop stop-color="#2D2E2A"/>
<stop offset="0.760033" stop-color="#DEDEDE"/>
</linearGradient>
<linearGradient id="paint7_linear_2_1454" x1="1.625" y1="245.75" x2="1.625" y2="251.25" gradientUnits="userSpaceOnUse">
<stop stop-color="#2D2E2A"/>
<stop offset="0.760033" stop-color="#DEDEDE"/>
</linearGradient>
<linearGradient id="paint8_linear_2_1454" x1="1.125" y1="0" x2="1.125" y2="5.5" gradientUnits="userSpaceOnUse">
<stop stop-color="#2D2E2A"/>
<stop offset="0.760033" stop-color="#DEDEDE"/>
</linearGradient>
<linearGradient id="paint9_linear_2_1454" x1="300" y1="119.098" x2="258" y2="119.098" gradientUnits="userSpaceOnUse">
<stop stop-color="#7855E7"/>
<stop offset="1" stop-color="#7755E7" stop-opacity="0"/>
</linearGradient>
<clipPath id="clip0_2_1454">
<rect x="2.5" width="320" height="660.5" rx="52.5" fill="white"/>
</clipPath>
<clipPath id="clip1_2_1454">
<path d="M325 200C325 199.724 324.776 199.5 324.5 199.5H322.5V278H324.5C324.776 278 325 277.776 325 277.5V200Z" fill="white"/>
</clipPath>
<clipPath id="clip2_2_1454">
<path d="M0 135C0 134.724 0.223858 134.5 0.5 134.5H2.5V158.75H0.5C0.223858 158.75 0 158.526 0 158.25V135Z" fill="white"/>
</clipPath>
<clipPath id="clip3_2_1454">
<path d="M0 182.25C0 181.974 0.223858 181.75 0.5 181.75H2.5V232.25H0.5C0.223858 232.25 0 232.026 0 231.75V182.25Z" fill="white"/>
</clipPath>
<clipPath id="clip4_2_1454">
<path d="M0 245.75C0 245.474 0.223858 245.25 0.5 245.25H2.5V295.75H0.5C0.223858 295.75 0 295.526 0 295.25V245.75Z" fill="white"/>
</clipPath>
<clipPath id="clip5_2_1454">
<rect width="276" height="23" fill="white" transform="translate(24 107.598)"/>
</clipPath>
<clipPath id="clip6_2_1454">
<rect width="12" height="12" fill="white" transform="translate(168 113.098)"/>
</clipPath>
<clipPath id="clip7_2_1454">
<rect width="12" height="12" fill="white" transform="translate(287 113.098)"/>
</clipPath>
<clipPath id="clip8_2_1454">
<rect width="21" height="15" fill="white" transform="translate(44 165)"/>
</clipPath>
<clipPath id="clip9_2_1454">
<rect width="21" height="15" fill="white" transform="translate(44 201)"/>
</clipPath>
<clipPath id="clip10_2_1454">
<rect width="21" height="15" fill="white" transform="translate(44 237)"/>
</clipPath>
<clipPath id="clip11_2_1454">
<rect width="21" height="15" fill="white" transform="translate(44 273)"/>
</clipPath>
<clipPath id="clip12_2_1454">
<rect width="21" height="15" fill="white" transform="translate(44 308)"/>
</clipPath>
</defs>
</svg>
