<svg width="64" height="38" viewBox="0 0 64 38" fill="none" xmlns="http://www.w3.org/2000/svg">
<path fill-rule="evenodd" clip-rule="evenodd" d="M2.15805 20.9234L46.3798 18.0582C46.7109 18.0385 47.0417 18.1008 47.3429 18.2396C47.6441 18.3785 47.9063 18.5895 48.1064 18.8541L60.3817 34.7722C60.639 35.1048 60.9936 35.3488 61.3961 35.4702C61.7986 35.5916 62.229 35.5845 62.6273 35.4497C63.0255 35.3149 63.3718 35.0593 63.6179 34.7183C63.864 34.3774 63.9975 33.9682 64 33.5478V4.01961C64.0008 3.71295 63.9316 3.41015 63.7976 3.1343C63.6637 2.85845 63.4685 2.61682 63.2269 2.42786C62.9854 2.23889 62.7039 2.10756 62.404 2.04389C62.104 1.98022 61.7934 1.98589 61.496 2.06046L1.54581 16.9439C1.05365 17.0628 0.624076 17.3623 0.342154 17.7828C0.0602324 18.2034 -0.053492 18.7145 0.0234996 19.215C0.100491 19.7154 0.362587 20.1687 0.757891 20.4851C1.1532 20.8015 1.65289 20.9579 2.15805 20.9234ZM11.636 35.3543C9.92993 35.6237 8.22383 35.8543 6.51773 36.0461L6.46875 35.642C22.344 33.2237 29.7521 29.5319 42.7621 20.4586C43.078 20.2368 43.4485 20.1055 43.8335 20.079C44.2953 20.0512 44.7534 20.1767 45.1366 20.436C45.5197 20.6954 45.8065 21.0739 45.9524 21.513C46.0983 21.9521 46.0951 22.427 45.9433 22.8641C45.7916 23.3011 45.4997 23.6758 45.1131 23.9299C44.1889 24.5254 43.2323 25.0691 42.2478 25.5585C32.5888 30.3304 22.2709 33.6321 11.636 35.3543Z" fill="#7A57E8"/>
</svg>
