<svg width="24" height="24" viewBox="0 0 24 24" fill="none" xmlns="http://www.w3.org/2000/svg">
<mask id="path-1-inside-1_2_1480" fill="white">
<path fill-rule="evenodd" clip-rule="evenodd" d="M17 8V16C17 18.7614 14.7614 21 12 21C9.23858 21 7 18.7614 7 16V8C7 5.23858 9.23858 3 12 3C14.7614 3 17 5.23858 17 8ZM5 8C5 4.13401 8.13401 1 12 1C15.866 1 19 4.13401 19 8V16C19 19.866 15.866 23 12 23C8.13401 23 5 19.866 5 16V8ZM12 6.87988C11.4477 6.87988 11 7.3276 11 7.87988V9.87988C11 10.4322 11.4477 10.8799 12 10.8799C12.5523 10.8799 13 10.4322 13 9.87988V7.87988C13 7.3276 12.5523 6.87988 12 6.87988Z"/>
</mask>
<path fill-rule="evenodd" clip-rule="evenodd" d="M17 8V16C17 18.7614 14.7614 21 12 21C9.23858 21 7 18.7614 7 16V8C7 5.23858 9.23858 3 12 3C14.7614 3 17 5.23858 17 8ZM5 8C5 4.13401 8.13401 1 12 1C15.866 1 19 4.13401 19 8V16C19 19.866 15.866 23 12 23C8.13401 23 5 19.866 5 16V8ZM12 6.87988C11.4477 6.87988 11 7.3276 11 7.87988V9.87988C11 10.4322 11.4477 10.8799 12 10.8799C12.5523 10.8799 13 10.4322 13 9.87988V7.87988C13 7.3276 12.5523 6.87988 12 6.87988Z" fill="#9474F3"/>
<path d="M18 16V8H16V16H18ZM12 22C15.3137 22 18 19.3137 18 16H16C16 18.2091 14.2091 20 12 20V22ZM6 16C6 19.3137 8.68629 22 12 22V20C9.79086 20 8 18.2091 8 16H6ZM6 8V16H8V8H6ZM12 2C8.68629 2 6 4.68629 6 8H8C8 5.79086 9.79086 4 12 4V2ZM18 8C18 4.68629 15.3137 2 12 2V4C14.2091 4 16 5.79086 16 8H18ZM12 0C7.58172 0 4 3.58172 4 8H6C6 4.68629 8.68629 2 12 2V0ZM20 8C20 3.58172 16.4183 0 12 0V2C15.3137 2 18 4.68629 18 8H20ZM20 16V8H18V16H20ZM12 24C16.4183 24 20 20.4183 20 16H18C18 19.3137 15.3137 22 12 22V24ZM4 16C4 20.4183 7.58172 24 12 24V22C8.68629 22 6 19.3137 6 16H4ZM4 8V16H6V8H4ZM12 7.87988V5.87988C10.8954 5.87988 10 6.77531 10 7.87988H12ZM12 9.87988V7.87988H10V9.87988H12ZM12 9.87988H10C10 10.9845 10.8954 11.8799 12 11.8799V9.87988ZM12 9.87988V11.8799C13.1046 11.8799 14 10.9845 14 9.87988H12ZM12 7.87988V9.87988H14V7.87988H12ZM12 7.87988H14C14 6.77531 13.1046 5.87988 12 5.87988V7.87988Z" fill="url(#paint0_linear_2_1480)" mask="url(#path-1-inside-1_2_1480)"/>
<defs>
<linearGradient id="paint0_linear_2_1480" x1="12" y1="23" x2="1.75692" y2="16.0099" gradientUnits="userSpaceOnUse">
<stop stop-color="#866FD2"/>
<stop offset="1" stop-color="#A384FF"/>
</linearGradient>
</defs>
</svg>
