<svg width="600" height="600" viewBox="0 0 600 600" fill="none" xmlns="http://www.w3.org/2000/svg">
<path d="M0 241.5C0 156.076 0 113.365 16.888 80.8538C31.1193 53.4574 53.4574 31.1193 80.8538 16.888C113.365 0 156.076 0 241.5 0H358.5C443.924 0 486.635 0 519.146 16.888C546.543 31.1193 568.881 53.4574 583.112 80.8538C600 113.365 600 156.076 600 241.5V358.5C600 443.924 600 486.635 583.112 519.146C568.881 546.543 546.543 568.881 519.146 583.112C486.635 600 443.924 600 358.5 600H241.5C156.076 600 113.365 600 80.8538 583.112C53.4574 568.881 31.1193 546.543 16.888 519.146C0 486.635 0 443.924 0 358.5V241.5Z" fill="url(#paint0_linear_27_6113)"/>
<path fill-rule="evenodd" clip-rule="evenodd" d="M111.677 319.626L377.208 302.422C379.196 302.303 381.182 302.678 382.991 303.511C384.799 304.345 386.374 305.612 387.575 307.201L461.282 402.782C462.827 404.779 464.956 406.244 467.373 406.973C469.79 407.702 472.375 407.659 474.766 406.85C477.157 406.04 479.237 404.505 480.714 402.458C482.192 400.411 482.994 397.954 483.009 395.429V218.127C483.013 216.285 482.598 214.467 481.793 212.811C480.989 211.155 479.817 209.704 478.367 208.569C476.916 207.434 475.226 206.646 473.425 206.264C471.624 205.881 469.759 205.915 467.973 206.363L108.001 295.731C105.045 296.445 102.466 298.243 100.773 300.768C99.0804 303.294 98.3976 306.363 98.8599 309.368C99.3222 312.373 100.896 315.095 103.27 316.994C105.643 318.894 108.644 319.834 111.677 319.626ZM168.617 406.275C158.373 407.892 148.128 409.277 137.884 410.429L137.59 408.003C232.914 393.482 277.395 371.314 355.514 316.833C357.411 315.501 359.636 314.713 361.948 314.554C364.721 314.387 367.471 315.141 369.772 316.698C372.073 318.255 373.795 320.528 374.671 323.164C375.547 325.801 375.528 328.653 374.616 331.277C373.705 333.901 371.952 336.151 369.631 337.677C364.082 341.253 358.338 344.517 352.426 347.456C294.429 376.109 232.475 395.934 168.617 406.275Z" fill="white"/>
<defs>
<linearGradient id="paint0_linear_27_6113" x1="300" y1="0" x2="300" y2="600" gradientUnits="userSpaceOnUse">
<stop stop-color="#704EE2"/>
<stop offset="1" stop-color="#926FF7"/>
</linearGradient>
</defs>
</svg>
