<svg width="16" height="8" viewBox="0 0 16 8" fill="none" xmlns="http://www.w3.org/2000/svg">
<path fill-rule="evenodd" clip-rule="evenodd" d="M0.507094 4.44659L10.8982 3.77332C10.976 3.76868 11.0538 3.78333 11.1245 3.81595C11.1953 3.84858 11.2569 3.89818 11.3039 3.96034L14.1884 7.70075C14.2488 7.77889 14.3321 7.83622 14.4267 7.86476C14.5213 7.89329 14.6224 7.89161 14.716 7.85994C14.8096 7.82827 14.891 7.76819 14.9488 7.68808C15.0066 7.60797 15.038 7.51182 15.0386 7.41302V0.474565C15.0388 0.402506 15.0225 0.331354 14.991 0.266535C14.9596 0.201716 14.9137 0.14494 14.8569 0.100537C14.8002 0.0561334 14.734 0.0252748 14.6635 0.0103137C14.5931 -0.00464737 14.5201 -0.00331596 14.4502 0.0142063L0.363232 3.51149C0.247584 3.53944 0.146644 3.60979 0.0803987 3.70862C0.0141533 3.80745 -0.0125694 3.92755 0.00552188 4.04514C0.0236132 4.16273 0.0851999 4.26925 0.178088 4.34359C0.270975 4.41794 0.388393 4.4547 0.507094 4.44659ZM2.73503 7.83748C2.33413 7.90078 1.93324 7.95496 1.53234 8.00004L1.52083 7.90509C5.25117 7.33684 6.9919 6.46935 10.049 4.33732C10.1232 4.28521 10.2103 4.25436 10.3007 4.24812C10.4092 4.2416 10.5169 4.27109 10.6069 4.33202C10.6969 4.39296 10.7643 4.48192 10.7986 4.58509C10.8329 4.68825 10.8322 4.79985 10.7965 4.90255C10.7608 5.00525 10.6922 5.0933 10.6014 5.15301C10.3842 5.29294 10.1595 5.4207 9.92813 5.53569C7.65847 6.65698 5.234 7.43281 2.73503 7.83748Z" fill="#454267"/>
</svg>
