<svg width="97" height="48" viewBox="0 0 97 48" fill="none" xmlns="http://www.w3.org/2000/svg">
<path fill-rule="evenodd" clip-rule="evenodd" d="M29.7279 10.4249L39.8401 9.76968C39.9158 9.76517 39.9914 9.77942 40.0603 9.81117C40.1292 9.84292 40.1891 9.89119 40.2349 9.95168L43.0419 13.5917C43.1007 13.6677 43.1818 13.7235 43.2738 13.7513C43.3659 13.7791 43.4643 13.7774 43.5554 13.7466C43.6464 13.7158 43.7256 13.6573 43.7819 13.5794C43.8382 13.5014 43.8687 13.4078 43.8693 13.3117V6.55948C43.8694 6.48936 43.8536 6.42012 43.823 6.35704C43.7923 6.29396 43.7477 6.23871 43.6925 6.19549C43.6373 6.15228 43.5729 6.12225 43.5043 6.10769C43.4357 6.09313 43.3647 6.09443 43.2967 6.11148L29.5879 9.51488C29.4753 9.54208 29.3771 9.61054 29.3126 9.70672C29.2481 9.80289 29.2221 9.91977 29.2397 10.0342C29.2574 10.1486 29.3173 10.2523 29.4077 10.3246C29.4981 10.397 29.6123 10.4328 29.7279 10.4249ZM31.9004 13.7248C31.5102 13.7864 31.1201 13.8392 30.73 13.883L30.7188 13.7906C34.3489 13.2376 36.043 12.3934 39.018 10.3186C39.0902 10.2679 39.1749 10.2379 39.263 10.2318C39.3686 10.2255 39.4733 10.2542 39.5609 10.3135C39.6485 10.3728 39.7141 10.4593 39.7475 10.5597C39.7808 10.6601 39.7801 10.7687 39.7454 10.8687C39.7107 10.9686 39.644 11.0543 39.5556 11.1124C39.3442 11.2486 39.1255 11.3729 38.9004 11.4848C36.6916 12.576 34.3322 13.331 31.9004 13.7248Z" fill="#454267"/>
<path fill-rule="evenodd" clip-rule="evenodd" d="M20.1416 3.15967V8.68967L6.21158 12.1197V17.7995L12.681 16.1797V20.8249L6.21158 22.4363V42.1329L0.859375 43.4657V7.96727L20.1416 3.15967ZM91.1538 46.7933V36.9611C90.626 37.4479 90.0132 37.8392 89.3422 38.1133C88.1952 38.5957 86.9618 38.8387 85.7176 38.8273C83.8584 38.8273 82.1971 38.3858 80.7336 37.5029C79.2815 36.633 78.0851 35.3946 77.2658 33.9133C76.4116 32.3792 75.9729 30.6487 75.9932 28.8929C75.968 27.1282 76.413 25.3887 77.2826 23.8529C78.1162 22.3806 79.3173 21.1496 80.7686 20.2801C82.2524 19.3921 83.9536 18.9336 85.6826 18.9557C87.077 18.9557 88.3146 19.217 89.3954 19.7397C90.2077 20.1219 90.9258 20.6726 91.5038 21.352V19.1895L96.3828 17.9785V45.4899L91.1538 46.7933ZM86.3434 34.1219C87.2256 34.1406 88.0954 33.9111 88.8536 33.4597C89.5784 33.0136 90.1638 32.3734 90.5434 31.6117C90.9453 30.7619 91.1538 29.8336 91.1538 28.8936C91.1538 27.9536 90.9453 27.0253 90.5434 26.1755C90.163 25.4144 89.5778 24.7744 88.8536 24.3275C88.0954 23.8761 87.2256 23.6467 86.3434 23.6653C85.443 23.6513 84.5563 23.8868 83.7814 24.3457C83.0364 24.788 82.4276 25.4269 82.0216 26.1923C81.59 27.0259 81.3744 27.9544 81.3944 28.8929C81.3756 29.8371 81.5911 30.7712 82.0216 31.6117C82.4208 32.3823 83.0312 33.0233 83.7814 33.4597C84.5602 33.9071 85.4454 34.1359 86.3434 34.1219ZM46.0156 38.7826V19.2596L50.896 18.0444V21.3871C51.2534 20.6911 51.7532 20.1336 52.3954 19.7146C53.4641 19.0174 54.7418 18.6693 56.2286 18.6702C57.8097 18.6702 59.198 19.0706 60.3936 19.8714C60.9618 20.2339 61.4528 20.7049 61.8387 21.2574C61.9055 21.3531 61.9689 21.4509 62.0289 21.5507C62.5325 20.8153 63.1316 20.2252 63.8264 19.7804C64.9884 19.0366 66.3478 18.6632 67.9046 18.6604C69.2748 18.6604 70.4881 18.9624 71.5446 19.5662C72.5929 20.162 73.4556 21.0367 74.0366 22.0932C74.6396 23.174 74.9415 24.434 74.9424 25.8732V37.5142L69.7148 38.7742V26.9988C69.732 26.3371 69.5949 25.6804 69.3144 25.0808C69.0632 24.562 68.67 24.1251 68.1804 23.8208C67.6383 23.5233 67.0299 23.3673 66.4115 23.3673C65.7931 23.3673 65.1847 23.5233 64.6426 23.8208C64.1456 24.1207 63.7463 24.5584 63.4932 25.0808C63.2121 25.6802 63.075 26.337 63.0928 26.9988V37.524L57.8638 38.784V26.9988C57.8817 26.337 57.7445 25.6802 57.4634 25.0808C57.2123 24.5624 56.8197 24.1256 56.3308 23.8208C55.7887 23.5233 55.1803 23.3673 54.5619 23.3673C53.9435 23.3673 53.3351 23.5233 52.793 23.8208C52.296 24.1211 51.8963 24.5587 51.6422 25.0808C51.3611 25.6802 51.224 26.337 51.2418 26.9988L51.2194 37.524L46.0156 38.7826ZM26.6685 36.2082C26.519 35.9635 26.3834 35.7107 26.2625 35.4508C25.97 34.824 25.7484 34.1666 25.6017 33.4908C25.5541 33.523 25.5051 33.5524 25.4547 33.5818C24.8941 33.8792 24.2692 34.0346 23.6347 34.0346C23.0001 34.0346 22.3752 33.8792 21.8147 33.5818C21.2874 33.2867 20.8574 32.8445 20.5771 32.3092C20.2766 31.7218 20.1269 31.069 20.1417 30.4094V11.8594L14.9141 13.1642V30.828C14.9141 32.409 15.1941 33.7918 15.7541 34.9762C16.2785 36.124 17.1342 37.0888 18.2111 37.7468C19.2919 38.4085 20.5985 38.7398 22.1311 38.7408C23.4555 38.7408 24.6114 38.4673 25.5989 37.9204C26.147 37.6191 26.6274 37.2083 27.0101 36.7136C26.8855 36.5512 26.7735 36.3818 26.6685 36.2082ZM43.8699 37.559V17.9786L38.6465 19.282V30.4078C38.6606 31.0673 38.511 31.7201 38.2111 32.3076C37.9339 32.8392 37.5109 33.2806 36.9917 33.5802C36.433 33.8917 35.8013 34.0483 35.1619 34.0338C34.9301 34.0343 34.6988 34.0151 34.4703 33.9764C34.0767 33.9105 33.6977 33.7764 33.3503 33.5802C32.823 33.2851 32.393 32.8429 32.1127 32.3076C31.8741 31.8543 31.7312 31.3568 31.6927 30.846C31.6731 30.7032 31.6731 30.5576 31.6731 30.4078V17.8904L26.4455 19.1924V30.8292C26.4455 32.4066 26.7255 33.7865 27.2855 34.969C27.3898 35.1924 27.5067 35.4098 27.6355 35.62C28.1534 36.4863 28.8741 37.2137 29.7355 37.7396C30.7077 38.3173 31.8053 38.6511 32.9345 38.7126C33.1669 38.7308 33.4063 38.7392 33.6513 38.7392C34.9757 38.7383 36.1316 38.4648 37.1191 37.9188C37.7741 37.5608 38.3316 37.0479 38.7431 36.425C38.8313 36.285 38.9125 36.145 38.9895 36.005V38.7826L43.8699 37.559Z" fill="#454267"/>
</svg>
